<?xml version="1.0" encoding="UTF-8" standalone="no"?><svg xmlns="http://www.w3.org/2000/svg" xmlns:xlink="http://www.w3.org/1999/xlink" contentScriptType="application/ecmascript" contentStyleType="text/css" height="123px" preserveAspectRatio="none" style="width:265px;height:123px;" version="1.1" viewBox="0 0 265 123" width="265px" zoomAndPan="magnify"><defs><filter height="300%" id="f1b3owj68rwkun" width="300%" x="-1" y="-1"><feGaussianBlur result="blurOut" stdDeviation="2.0"/><feColorMatrix in="blurOut" result="blurOut2" type="matrix" values="0 0 0 0 0 0 0 0 0 0 0 0 0 0 0 0 0 0 .4 0"/><feOffset dx="4.0" dy="4.0" in="blurOut2" result="blurOut3"/><feBlend in="SourceGraphic" in2="blurOut3" mode="normal"/></filter></defs><g><!--MD5=[0b4e4b4980470ea387cc45de9bd14b5b]
class Application--><rect fill="#FEFECE" filter="url(#f1b3owj68rwkun)" height="105.1563" id="Application" style="stroke: #A80036; stroke-width: 1.5;" width="247" x="7" y="7"/><ellipse cx="91.75" cy="25.9688" fill="#ADD1B2" rx="11" ry="11" style="stroke: #A80036; stroke-width: 1.0;"/><path d="M94.7188,31.6094 Q94.1406,31.9063 93.5,32.0469 Q92.8594,32.2031 92.1563,32.2031 Q89.6563,32.2031 88.3281,30.5625 Q87.0156,28.9063 87.0156,25.7813 Q87.0156,22.6563 88.3281,21 Q89.6563,19.3438 92.1563,19.3438 Q92.8594,19.3438 93.5,19.5 Q94.1563,19.6563 94.7188,19.9531 L94.7188,22.6719 Q94.0938,22.0938 93.5,21.8281 Q92.9063,21.5469 92.2813,21.5469 Q90.9375,21.5469 90.25,22.625 Q89.5625,23.6875 89.5625,25.7813 Q89.5625,27.875 90.25,28.9531 Q90.9375,30.0156 92.2813,30.0156 Q92.9063,30.0156 93.5,29.75 Q94.0938,29.4688 94.7188,28.8906 L94.7188,31.6094 Z "/><text fill="#000000" font-family="sans-serif" font-size="12" font-style="italic" lengthAdjust="spacingAndGlyphs" textLength="48" x="122.75" y="23.1387">«static»</text><text fill="#000000" font-family="sans-serif" font-size="12" lengthAdjust="spacingAndGlyphs" textLength="69" x="112.25" y="37.1074">Application</text><line style="stroke: #A80036; stroke-width: 1.5;" x1="8" x2="253" y1="44.9375" y2="44.9375"/><ellipse cx="18" cy="55.9375" fill="none" rx="3" ry="3" style="stroke: #038048; stroke-width: 1.0;"/><text fill="#000000" font-family="sans-serif" font-size="11" lengthAdjust="spacingAndGlyphs" text-decoration="underline" textLength="213" x="27" y="59.1479">Window : EngineWindow? «get» = null</text><ellipse cx="18" cy="68.7422" fill="none" rx="3" ry="3" style="stroke: #038048; stroke-width: 1.0;"/><text fill="#000000" font-family="sans-serif" font-size="11" lengthAdjust="spacingAndGlyphs" text-decoration="underline" textLength="221" x="27" y="71.9526">AssetsFolder : string = "../../../Assets"</text><line style="stroke: #A80036; stroke-width: 1.5;" x1="8" x2="253" y1="78.5469" y2="78.5469"/><ellipse cx="18" cy="89.5469" fill="#84BE84" rx="3" ry="3" style="stroke: #038048; stroke-width: 1.0;"/><text fill="#000000" font-family="sans-serif" font-size="11" lengthAdjust="spacingAndGlyphs" text-decoration="underline" textLength="207" x="27" y="92.7573">SetWindow(win:EngineWindow) : void</text><ellipse cx="18" cy="102.3516" fill="#84BE84" rx="3" ry="3" style="stroke: #038048; stroke-width: 1.0;"/><text fill="#000000" font-family="sans-serif" font-size="11" lengthAdjust="spacingAndGlyphs" text-decoration="underline" textLength="66" x="27" y="105.562">Quit() : void</text><!--MD5=[39bd50a0c8de3a7fefa22f6e211c852b]
@startuml
class Application <<static>> {
    + {static} Window : EngineWindow? <<get>> = null
    + {static} AssetsFolder : string = "../../../Assets"
    + {static} SetWindow(win:EngineWindow) : void
    + {static} Quit() : void
}
@enduml

PlantUML version 1.2020.02(Sun Mar 01 10:22:07 GMT 2020)
(GPL source distribution)
Java Runtime: OpenJDK Runtime Environment
JVM: OpenJDK 64-Bit Server VM
Java Version: 11.0.9+11-Ubuntu-0ubuntu1
Operating System: Linux
Default Encoding: ANSI_X3.4-1968
Language: en
Country: US
--></g></svg>