<?xml version="1.0" encoding="UTF-8" standalone="no"?><svg xmlns="http://www.w3.org/2000/svg" xmlns:xlink="http://www.w3.org/1999/xlink" contentScriptType="application/ecmascript" contentStyleType="text/css" height="84px" preserveAspectRatio="none" style="width:375px;height:84px;" version="1.1" viewBox="0 0 375 84" width="375px" zoomAndPan="magnify"><defs><filter height="300%" id="fa7ndyom83iay" width="300%" x="-1" y="-1"><feGaussianBlur result="blurOut" stdDeviation="2.0"/><feColorMatrix in="blurOut" result="blurOut2" type="matrix" values="0 0 0 0 0 0 0 0 0 0 0 0 0 0 0 0 0 0 .4 0"/><feOffset dx="4.0" dy="4.0" in="blurOut2" result="blurOut3"/><feBlend in="SourceGraphic" in2="blurOut3" mode="normal"/></filter></defs><g><!--MD5=[7f4f37fd4ff932f7e59c853c3d1b6dbc]
class Extensions--><rect fill="#FEFECE" filter="url(#fa7ndyom83iay)" height="66.7422" id="Extensions" style="stroke: #A80036; stroke-width: 1.5;" width="357" x="7" y="7"/><ellipse cx="147.25" cy="25.9688" fill="#ADD1B2" rx="11" ry="11" style="stroke: #A80036; stroke-width: 1.0;"/><path d="M150.2188,31.6094 Q149.6406,31.9063 149,32.0469 Q148.3594,32.2031 147.6563,32.2031 Q145.1563,32.2031 143.8281,30.5625 Q142.5156,28.9063 142.5156,25.7813 Q142.5156,22.6563 143.8281,21 Q145.1563,19.3438 147.6563,19.3438 Q148.3594,19.3438 149,19.5 Q149.6563,19.6563 150.2188,19.9531 L150.2188,22.6719 Q149.5938,22.0938 149,21.8281 Q148.4063,21.5469 147.7813,21.5469 Q146.4375,21.5469 145.75,22.625 Q145.0625,23.6875 145.0625,25.7813 Q145.0625,27.875 145.75,28.9531 Q146.4375,30.0156 147.7813,30.0156 Q148.4063,30.0156 149,29.75 Q149.5938,29.4688 150.2188,28.8906 L150.2188,31.6094 Z "/><text fill="#000000" font-family="sans-serif" font-size="12" font-style="italic" lengthAdjust="spacingAndGlyphs" textLength="48" x="177.75" y="23.1387">«static»</text><text fill="#000000" font-family="sans-serif" font-size="12" lengthAdjust="spacingAndGlyphs" textLength="68" x="167.75" y="37.1074">Extensions</text><line style="stroke: #A80036; stroke-width: 1.5;" x1="8" x2="363" y1="44.9375" y2="44.9375"/><line style="stroke: #A80036; stroke-width: 1.5;" x1="8" x2="363" y1="52.9375" y2="52.9375"/><ellipse cx="18" cy="63.9375" fill="#84BE84" rx="3" ry="3" style="stroke: #038048; stroke-width: 1.0;"/><text fill="#000000" font-family="sans-serif" font-size="11" lengthAdjust="spacingAndGlyphs" text-decoration="underline" textLength="331" x="27" y="67.1479">UnityMultiply(lhs:Quaternion, rhs:Quaternion) : Quaternion</text><!--MD5=[23c56b01780c5cfb6fe3e1ac539ff2a5]
@startuml
class Extensions <<static>> {
    + {static} UnityMultiply(lhs:Quaternion, rhs:Quaternion) : Quaternion
}
@enduml

PlantUML version 1.2020.02(Sun Mar 01 10:22:07 GMT 2020)
(GPL source distribution)
Java Runtime: OpenJDK Runtime Environment
JVM: OpenJDK 64-Bit Server VM
Java Version: 11.0.9+11-Ubuntu-0ubuntu1
Operating System: Linux
Default Encoding: ANSI_X3.4-1968
Language: en
Country: US
--></g></svg>