<?xml version="1.0" encoding="UTF-8" standalone="no"?><svg xmlns="http://www.w3.org/2000/svg" xmlns:xlink="http://www.w3.org/1999/xlink" contentScriptType="application/ecmascript" contentStyleType="text/css" height="296px" preserveAspectRatio="none" style="width:622px;height:296px;" version="1.1" viewBox="0 0 622 296" width="622px" zoomAndPan="magnify"><defs><filter height="300%" id="f1cxwzsklhjxfu" width="300%" x="-1" y="-1"><feGaussianBlur result="blurOut" stdDeviation="2.0"/><feColorMatrix in="blurOut" result="blurOut2" type="matrix" values="0 0 0 0 0 0 0 0 0 0 0 0 0 0 0 0 0 0 .4 0"/><feOffset dx="4.0" dy="4.0" in="blurOut2" result="blurOut3"/><feBlend in="SourceGraphic" in2="blurOut3" mode="normal"/></filter></defs><g><!--MD5=[3b007e695593cf138a3f6b905d3d77a0]
class LoggingContext--><rect fill="#FEFECE" filter="url(#f1cxwzsklhjxfu)" height="86.4141" id="LoggingContext" style="stroke: #A80036; stroke-width: 1.5;" width="195" x="46.5" y="49.5"/><ellipse cx="91.25" cy="65.5" fill="#ADD1B2" rx="11" ry="11" style="stroke: #A80036; stroke-width: 1.0;"/><path d="M94.2188,71.1406 Q93.6406,71.4375 93,71.5781 Q92.3594,71.7344 91.6563,71.7344 Q89.1563,71.7344 87.8281,70.0938 Q86.5156,68.4375 86.5156,65.3125 Q86.5156,62.1875 87.8281,60.5313 Q89.1563,58.875 91.6563,58.875 Q92.3594,58.875 93,59.0313 Q93.6563,59.1875 94.2188,59.4844 L94.2188,62.2031 Q93.5938,61.625 93,61.3594 Q92.4063,61.0781 91.7813,61.0781 Q90.4375,61.0781 89.75,62.1563 Q89.0625,63.2188 89.0625,65.3125 Q89.0625,67.4063 89.75,68.4844 Q90.4375,69.5469 91.7813,69.5469 Q92.4063,69.5469 93,69.2813 Q93.5938,69 94.2188,68.4219 L94.2188,71.1406 Z "/><text fill="#000000" font-family="sans-serif" font-size="12" lengthAdjust="spacingAndGlyphs" textLength="97" x="111.75" y="69.6543">LoggingContext</text><line style="stroke: #A80036; stroke-width: 1.5;" x1="47.5" x2="240.5" y1="81.5" y2="81.5"/><ellipse cx="57.5" cy="92.5" fill="none" rx="3" ry="3" style="stroke: #038048; stroke-width: 1.0;"/><text fill="#000000" font-family="sans-serif" font-size="11" lengthAdjust="spacingAndGlyphs" textLength="107" x="66.5" y="95.7104">stackTrace : string</text><line style="stroke: #A80036; stroke-width: 1.5;" x1="47.5" x2="240.5" y1="102.3047" y2="102.3047"/><ellipse cx="57.5" cy="113.3047" fill="#84BE84" rx="3" ry="3" style="stroke: #038048; stroke-width: 1.0;"/><text fill="#000000" font-family="sans-serif" font-size="11" lengthAdjust="spacingAndGlyphs" textLength="169" x="66.5" y="116.5151">LoggingContext(skipCount:int)</text><ellipse cx="57.5" cy="126.1094" fill="#84BE84" rx="3" ry="3" style="stroke: #038048; stroke-width: 1.0;"/><text fill="#000000" font-family="sans-serif" font-size="11" lengthAdjust="spacingAndGlyphs" textLength="166" x="66.5" y="129.3198">«override» ToString() : string</text><!--MD5=[248f897e4bb16c2722904b15df30346f]
class Logger--><rect fill="#FEFECE" filter="url(#f1cxwzsklhjxfu)" height="169.1797" id="Logger" style="stroke: #A80036; stroke-width: 1.5;" width="334" x="277" y="8"/><ellipse cx="417.75" cy="26.9688" fill="#ADD1B2" rx="11" ry="11" style="stroke: #A80036; stroke-width: 1.0;"/><path d="M420.7188,32.6094 Q420.1406,32.9063 419.5,33.0469 Q418.8594,33.2031 418.1563,33.2031 Q415.6563,33.2031 414.3281,31.5625 Q413.0156,29.9063 413.0156,26.7813 Q413.0156,23.6563 414.3281,22 Q415.6563,20.3438 418.1563,20.3438 Q418.8594,20.3438 419.5,20.5 Q420.1563,20.6563 420.7188,20.9531 L420.7188,23.6719 Q420.0938,23.0938 419.5,22.8281 Q418.9063,22.5469 418.2813,22.5469 Q416.9375,22.5469 416.25,23.625 Q415.5625,24.6875 415.5625,26.7813 Q415.5625,28.875 416.25,29.9531 Q416.9375,31.0156 418.2813,31.0156 Q418.9063,31.0156 419.5,30.75 Q420.0938,30.4688 420.7188,29.8906 L420.7188,32.6094 Z "/><text fill="#000000" font-family="sans-serif" font-size="12" font-style="italic" lengthAdjust="spacingAndGlyphs" textLength="48" x="436.25" y="24.1387">«static»</text><text fill="#000000" font-family="sans-serif" font-size="12" lengthAdjust="spacingAndGlyphs" textLength="43" x="438.75" y="38.1074">Logger</text><line style="stroke: #A80036; stroke-width: 1.5;" x1="278" x2="610" y1="45.9375" y2="45.9375"/><line style="stroke: #A80036; stroke-width: 1.5;" x1="278" x2="610" y1="53.9375" y2="53.9375"/><ellipse cx="288" cy="64.9375" fill="#84BE84" rx="3" ry="3" style="stroke: #038048; stroke-width: 1.0;"/><text fill="#000000" font-family="sans-serif" font-size="11" lengthAdjust="spacingAndGlyphs" text-decoration="underline" textLength="189" x="297" y="68.1479">GatherContext() : LoggingContext</text><ellipse cx="288" cy="77.7422" fill="#84BE84" rx="3" ry="3" style="stroke: #038048; stroke-width: 1.0;"/><text fill="#000000" font-family="sans-serif" font-size="11" lengthAdjust="spacingAndGlyphs" text-decoration="underline" textLength="300" x="297" y="80.9526">Log(message:object, context:LoggingContext?) : void</text><ellipse cx="288" cy="90.5469" fill="#84BE84" rx="3" ry="3" style="stroke: #038048; stroke-width: 1.0;"/><text fill="#000000" font-family="sans-serif" font-size="11" lengthAdjust="spacingAndGlyphs" text-decoration="underline" textLength="301" x="297" y="93.7573">Info(message:object, context:LoggingContext?) : void</text><ellipse cx="288" cy="103.3516" fill="#84BE84" rx="3" ry="3" style="stroke: #038048; stroke-width: 1.0;"/><text fill="#000000" font-family="sans-serif" font-size="11" lengthAdjust="spacingAndGlyphs" text-decoration="underline" textLength="308" x="297" y="106.562">Warn(message:object, context:LoggingContext?) : void</text><ellipse cx="288" cy="116.1563" fill="#84BE84" rx="3" ry="3" style="stroke: #038048; stroke-width: 1.0;"/><text fill="#000000" font-family="sans-serif" font-size="11" lengthAdjust="spacingAndGlyphs" text-decoration="underline" textLength="297" x="297" y="119.3667">Err(message:object, context:LoggingContext?) : void</text><ellipse cx="288" cy="128.9609" fill="#84BE84" rx="3" ry="3" style="stroke: #038048; stroke-width: 1.0;"/><text fill="#000000" font-family="sans-serif" font-size="11" lengthAdjust="spacingAndGlyphs" text-decoration="underline" textLength="300" x="297" y="132.1714">Info(message:string, context:LoggingContext?) : void</text><ellipse cx="288" cy="141.7656" fill="#84BE84" rx="3" ry="3" style="stroke: #038048; stroke-width: 1.0;"/><text fill="#000000" font-family="sans-serif" font-size="11" lengthAdjust="spacingAndGlyphs" text-decoration="underline" textLength="307" x="297" y="144.9761">Warn(message:string, context:LoggingContext?) : void</text><ellipse cx="288" cy="154.5703" fill="#84BE84" rx="3" ry="3" style="stroke: #038048; stroke-width: 1.0;"/><text fill="#000000" font-family="sans-serif" font-size="11" lengthAdjust="spacingAndGlyphs" text-decoration="underline" textLength="296" x="297" y="157.7808">Err(message:string, context:LoggingContext?) : void</text><ellipse cx="288" cy="167.375" fill="#84BE84" rx="3" ry="3" style="stroke: #038048; stroke-width: 1.0;"/><text fill="#000000" font-family="sans-serif" font-size="11" lengthAdjust="spacingAndGlyphs" text-decoration="underline" textLength="291" x="297" y="170.5854">Except(e:Exception, context:LoggingContext?) : void</text><!--MD5=[bfd624faa0903b1268962c90584fcb08]
class StackFrame--><rect fill="#FEFECE" filter="url(#f1cxwzsklhjxfu)" height="48" id="StackFrame" style="stroke: #A80036; stroke-width: 1.5;" width="106" x="91" y="237"/><ellipse cx="106" cy="253" fill="#ADD1B2" rx="11" ry="11" style="stroke: #A80036; stroke-width: 1.0;"/><path d="M108.9688,258.6406 Q108.3906,258.9375 107.75,259.0781 Q107.1094,259.2344 106.4063,259.2344 Q103.9063,259.2344 102.5781,257.5938 Q101.2656,255.9375 101.2656,252.8125 Q101.2656,249.6875 102.5781,248.0313 Q103.9063,246.375 106.4063,246.375 Q107.1094,246.375 107.75,246.5313 Q108.4063,246.6875 108.9688,246.9844 L108.9688,249.7031 Q108.3438,249.125 107.75,248.8594 Q107.1563,248.5781 106.5313,248.5781 Q105.1875,248.5781 104.5,249.6563 Q103.8125,250.7188 103.8125,252.8125 Q103.8125,254.9063 104.5,255.9844 Q105.1875,257.0469 106.5313,257.0469 Q107.1563,257.0469 107.75,256.7813 Q108.3438,256.5 108.9688,255.9219 L108.9688,258.6406 Z "/><text fill="#000000" font-family="sans-serif" font-size="12" lengthAdjust="spacingAndGlyphs" textLength="74" x="120" y="257.1543">StackFrame</text><line style="stroke: #A80036; stroke-width: 1.5;" x1="92" x2="196" y1="269" y2="269"/><line style="stroke: #A80036; stroke-width: 1.5;" x1="92" x2="196" y1="277" y2="277"/><!--MD5=[2669d455edf371009de7cc911423af1f]
link LoggingContext to StackFrame--><path d="M144,135.51 C144,165.68 144,205.51 144,231.9 " fill="none" id="LoggingContext-&gt;StackFrame" style="stroke: #A80036; stroke-width: 1.0;"/><polygon fill="#A80036" points="144,236.99,148,227.99,144,231.99,140,227.99,144,236.99" style="stroke: #A80036; stroke-width: 1.0;"/><text fill="#000000" font-family="sans-serif" font-size="13" lengthAdjust="spacingAndGlyphs" textLength="123" x="5.2406" y="225.9995">currentStackFrame</text><!--MD5=[ea5b4e28a1d9b09b500388392c626f2b]
@startuml
class LoggingContext {
    + stackTrace : string
    + LoggingContext(skipCount:int)
    + <<override>> ToString() : string
}
class Logger <<static>> {
    + {static} GatherContext() : LoggingContext
    + {static} Log(message:object, context:LoggingContext?) : void
    + {static} Info(message:object, context:LoggingContext?) : void
    + {static} Warn(message:object, context:LoggingContext?) : void
    + {static} Err(message:object, context:LoggingContext?) : void
    + {static} Info(message:string, context:LoggingContext?) : void
    + {static} Warn(message:string, context:LoggingContext?) : void
    + {static} Err(message:string, context:LoggingContext?) : void
    + {static} Except(e:Exception, context:LoggingContext?) : void
}
LoggingContext - -> "currentStackFrame" StackFrame
@enduml

PlantUML version 1.2020.02(Sun Mar 01 10:22:07 GMT 2020)
(GPL source distribution)
Java Runtime: OpenJDK Runtime Environment
JVM: OpenJDK 64-Bit Server VM
Java Version: 11.0.9+11-Ubuntu-0ubuntu1
Operating System: Linux
Default Encoding: ANSI_X3.4-1968
Language: en
Country: US
--></g></svg>