<?xml version="1.0" encoding="UTF-8" standalone="no"?><svg xmlns="http://www.w3.org/2000/svg" xmlns:xlink="http://www.w3.org/1999/xlink" contentScriptType="application/ecmascript" contentStyleType="text/css" height="424px" preserveAspectRatio="none" style="width:484px;height:424px;" version="1.1" viewBox="0 0 484 424" width="484px" zoomAndPan="magnify"><defs><filter height="300%" id="f1xn2jxpy1p2gf" width="300%" x="-1" y="-1"><feGaussianBlur result="blurOut" stdDeviation="2.0"/><feColorMatrix in="blurOut" result="blurOut2" type="matrix" values="0 0 0 0 0 0 0 0 0 0 0 0 0 0 0 0 0 0 .4 0"/><feOffset dx="4.0" dy="4.0" in="blurOut2" result="blurOut3"/><feBlend in="SourceGraphic" in2="blurOut3" mode="normal"/></filter></defs><g><!--MD5=[3c843ccf628bb10acd9f4f8bd4afbcd1]
class RTRenderer--><rect fill="#FEFECE" filter="url(#f1xn2jxpy1p2gf)" height="188.8516" id="RTRenderer" style="stroke: #A80036; stroke-width: 1.5;" width="467" x="6" y="116"/><ellipse cx="198.75" cy="132" fill="#ADD1B2" rx="11" ry="11" style="stroke: #A80036; stroke-width: 1.0;"/><path d="M201.7188,137.6406 Q201.1406,137.9375 200.5,138.0781 Q199.8594,138.2344 199.1563,138.2344 Q196.6563,138.2344 195.3281,136.5938 Q194.0156,134.9375 194.0156,131.8125 Q194.0156,128.6875 195.3281,127.0313 Q196.6563,125.375 199.1563,125.375 Q199.8594,125.375 200.5,125.5313 Q201.1563,125.6875 201.7188,125.9844 L201.7188,128.7031 Q201.0938,128.125 200.5,127.8594 Q199.9063,127.5781 199.2813,127.5781 Q197.9375,127.5781 197.25,128.6563 Q196.5625,129.7188 196.5625,131.8125 Q196.5625,133.9063 197.25,134.9844 Q197.9375,136.0469 199.2813,136.0469 Q199.9063,136.0469 200.5,135.7813 Q201.0938,135.5 201.7188,134.9219 L201.7188,137.6406 Z "/><text fill="#000000" font-family="sans-serif" font-size="12" lengthAdjust="spacingAndGlyphs" textLength="73" x="219.25" y="136.1543">RTRenderer</text><line style="stroke: #A80036; stroke-width: 1.5;" x1="7" x2="472" y1="148" y2="148"/><ellipse cx="17" cy="159" fill="none" rx="3" ry="3" style="stroke: #038048; stroke-width: 1.0;"/><text fill="#000000" font-family="sans-serif" font-size="11" lengthAdjust="spacingAndGlyphs" text-decoration="underline" textLength="235" x="26" y="162.2104">SkyboxMaterial : GLMaterial? «get» «set»</text><ellipse cx="17" cy="171.8047" fill="none" rx="3" ry="3" style="stroke: #038048; stroke-width: 1.0;"/><text fill="#000000" font-family="sans-serif" font-size="11" lengthAdjust="spacingAndGlyphs" text-decoration="underline" textLength="192" x="26" y="175.0151">MainRenderer : GLMaterial? «get»</text><ellipse cx="17" cy="184.6094" fill="none" rx="3" ry="3" style="stroke: #038048; stroke-width: 1.0;"/><text fill="#000000" font-family="sans-serif" font-size="11" lengthAdjust="spacingAndGlyphs" text-decoration="underline" textLength="180" x="26" y="187.8198">MainRefiner : GLMaterial? «get»</text><ellipse cx="17" cy="197.4141" fill="none" rx="3" ry="3" style="stroke: #038048; stroke-width: 1.0;"/><text fill="#000000" font-family="sans-serif" font-size="11" lengthAdjust="spacingAndGlyphs" text-decoration="underline" textLength="188" x="26" y="200.6245">TexToScreen : GLMaterial? «get»</text><line style="stroke: #A80036; stroke-width: 1.5;" x1="7" x2="472" y1="207.2188" y2="207.2188"/><ellipse cx="17" cy="218.2188" fill="#84BE84" rx="3" ry="3" style="stroke: #038048; stroke-width: 1.0;"/><text fill="#000000" font-family="sans-serif" font-size="11" lengthAdjust="spacingAndGlyphs" textLength="441" x="26" y="221.4292">«override» OnResize(engineWindow:EngineWindow, width:int, height:int) : void</text><ellipse cx="17" cy="231.0234" fill="#84BE84" rx="3" ry="3" style="stroke: #038048; stroke-width: 1.0;"/><text fill="#000000" font-family="sans-serif" font-size="11" lengthAdjust="spacingAndGlyphs" text-decoration="underline" textLength="278" x="26" y="234.2339">AddShaderInternal(shader:OpenGLShader) : void</text><ellipse cx="17" cy="243.8281" fill="#84BE84" rx="3" ry="3" style="stroke: #038048; stroke-width: 1.0;"/><text fill="#000000" font-family="sans-serif" font-size="11" lengthAdjust="spacingAndGlyphs" text-decoration="underline" textLength="242" x="26" y="247.0386">GetShader(name:string) : OpenGLShader?</text><ellipse cx="17" cy="256.6328" fill="#84BE84" rx="3" ry="3" style="stroke: #038048; stroke-width: 1.0;"/><text fill="#000000" font-family="sans-serif" font-size="11" lengthAdjust="spacingAndGlyphs" textLength="151" x="26" y="259.8433">«override» OnLoad() : void</text><ellipse cx="17" cy="269.4375" fill="#84BE84" rx="3" ry="3" style="stroke: #038048; stroke-width: 1.0;"/><text fill="#000000" font-family="sans-serif" font-size="11" lengthAdjust="spacingAndGlyphs" textLength="150" x="26" y="272.6479">ResetToFirstFrame() : void</text><ellipse cx="17" cy="282.2422" fill="#84BE84" rx="3" ry="3" style="stroke: #038048; stroke-width: 1.0;"/><text fill="#000000" font-family="sans-serif" font-size="11" lengthAdjust="spacingAndGlyphs" textLength="200" x="26" y="285.4526">«override» OnRenderFrame() : void</text><ellipse cx="17" cy="295.0469" fill="#84BE84" rx="3" ry="3" style="stroke: #038048; stroke-width: 1.0;"/><text fill="#000000" font-family="sans-serif" font-size="11" lengthAdjust="spacingAndGlyphs" textLength="166" x="26" y="298.2573">«override» OnUnLoad() : void</text><!--MD5=[4945c737fad898a5ce312252f730d528]
class Renderer--><rect fill="#FEFECE" filter="url(#f1xn2jxpy1p2gf)" height="48" id="Renderer" style="stroke: #A80036; stroke-width: 1.5;" width="90" x="194.5" y="8"/><ellipse cx="209.5" cy="24" fill="#ADD1B2" rx="11" ry="11" style="stroke: #A80036; stroke-width: 1.0;"/><path d="M212.4688,29.6406 Q211.8906,29.9375 211.25,30.0781 Q210.6094,30.2344 209.9063,30.2344 Q207.4063,30.2344 206.0781,28.5938 Q204.7656,26.9375 204.7656,23.8125 Q204.7656,20.6875 206.0781,19.0313 Q207.4063,17.375 209.9063,17.375 Q210.6094,17.375 211.25,17.5313 Q211.9063,17.6875 212.4688,17.9844 L212.4688,20.7031 Q211.8438,20.125 211.25,19.8594 Q210.6563,19.5781 210.0313,19.5781 Q208.6875,19.5781 208,20.6563 Q207.3125,21.7188 207.3125,23.8125 Q207.3125,25.9063 208,26.9844 Q208.6875,28.0469 210.0313,28.0469 Q210.6563,28.0469 211.25,27.7813 Q211.8438,27.5 212.4688,26.9219 L212.4688,29.6406 Z "/><text fill="#000000" font-family="sans-serif" font-size="12" lengthAdjust="spacingAndGlyphs" textLength="58" x="223.5" y="28.1543">Renderer</text><line style="stroke: #A80036; stroke-width: 1.5;" x1="195.5" x2="283.5" y1="40" y2="40"/><line style="stroke: #A80036; stroke-width: 1.5;" x1="195.5" x2="283.5" y1="48" y2="48"/><!--MD5=[cf76d8a22b57d20f2e87ead289fb3f2d]
class Vector4--><rect fill="#FEFECE" filter="url(#f1xn2jxpy1p2gf)" height="48" id="Vector4" style="stroke: #A80036; stroke-width: 1.5;" width="81" x="199" y="365"/><ellipse cx="214" cy="381" fill="#ADD1B2" rx="11" ry="11" style="stroke: #A80036; stroke-width: 1.0;"/><path d="M216.9688,386.6406 Q216.3906,386.9375 215.75,387.0781 Q215.1094,387.2344 214.4063,387.2344 Q211.9063,387.2344 210.5781,385.5938 Q209.2656,383.9375 209.2656,380.8125 Q209.2656,377.6875 210.5781,376.0313 Q211.9063,374.375 214.4063,374.375 Q215.1094,374.375 215.75,374.5313 Q216.4063,374.6875 216.9688,374.9844 L216.9688,377.7031 Q216.3438,377.125 215.75,376.8594 Q215.1563,376.5781 214.5313,376.5781 Q213.1875,376.5781 212.5,377.6563 Q211.8125,378.7188 211.8125,380.8125 Q211.8125,382.9063 212.5,383.9844 Q213.1875,385.0469 214.5313,385.0469 Q215.1563,385.0469 215.75,384.7813 Q216.3438,384.5 216.9688,383.9219 L216.9688,386.6406 Z "/><text fill="#000000" font-family="sans-serif" font-size="12" lengthAdjust="spacingAndGlyphs" textLength="49" x="228" y="385.1543">Vector4</text><line style="stroke: #A80036; stroke-width: 1.5;" x1="200" x2="279" y1="397" y2="397"/><line style="stroke: #A80036; stroke-width: 1.5;" x1="200" x2="279" y1="405" y2="405"/><!--MD5=[4ceaef9e8ab37a18b6e938ae70b8d88e]
reverse link Renderer to RTRenderer--><path d="M239.5,76.38 C239.5,88.4 239.5,101.93 239.5,115.65 " fill="none" id="Renderer&lt;-RTRenderer" style="stroke: #A80036; stroke-width: 1.0;"/><polygon fill="none" points="232.5,76.07,239.5,56.07,246.5,76.07,232.5,76.07" style="stroke: #A80036; stroke-width: 1.0;"/><!--MD5=[5f53f5743b506fb74a8ba9532d12af09]
link RTRenderer to Vector4--><path d="M239.5,305.18 C239.5,325.02 239.5,344.49 239.5,359.56 " fill="none" id="RTRenderer-&gt;Vector4" style="stroke: #A80036; stroke-width: 1.0;"/><polygon fill="#A80036" points="239.5,364.91,243.5,355.91,239.5,359.91,235.5,355.91,239.5,364.91" style="stroke: #A80036; stroke-width: 1.0;"/><text fill="#000000" font-family="sans-serif" font-size="13" lengthAdjust="spacingAndGlyphs" textLength="66" x="165.0438" y="353.899">ClearColor</text><!--MD5=[7b455fa27453f43496fbde23b23fe6ac]
@startuml
class RTRenderer {
    + {static} SkyboxMaterial : GLMaterial? <<get>> <<set>>
    + {static} MainRenderer : GLMaterial? <<get>>
    + {static} MainRefiner : GLMaterial? <<get>>
    + {static} TexToScreen : GLMaterial? <<get>>
    + <<override>> OnResize(engineWindow:EngineWindow, width:int, height:int) : void
    + {static} AddShaderInternal(shader:OpenGLShader) : void
    + {static} GetShader(name:string) : OpenGLShader?
    + <<override>> OnLoad() : void
    + ResetToFirstFrame() : void
    + <<override>> OnRenderFrame() : void
    + <<override>> OnUnLoad() : void
}
Renderer <|- - RTRenderer
RTRenderer - -> "ClearColor" Vector4
@enduml

PlantUML version 1.2020.02(Sun Mar 01 10:22:07 GMT 2020)
(GPL source distribution)
Java Runtime: OpenJDK Runtime Environment
JVM: OpenJDK 64-Bit Server VM
Java Version: 11.0.9+11-Ubuntu-0ubuntu1
Operating System: Linux
Default Encoding: ANSI_X3.4-1968
Language: en
Country: US
--></g></svg>