<?xml version="1.0" encoding="UTF-8" standalone="no"?><svg xmlns="http://www.w3.org/2000/svg" xmlns:xlink="http://www.w3.org/1999/xlink" contentScriptType="application/ecmascript" contentStyleType="text/css" height="91px" preserveAspectRatio="none" style="width:471px;height:91px;" version="1.1" viewBox="0 0 471 91" width="471px" zoomAndPan="magnify"><defs><filter height="300%" id="f1uzz6azjwt6gz" width="300%" x="-1" y="-1"><feGaussianBlur result="blurOut" stdDeviation="2.0"/><feColorMatrix in="blurOut" result="blurOut2" type="matrix" values="0 0 0 0 0 0 0 0 0 0 0 0 0 0 0 0 0 0 .4 0"/><feOffset dx="4.0" dy="4.0" in="blurOut2" result="blurOut3"/><feBlend in="SourceGraphic" in2="blurOut3" mode="normal"/></filter></defs><g><!--MD5=[89c2070c2272638e404dadfce4af181c]
class AssetImporter--><rect fill="#FEFECE" filter="url(#f1uzz6azjwt6gz)" height="73.6094" id="AssetImporter" style="stroke: #A80036; stroke-width: 1.5;" width="453" x="7" y="7"/><ellipse cx="185.25" cy="23" fill="#ADD1B2" rx="11" ry="11" style="stroke: #A80036; stroke-width: 1.0;"/><path d="M188.2188,28.6406 Q187.6406,28.9375 187,29.0781 Q186.3594,29.2344 185.6563,29.2344 Q183.1563,29.2344 181.8281,27.5938 Q180.5156,25.9375 180.5156,22.8125 Q180.5156,19.6875 181.8281,18.0313 Q183.1563,16.375 185.6563,16.375 Q186.3594,16.375 187,16.5313 Q187.6563,16.6875 188.2188,16.9844 L188.2188,19.7031 Q187.5938,19.125 187,18.8594 Q186.4063,18.5781 185.7813,18.5781 Q184.4375,18.5781 183.75,19.6563 Q183.0625,20.7188 183.0625,22.8125 Q183.0625,24.9063 183.75,25.9844 Q184.4375,27.0469 185.7813,27.0469 Q186.4063,27.0469 187,26.7813 Q187.5938,26.5 188.2188,25.9219 L188.2188,28.6406 Z "/><text fill="#000000" font-family="sans-serif" font-size="12" lengthAdjust="spacingAndGlyphs" textLength="88" x="205.75" y="27.1543">AssetImporter</text><line style="stroke: #A80036; stroke-width: 1.5;" x1="8" x2="459" y1="39" y2="39"/><line style="stroke: #A80036; stroke-width: 1.5;" x1="8" x2="459" y1="47" y2="47"/><ellipse cx="18" cy="58" fill="#84BE84" rx="3" ry="3" style="stroke: #038048; stroke-width: 1.0;"/><text fill="#000000" font-family="sans-serif" font-size="11" lengthAdjust="spacingAndGlyphs" text-decoration="underline" textLength="427" x="27" y="61.2104">ExportAsset(folder:string, filename:string, asset:SerializeableObject) : void</text><ellipse cx="18" cy="70.8047" fill="#84BE84" rx="3" ry="3" style="stroke: #038048; stroke-width: 1.0;"/><text fill="#000000" font-family="sans-serif" font-size="11" lengthAdjust="spacingAndGlyphs" text-decoration="underline" textLength="158" x="27" y="74.0151">ImportAsset(path:string) : T</text><!--MD5=[3da069fcd7263089094a8ff895c3e381]
@startuml
class AssetImporter {
    + {static} ExportAsset(folder:string, filename:string, asset:SerializeableObject) : void
    + {static} ImportAsset(path:string) : T
}
@enduml

PlantUML version 1.2020.02(Sun Mar 01 10:22:07 GMT 2020)
(GPL source distribution)
Java Runtime: OpenJDK Runtime Environment
JVM: OpenJDK 64-Bit Server VM
Java Version: 11.0.9+11-Ubuntu-0ubuntu1
Operating System: Linux
Default Encoding: ANSI_X3.4-1968
Language: en
Country: US
--></g></svg>