<?xml version="1.0" encoding="UTF-8" standalone="no"?><svg xmlns="http://www.w3.org/2000/svg" xmlns:xlink="http://www.w3.org/1999/xlink" contentScriptType="application/ecmascript" contentStyleType="text/css" height="78px" preserveAspectRatio="none" style="width:195px;height:78px;" version="1.1" viewBox="0 0 195 78" width="195px" zoomAndPan="magnify"><defs><filter height="300%" id="f5s4qvq1im7xq" width="300%" x="-1" y="-1"><feGaussianBlur result="blurOut" stdDeviation="2.0"/><feColorMatrix in="blurOut" result="blurOut2" type="matrix" values="0 0 0 0 0 0 0 0 0 0 0 0 0 0 0 0 0 0 .4 0"/><feOffset dx="4.0" dy="4.0" in="blurOut2" result="blurOut3"/><feBlend in="SourceGraphic" in2="blurOut3" mode="normal"/></filter></defs><g><!--MD5=[2e3e9d812ecad44a698ffbd8b3f5e9db]
class Deserializer--><rect fill="#FEFECE" filter="url(#f5s4qvq1im7xq)" height="60.8047" id="Deserializer" style="stroke: #A80036; stroke-width: 1.5;" width="177" x="7" y="7"/><ellipse cx="55.25" cy="23" fill="#ADD1B2" rx="11" ry="11" style="stroke: #A80036; stroke-width: 1.0;"/><path d="M58.2188,28.6406 Q57.6406,28.9375 57,29.0781 Q56.3594,29.2344 55.6563,29.2344 Q53.1563,29.2344 51.8281,27.5938 Q50.5156,25.9375 50.5156,22.8125 Q50.5156,19.6875 51.8281,18.0313 Q53.1563,16.375 55.6563,16.375 Q56.3594,16.375 57,16.5313 Q57.6563,16.6875 58.2188,16.9844 L58.2188,19.7031 Q57.5938,19.125 57,18.8594 Q56.4063,18.5781 55.7813,18.5781 Q54.4375,18.5781 53.75,19.6563 Q53.0625,20.7188 53.0625,22.8125 Q53.0625,24.9063 53.75,25.9844 Q54.4375,27.0469 55.7813,27.0469 Q56.4063,27.0469 57,26.7813 Q57.5938,26.5 58.2188,25.9219 L58.2188,28.6406 Z "/><text fill="#000000" font-family="sans-serif" font-size="12" lengthAdjust="spacingAndGlyphs" textLength="72" x="75.75" y="27.1543">Deserializer</text><line style="stroke: #A80036; stroke-width: 1.5;" x1="8" x2="183" y1="39" y2="39"/><line style="stroke: #A80036; stroke-width: 1.5;" x1="8" x2="183" y1="47" y2="47"/><ellipse cx="18" cy="58" fill="#84BE84" rx="3" ry="3" style="stroke: #038048; stroke-width: 1.0;"/><text fill="#000000" font-family="sans-serif" font-size="11" lengthAdjust="spacingAndGlyphs" text-decoration="underline" textLength="151" x="27" y="61.2104">Deserialize(data:string) : T</text><!--MD5=[63dcf38cefb88f46e94ff20070ac8f31]
@startuml
class Deserializer {
    + {static} Deserialize(data:string) : T
}
@enduml

PlantUML version 1.2020.02(Sun Mar 01 10:22:07 GMT 2020)
(GPL source distribution)
Java Runtime: OpenJDK Runtime Environment
JVM: OpenJDK 64-Bit Server VM
Java Version: 11.0.9+11-Ubuntu-0ubuntu1
Operating System: Linux
Default Encoding: ANSI_X3.4-1968
Language: en
Country: US
--></g></svg>