<?xml version="1.0" encoding="UTF-8" standalone="no"?><svg xmlns="http://www.w3.org/2000/svg" xmlns:xlink="http://www.w3.org/1999/xlink" contentScriptType="application/ecmascript" contentStyleType="text/css" height="175px" preserveAspectRatio="none" style="width:457px;height:175px;" version="1.1" viewBox="0 0 457 175" width="457px" zoomAndPan="magnify"><defs><filter height="300%" id="f5t68tunzc42v" width="300%" x="-1" y="-1"><feGaussianBlur result="blurOut" stdDeviation="2.0"/><feColorMatrix in="blurOut" result="blurOut2" type="matrix" values="0 0 0 0 0 0 0 0 0 0 0 0 0 0 0 0 0 0 .4 0"/><feOffset dx="4.0" dy="4.0" in="blurOut2" result="blurOut3"/><feBlend in="SourceGraphic" in2="blurOut3" mode="normal"/></filter></defs><g><!--MD5=[ded6bb2856e5fb3268d4540b5b6340b7]
class Component`1--><rect fill="#FEFECE" filter="url(#f5t68tunzc42v)" height="48" id="Component`1" style="stroke: #A80036; stroke-width: 1.5;" width="129" x="46.53" y="116"/><ellipse cx="61.53" cy="132" fill="#ADD1B2" rx="11" ry="11" style="stroke: #A80036; stroke-width: 1.0;"/><path d="M64.4988,137.6406 Q63.9206,137.9375 63.28,138.0781 Q62.6394,138.2344 61.9363,138.2344 Q59.4363,138.2344 58.1081,136.5938 Q56.7956,134.9375 56.7956,131.8125 Q56.7956,128.6875 58.1081,127.0313 Q59.4363,125.375 61.9363,125.375 Q62.6394,125.375 63.28,125.5313 Q63.9363,125.6875 64.4988,125.9844 L64.4988,128.7031 Q63.8738,128.125 63.28,127.8594 Q62.6863,127.5781 62.0613,127.5781 Q60.7175,127.5781 60.03,128.6563 Q59.3425,129.7188 59.3425,131.8125 Q59.3425,133.9063 60.03,134.9844 Q60.7175,136.0469 62.0613,136.0469 Q62.6863,136.0469 63.28,135.7813 Q63.8738,135.5 64.4988,134.9219 L64.4988,137.6406 Z "/><text fill="#000000" font-family="sans-serif" font-size="12" lengthAdjust="spacingAndGlyphs" textLength="86" x="75.53" y="136.1543">Component`1</text><rect fill="#FFFFFF" height="15.9688" style="stroke: #000000; stroke-width: 1.0; stroke-dasharray: 2.0,2.0;" width="9" x="169.53" y="113"/><text fill="#000000" font-family="sans-serif" font-size="12" font-style="italic" lengthAdjust="spacingAndGlyphs" textLength="7" x="170.53" y="125.1387">T</text><line style="stroke: #A80036; stroke-width: 1.5;" x1="47.53" x2="174.53" y1="148" y2="148"/><line style="stroke: #A80036; stroke-width: 1.5;" x1="47.53" x2="174.53" y1="156" y2="156"/><!--MD5=[04a861af89d36f1bd540d7ef67dbf565]
class Memory`1--><rect fill="#FEFECE" filter="url(#f5t68tunzc42v)" height="48" id="Memory`1" style="stroke: #A80036; stroke-width: 1.5;" width="105" x="338.53" y="116"/><ellipse cx="353.53" cy="132" fill="#ADD1B2" rx="11" ry="11" style="stroke: #A80036; stroke-width: 1.0;"/><path d="M356.4988,137.6406 Q355.9206,137.9375 355.28,138.0781 Q354.6394,138.2344 353.9363,138.2344 Q351.4363,138.2344 350.1081,136.5938 Q348.7956,134.9375 348.7956,131.8125 Q348.7956,128.6875 350.1081,127.0313 Q351.4363,125.375 353.9363,125.375 Q354.6394,125.375 355.28,125.5313 Q355.9363,125.6875 356.4988,125.9844 L356.4988,128.7031 Q355.8738,128.125 355.28,127.8594 Q354.6863,127.5781 354.0613,127.5781 Q352.7175,127.5781 352.03,128.6563 Q351.3425,129.7188 351.3425,131.8125 Q351.3425,133.9063 352.03,134.9844 Q352.7175,136.0469 354.0613,136.0469 Q354.6863,136.0469 355.28,135.7813 Q355.8738,135.5 356.4988,134.9219 L356.4988,137.6406 Z "/><text fill="#000000" font-family="sans-serif" font-size="12" lengthAdjust="spacingAndGlyphs" textLength="62" x="367.53" y="136.1543">Memory`1</text><rect fill="#FFFFFF" height="15.9688" style="stroke: #000000; stroke-width: 1.0; stroke-dasharray: 2.0,2.0;" width="9" x="437.53" y="113"/><text fill="#000000" font-family="sans-serif" font-size="12" font-style="italic" lengthAdjust="spacingAndGlyphs" textLength="7" x="438.53" y="125.1387">T</text><line style="stroke: #A80036; stroke-width: 1.5;" x1="339.53" x2="442.53" y1="148" y2="148"/><line style="stroke: #A80036; stroke-width: 1.5;" x1="339.53" x2="442.53" y1="156" y2="156"/><!--MD5=[500abf91d043834fcdd772523ff9273e]
class Stack`1--><rect fill="#FEFECE" filter="url(#f5t68tunzc42v)" height="48" id="Stack`1" style="stroke: #A80036; stroke-width: 1.5;" width="92" x="211.03" y="116"/><ellipse cx="226.03" cy="132" fill="#ADD1B2" rx="11" ry="11" style="stroke: #A80036; stroke-width: 1.0;"/><path d="M228.9988,137.6406 Q228.4206,137.9375 227.78,138.0781 Q227.1394,138.2344 226.4363,138.2344 Q223.9363,138.2344 222.6081,136.5938 Q221.2956,134.9375 221.2956,131.8125 Q221.2956,128.6875 222.6081,127.0313 Q223.9363,125.375 226.4363,125.375 Q227.1394,125.375 227.78,125.5313 Q228.4363,125.6875 228.9988,125.9844 L228.9988,128.7031 Q228.3738,128.125 227.78,127.8594 Q227.1863,127.5781 226.5613,127.5781 Q225.2175,127.5781 224.53,128.6563 Q223.8425,129.7188 223.8425,131.8125 Q223.8425,133.9063 224.53,134.9844 Q225.2175,136.0469 226.5613,136.0469 Q227.1863,136.0469 227.78,135.7813 Q228.3738,135.5 228.9988,134.9219 L228.9988,137.6406 Z "/><text fill="#000000" font-family="sans-serif" font-size="12" lengthAdjust="spacingAndGlyphs" textLength="49" x="240.03" y="136.1543">Stack`1</text><rect fill="#FFFFFF" height="15.9688" style="stroke: #000000; stroke-width: 1.0; stroke-dasharray: 2.0,2.0;" width="9" x="297.03" y="113"/><text fill="#000000" font-family="sans-serif" font-size="12" font-style="italic" lengthAdjust="spacingAndGlyphs" textLength="7" x="298.03" y="125.1387">T</text><line style="stroke: #A80036; stroke-width: 1.5;" x1="212.03" x2="302.03" y1="148" y2="148"/><line style="stroke: #A80036; stroke-width: 1.5;" x1="212.03" x2="302.03" y1="156" y2="156"/><!--MD5=[655c6913e82e36e9be1fc348df88602d]
class ComponentBase--><rect fill="#FEFECE" filter="url(#f5t68tunzc42v)" height="48" id="ComponentBase" style="stroke: #A80036; stroke-width: 1.5;" width="135" x="43.53" y="8"/><ellipse cx="58.53" cy="24" fill="#ADD1B2" rx="11" ry="11" style="stroke: #A80036; stroke-width: 1.0;"/><path d="M61.4988,29.6406 Q60.9206,29.9375 60.28,30.0781 Q59.6394,30.2344 58.9363,30.2344 Q56.4363,30.2344 55.1081,28.5938 Q53.7956,26.9375 53.7956,23.8125 Q53.7956,20.6875 55.1081,19.0313 Q56.4363,17.375 58.9363,17.375 Q59.6394,17.375 60.28,17.5313 Q60.9363,17.6875 61.4988,17.9844 L61.4988,20.7031 Q60.8738,20.125 60.28,19.8594 Q59.6863,19.5781 59.0613,19.5781 Q57.7175,19.5781 57.03,20.6563 Q56.3425,21.7188 56.3425,23.8125 Q56.3425,25.9063 57.03,26.9844 Q57.7175,28.0469 59.0613,28.0469 Q59.6863,28.0469 60.28,27.7813 Q60.8738,27.5 61.4988,26.9219 L61.4988,29.6406 Z "/><text fill="#000000" font-family="sans-serif" font-size="12" lengthAdjust="spacingAndGlyphs" textLength="103" x="72.53" y="28.1543">ComponentBase</text><line style="stroke: #A80036; stroke-width: 1.5;" x1="44.53" x2="177.53" y1="40" y2="40"/><line style="stroke: #A80036; stroke-width: 1.5;" x1="44.53" x2="177.53" y1="48" y2="48"/><!--MD5=[686e37702c1fa9244f916a8f4d4e7f21]
reverse link ComponentBase to Component`1--><path d="M111.03,76.02 C111.03,89.58 111.03,104.04 111.03,115.68 " fill="none" id="ComponentBase&lt;-Component`1" style="stroke: #A80036; stroke-width: 1.0;"/><polygon fill="none" points="104.03,76,111.03,56,118.03,76,104.03,76" style="stroke: #A80036; stroke-width: 1.0;"/><!--MD5=[0f2b2503e846c9269e2c60c96922aa9d]
link Component`1 to Memory`1--><path d="M155.8701,109.8266 C155.8701,109.8266 192.67,90.75 211.53,86 C251.18,76.02 264.2,74.84 303.53,86 C320.06,90.69 336.53,99.49 350.65,108.64 " fill="none" id="Component`1-Memory`1" style="stroke: #A80036; stroke-width: 1.0;"/><polygon fill="#A80036" points="361.43,115.99,356.2494,107.6138,357.2996,113.1723,351.741,114.2225,361.43,115.99" style="stroke: #A80036; stroke-width: 1.0;"/><line style="stroke: #A80036; stroke-width: 1.0;" x1="357.2996" x2="350.685" y1="113.1723" y2="108.67"/><polygon fill="#FFFFFF" points="145.55,115.95,152.7512,116.3283,155.8701,109.8266,148.6689,109.4483,145.55,115.95" style="stroke: #A80036; stroke-width: 1.0;"/><text fill="#000000" font-family="sans-serif" font-size="13" lengthAdjust="spacingAndGlyphs" textLength="90" x="252.3767" y="104.9378">instances&lt;T&gt;</text><!--MD5=[972d7bd635c7964234ebcc0860e0c11d]
link Component`1 to Stack`1--><path d="M187.76,140 C187.76,140 194.94,140 197.92,140 " fill="none" id="Component`1-Stack`1" style="stroke: #A80036; stroke-width: 1.0;"/><polygon fill="#A80036" points="211,140,202,136,206,140,202,144,211,140" style="stroke: #A80036; stroke-width: 1.0;"/><line style="stroke: #A80036; stroke-width: 1.0;" x1="206" x2="198" y1="140" y2="140"/><polygon fill="#FFFFFF" points="175.76,140,181.76,144,187.76,140,181.76,136,175.76,140" style="stroke: #A80036; stroke-width: 1.0;"/><text fill="#000000" font-family="sans-serif" font-size="13" lengthAdjust="spacingAndGlyphs" textLength="190" x="41.8101" y="104.9178">AvailbleInstanceIndexes&lt;int&gt;</text><!--MD5=[79aeb2f208db0058f271b78b9feed53b]
@startuml
class "Component`1"<T> {
}
class "Memory`1"<T> {
}
class "Stack`1"<T> {
}
ComponentBase <|- - "Component`1"
"Component`1" o-> "instances<T>" "Memory`1"
"Component`1" o-> "AvailbleInstanceIndexes<int>" "Stack`1"
@enduml

PlantUML version 1.2020.02(Sun Mar 01 10:22:07 GMT 2020)
(GPL source distribution)
Java Runtime: OpenJDK Runtime Environment
JVM: OpenJDK 64-Bit Server VM
Java Version: 11.0.9+11-Ubuntu-0ubuntu1
Operating System: Linux
Default Encoding: ANSI_X3.4-1968
Language: en
Country: US
--></g></svg>