<?xml version="1.0" encoding="UTF-8" standalone="no"?><svg xmlns="http://www.w3.org/2000/svg" xmlns:xlink="http://www.w3.org/1999/xlink" contentScriptType="application/ecmascript" contentStyleType="text/css" height="232px" preserveAspectRatio="none" style="width:341px;height:232px;" version="1.1" viewBox="0 0 341 232" width="341px" zoomAndPan="magnify"><defs><filter height="300%" id="f1uqcw5ggikr9f" width="300%" x="-1" y="-1"><feGaussianBlur result="blurOut" stdDeviation="2.0"/><feColorMatrix in="blurOut" result="blurOut2" type="matrix" values="0 0 0 0 0 0 0 0 0 0 0 0 0 0 0 0 0 0 .4 0"/><feOffset dx="4.0" dy="4.0" in="blurOut2" result="blurOut3"/><feBlend in="SourceGraphic" in2="blurOut3" mode="normal"/></filter></defs><g><!--MD5=[655c6913e82e36e9be1fc348df88602d]
class ComponentBase--><rect fill="#FEFECE" filter="url(#f1uqcw5ggikr9f)" height="214.4609" id="ComponentBase" style="stroke: #A80036; stroke-width: 1.5;" width="323" x="7" y="7"/><ellipse cx="112.75" cy="23" fill="#ADD1B2" rx="11" ry="11" style="stroke: #A80036; stroke-width: 1.0;"/><path d="M115.7188,28.6406 Q115.1406,28.9375 114.5,29.0781 Q113.8594,29.2344 113.1563,29.2344 Q110.6563,29.2344 109.3281,27.5938 Q108.0156,25.9375 108.0156,22.8125 Q108.0156,19.6875 109.3281,18.0313 Q110.6563,16.375 113.1563,16.375 Q113.8594,16.375 114.5,16.5313 Q115.1563,16.6875 115.7188,16.9844 L115.7188,19.7031 Q115.0938,19.125 114.5,18.8594 Q113.9063,18.5781 113.2813,18.5781 Q111.9375,18.5781 111.25,19.6563 Q110.5625,20.7188 110.5625,22.8125 Q110.5625,24.9063 111.25,25.9844 Q111.9375,27.0469 113.2813,27.0469 Q113.9063,27.0469 114.5,26.7813 Q115.0938,26.5 115.7188,25.9219 L115.7188,28.6406 Z "/><text fill="#000000" font-family="sans-serif" font-size="12" lengthAdjust="spacingAndGlyphs" textLength="103" x="133.25" y="27.1543">ComponentBase</text><line style="stroke: #A80036; stroke-width: 1.5;" x1="8" x2="329" y1="39" y2="39"/><ellipse cx="18" cy="50" fill="none" rx="3" ry="3" style="stroke: #038048; stroke-width: 1.0;"/><text fill="#000000" font-family="sans-serif" font-size="11" lengthAdjust="spacingAndGlyphs" textLength="104" x="27" y="53.2104">EntityID : int «get»</text><ellipse cx="18" cy="62.8047" fill="none" rx="3" ry="3" style="stroke: #038048; stroke-width: 1.0;"/><text fill="#000000" font-family="sans-serif" font-size="11" lengthAdjust="spacingAndGlyphs" textLength="138" x="27" y="66.0151">ComponentID : int «get»</text><ellipse cx="18" cy="75.6094" fill="none" rx="3" ry="3" style="stroke: #038048; stroke-width: 1.0;"/><text fill="#000000" font-family="sans-serif" font-size="11" lengthAdjust="spacingAndGlyphs" textLength="126" x="27" y="78.8198">nextComponentID : int</text><ellipse cx="18" cy="88.4141" fill="none" rx="3" ry="3" style="stroke: #038048; stroke-width: 1.0;"/><text fill="#000000" font-family="sans-serif" font-size="11" lengthAdjust="spacingAndGlyphs" textLength="151" x="27" y="91.6245">previousComponentID : int</text><ellipse cx="18" cy="101.2188" fill="none" rx="3" ry="3" style="stroke: #038048; stroke-width: 1.0;"/><text fill="#000000" font-family="sans-serif" font-size="11" lengthAdjust="spacingAndGlyphs" textLength="135" x="27" y="104.4292">transform : Transform?</text><ellipse cx="18" cy="114.0234" fill="none" rx="3" ry="3" style="stroke: #038048; stroke-width: 1.0;"/><text fill="#000000" font-family="sans-serif" font-size="11" lengthAdjust="spacingAndGlyphs" textLength="80" x="27" y="117.2339">entity : Entity?</text><ellipse cx="18" cy="126.8281" fill="none" rx="3" ry="3" style="stroke: #038048; stroke-width: 1.0;"/><text fill="#000000" font-family="sans-serif" font-size="11" lengthAdjust="spacingAndGlyphs" textLength="119" x="27" y="130.0386">isActive : bool = true</text><ellipse cx="18" cy="139.6328" fill="none" rx="3" ry="3" style="stroke: #038048; stroke-width: 1.0;"/><text fill="#000000" font-family="sans-serif" font-size="11" lengthAdjust="spacingAndGlyphs" textLength="297" x="27" y="142.8433">«virtual» IsExclusiveComponent : bool «get» = false</text><line style="stroke: #A80036; stroke-width: 1.5;" x1="8" x2="329" y1="149.4375" y2="149.4375"/><ellipse cx="18" cy="160.4375" fill="#84BE84" rx="3" ry="3" style="stroke: #038048; stroke-width: 1.0;"/><text fill="#000000" font-family="sans-serif" font-size="11" lengthAdjust="spacingAndGlyphs" textLength="101" x="27" y="163.6479">SetID(id:int) : void</text><ellipse cx="18" cy="173.2422" fill="#84BE84" rx="3" ry="3" style="stroke: #038048; stroke-width: 1.0;"/><text fill="#000000" font-family="sans-serif" font-size="11" lengthAdjust="spacingAndGlyphs" textLength="141" x="27" y="176.4526">SetEntity(e:Entity?) : void</text><ellipse cx="18" cy="186.0469" fill="#84BE84" rx="3" ry="3" style="stroke: #038048; stroke-width: 1.0;"/><text fill="#000000" font-family="sans-serif" font-size="11" lengthAdjust="spacingAndGlyphs" textLength="150" x="27" y="189.2573">«virtual» OnCreate() : void</text><ellipse cx="18" cy="198.8516" fill="#84BE84" rx="3" ry="3" style="stroke: #038048; stroke-width: 1.0;"/><text fill="#000000" font-family="sans-serif" font-size="11" lengthAdjust="spacingAndGlyphs" textLength="136" x="27" y="202.062">«virtual» Update() : void</text><ellipse cx="18" cy="211.6563" fill="#84BE84" rx="3" ry="3" style="stroke: #038048; stroke-width: 1.0;"/><text fill="#000000" font-family="sans-serif" font-size="11" lengthAdjust="spacingAndGlyphs" textLength="156" x="27" y="214.8667">«virtual» OnDestroy() : void</text><!--MD5=[a5bd7b2d8a0d7fb27ce54acb4f2c38b7]
@startuml
class ComponentBase {
    + EntityID : int <<get>>
    + ComponentID : int <<get>>
    + nextComponentID : int
    + previousComponentID : int
    + transform : Transform?
    + entity : Entity?
    + SetID(id:int) : void
    + isActive : bool = true
    + <<virtual>> IsExclusiveComponent : bool <<get>> = false
    + SetEntity(e:Entity?) : void
    + <<virtual>> OnCreate() : void
    + <<virtual>> Update() : void
    + <<virtual>> OnDestroy() : void
}
@enduml

PlantUML version 1.2020.02(Sun Mar 01 10:22:07 GMT 2020)
(GPL source distribution)
Java Runtime: OpenJDK Runtime Environment
JVM: OpenJDK 64-Bit Server VM
Java Version: 11.0.9+11-Ubuntu-0ubuntu1
Operating System: Linux
Default Encoding: ANSI_X3.4-1968
Language: en
Country: US
--></g></svg>