<?xml version="1.0" encoding="UTF-8" standalone="no"?><svg xmlns="http://www.w3.org/2000/svg" xmlns:xlink="http://www.w3.org/1999/xlink" contentScriptType="application/ecmascript" contentStyleType="text/css" height="367px" preserveAspectRatio="none" style="width:507px;height:367px;" version="1.1" viewBox="0 0 507 367" width="507px" zoomAndPan="magnify"><defs><filter height="300%" id="f158azcipvhepy" width="300%" x="-1" y="-1"><feGaussianBlur result="blurOut" stdDeviation="2.0"/><feColorMatrix in="blurOut" result="blurOut2" type="matrix" values="0 0 0 0 0 0 0 0 0 0 0 0 0 0 0 0 0 0 .4 0"/><feOffset dx="4.0" dy="4.0" in="blurOut2" result="blurOut3"/><feBlend in="SourceGraphic" in2="blurOut3" mode="normal"/></filter></defs><g><!--MD5=[be996cdb8e6bf2fc7cb89c555f2cd144]
class Entity--><rect fill="#FEFECE" filter="url(#f158azcipvhepy)" height="240.0703" id="Entity" style="stroke: #A80036; stroke-width: 1.5;" width="306" x="6" y="116"/><ellipse cx="137.25" cy="132" fill="#ADD1B2" rx="11" ry="11" style="stroke: #A80036; stroke-width: 1.0;"/><path d="M140.2188,137.6406 Q139.6406,137.9375 139,138.0781 Q138.3594,138.2344 137.6563,138.2344 Q135.1563,138.2344 133.8281,136.5938 Q132.5156,134.9375 132.5156,131.8125 Q132.5156,128.6875 133.8281,127.0313 Q135.1563,125.375 137.6563,125.375 Q138.3594,125.375 139,125.5313 Q139.6563,125.6875 140.2188,125.9844 L140.2188,128.7031 Q139.5938,128.125 139,127.8594 Q138.4063,127.5781 137.7813,127.5781 Q136.4375,127.5781 135.75,128.6563 Q135.0625,129.7188 135.0625,131.8125 Q135.0625,133.9063 135.75,134.9844 Q136.4375,136.0469 137.7813,136.0469 Q138.4063,136.0469 139,135.7813 Q139.5938,135.5 140.2188,134.9219 L140.2188,137.6406 Z "/><text fill="#000000" font-family="sans-serif" font-size="12" lengthAdjust="spacingAndGlyphs" textLength="35" x="157.75" y="136.1543">Entity</text><line style="stroke: #A80036; stroke-width: 1.5;" x1="7" x2="311" y1="148" y2="148"/><ellipse cx="17" cy="159" fill="none" rx="3" ry="3" style="stroke: #038048; stroke-width: 1.0;"/><text fill="#000000" font-family="sans-serif" font-size="11" lengthAdjust="spacingAndGlyphs" textLength="73" x="26" y="162.2104">ID : int «get»</text><ellipse cx="17" cy="171.8047" fill="none" rx="3" ry="3" style="stroke: #038048; stroke-width: 1.0;"/><text fill="#000000" font-family="sans-serif" font-size="11" lengthAdjust="spacingAndGlyphs" textLength="92" x="26" y="175.0151">nextEntityID : int</text><ellipse cx="17" cy="184.6094" fill="none" rx="3" ry="3" style="stroke: #038048; stroke-width: 1.0;"/><text fill="#000000" font-family="sans-serif" font-size="11" lengthAdjust="spacingAndGlyphs" textLength="117" x="26" y="187.8198">previousEntityID : int</text><ellipse cx="17" cy="197.4141" fill="none" rx="3" ry="3" style="stroke: #038048; stroke-width: 1.0;"/><text fill="#000000" font-family="sans-serif" font-size="11" lengthAdjust="spacingAndGlyphs" textLength="135" x="26" y="200.6245">transform : Transform?</text><line style="stroke: #A80036; stroke-width: 1.5;" x1="7" x2="311" y1="207.2188" y2="207.2188"/><ellipse cx="17" cy="218.2188" fill="#84BE84" rx="3" ry="3" style="stroke: #038048; stroke-width: 1.0;"/><text fill="#000000" font-family="sans-serif" font-size="11" lengthAdjust="spacingAndGlyphs" textLength="280" x="26" y="221.4292">Entity(id:int, environment:InteractiveEnvironment)</text><ellipse cx="17" cy="231.0234" fill="#84BE84" rx="3" ry="3" style="stroke: #038048; stroke-width: 1.0;"/><text fill="#000000" font-family="sans-serif" font-size="11" lengthAdjust="spacingAndGlyphs" textLength="241" x="26" y="234.2339">GetEnvironment() : InteractiveEnvironment</text><ellipse cx="17" cy="243.8281" fill="#84BE84" rx="3" ry="3" style="stroke: #038048; stroke-width: 1.0;"/><text fill="#000000" font-family="sans-serif" font-size="11" lengthAdjust="spacingAndGlyphs" textLength="87" x="26" y="247.0386">Destroy() : void</text><ellipse cx="17" cy="256.6328" fill="#84BE84" rx="3" ry="3" style="stroke: #038048; stroke-width: 1.0;"/><text fill="#000000" font-family="sans-serif" font-size="11" lengthAdjust="spacingAndGlyphs" textLength="119" x="26" y="259.8433">AddComponent() : T?</text><ellipse cx="17" cy="269.4375" fill="#84BE84" rx="3" ry="3" style="stroke: #038048; stroke-width: 1.0;"/><text fill="#000000" font-family="sans-serif" font-size="11" lengthAdjust="spacingAndGlyphs" textLength="112" x="26" y="272.6479">GetComponent() : T</text><ellipse cx="17" cy="282.2422" fill="#84BE84" rx="3" ry="3" style="stroke: #038048; stroke-width: 1.0;"/><text fill="#000000" font-family="sans-serif" font-size="11" lengthAdjust="spacingAndGlyphs" textLength="166" x="26" y="285.4526">GetComponents() : Span&lt;T&gt;</text><ellipse cx="17" cy="295.0469" fill="#84BE84" rx="3" ry="3" style="stroke: #038048; stroke-width: 1.0;"/><text fill="#000000" font-family="sans-serif" font-size="11" lengthAdjust="spacingAndGlyphs" textLength="227" x="26" y="298.2573">RemoveComponent(component:T) : void</text><ellipse cx="17" cy="307.8516" fill="#84BE84" rx="3" ry="3" style="stroke: #038048; stroke-width: 1.0;"/><text fill="#000000" font-family="sans-serif" font-size="11" lengthAdjust="spacingAndGlyphs" textLength="83" x="26" y="311.062">Update() : void</text><ellipse cx="17" cy="320.6563" fill="#84BE84" rx="3" ry="3" style="stroke: #038048; stroke-width: 1.0;"/><text fill="#000000" font-family="sans-serif" font-size="11" lengthAdjust="spacingAndGlyphs" textLength="249" x="26" y="323.8667">SetTransform(transform:Transform?) : void</text><ellipse cx="17" cy="333.4609" fill="#84BE84" rx="3" ry="3" style="stroke: #038048; stroke-width: 1.0;"/><text fill="#000000" font-family="sans-serif" font-size="11" lengthAdjust="spacingAndGlyphs" textLength="166" x="26" y="336.6714">«override» Serialize() : string</text><ellipse cx="17" cy="346.2656" fill="#84BE84" rx="3" ry="3" style="stroke: #038048; stroke-width: 1.0;"/><text fill="#000000" font-family="sans-serif" font-size="11" lengthAdjust="spacingAndGlyphs" textLength="232" x="26" y="349.4761">«override» Deserialize(data:string) : void</text><!--MD5=[2e1ff885372daab8d802f213ced6c836]
class Dictionary`2--><rect fill="#FEFECE" filter="url(#f158azcipvhepy)" height="48" id="Dictionary`2" style="stroke: #A80036; stroke-width: 1.5;" width="146" x="347" y="212"/><ellipse cx="362" cy="228" fill="#ADD1B2" rx="11" ry="11" style="stroke: #A80036; stroke-width: 1.0;"/><path d="M364.9688,233.6406 Q364.3906,233.9375 363.75,234.0781 Q363.1094,234.2344 362.4063,234.2344 Q359.9063,234.2344 358.5781,232.5938 Q357.2656,230.9375 357.2656,227.8125 Q357.2656,224.6875 358.5781,223.0313 Q359.9063,221.375 362.4063,221.375 Q363.1094,221.375 363.75,221.5313 Q364.4063,221.6875 364.9688,221.9844 L364.9688,224.7031 Q364.3438,224.125 363.75,223.8594 Q363.1563,223.5781 362.5313,223.5781 Q361.1875,223.5781 360.5,224.6563 Q359.8125,225.7188 359.8125,227.8125 Q359.8125,229.9063 360.5,230.9844 Q361.1875,232.0469 362.5313,232.0469 Q363.1563,232.0469 363.75,231.7813 Q364.3438,231.5 364.9688,230.9219 L364.9688,233.6406 Z "/><text fill="#000000" font-family="sans-serif" font-size="12" lengthAdjust="spacingAndGlyphs" textLength="76" x="376" y="232.1543">Dictionary`2</text><rect fill="#FFFFFF" height="15.9688" style="stroke: #000000; stroke-width: 1.0; stroke-dasharray: 2.0,2.0;" width="36" x="460" y="209"/><text fill="#000000" font-family="sans-serif" font-size="12" font-style="italic" lengthAdjust="spacingAndGlyphs" textLength="34" x="461" y="221.1387">T1,T2</text><line style="stroke: #A80036; stroke-width: 1.5;" x1="348" x2="492" y1="244" y2="244"/><line style="stroke: #A80036; stroke-width: 1.5;" x1="348" x2="492" y1="252" y2="252"/><!--MD5=[f7f94c92e70e25d9d68ff925551aa01c]
class RuntimeObject--><rect fill="#FEFECE" filter="url(#f158azcipvhepy)" height="48" id="RuntimeObject" style="stroke: #A80036; stroke-width: 1.5;" width="123" x="97.5" y="8"/><ellipse cx="112.5" cy="24" fill="#ADD1B2" rx="11" ry="11" style="stroke: #A80036; stroke-width: 1.0;"/><path d="M115.4688,29.6406 Q114.8906,29.9375 114.25,30.0781 Q113.6094,30.2344 112.9063,30.2344 Q110.4063,30.2344 109.0781,28.5938 Q107.7656,26.9375 107.7656,23.8125 Q107.7656,20.6875 109.0781,19.0313 Q110.4063,17.375 112.9063,17.375 Q113.6094,17.375 114.25,17.5313 Q114.9063,17.6875 115.4688,17.9844 L115.4688,20.7031 Q114.8438,20.125 114.25,19.8594 Q113.6563,19.5781 113.0313,19.5781 Q111.6875,19.5781 111,20.6563 Q110.3125,21.7188 110.3125,23.8125 Q110.3125,25.9063 111,26.9844 Q111.6875,28.0469 113.0313,28.0469 Q113.6563,28.0469 114.25,27.7813 Q114.8438,27.5 115.4688,26.9219 L115.4688,29.6406 Z "/><text fill="#000000" font-family="sans-serif" font-size="12" lengthAdjust="spacingAndGlyphs" textLength="91" x="126.5" y="28.1543">RuntimeObject</text><line style="stroke: #A80036; stroke-width: 1.5;" x1="98.5" x2="219.5" y1="40" y2="40"/><line style="stroke: #A80036; stroke-width: 1.5;" x1="98.5" x2="219.5" y1="48" y2="48"/><!--MD5=[7963137db162b4bd529a87306f97c087]
reverse link RuntimeObject to Entity--><path d="M159,76.19 C159,88.09 159,101.61 159,115.62 " fill="none" id="RuntimeObject&lt;-Entity" style="stroke: #A80036; stroke-width: 1.0;"/><polygon fill="none" points="152,76.17,159,56.17,166,76.17,152,76.17" style="stroke: #A80036; stroke-width: 1.0;"/><!--MD5=[24a1cb5ff3d2b630e7dc3950ceebcc4c]
link Entity to Dictionary`2--><path d="M324.18,236 C324.18,236 330.73,236 333.4,236 " fill="none" id="Entity-Dictionary`2" style="stroke: #A80036; stroke-width: 1.0;"/><polygon fill="#A80036" points="346.72,236,337.72,232,341.72,236,337.72,240,346.72,236" style="stroke: #A80036; stroke-width: 1.0;"/><line style="stroke: #A80036; stroke-width: 1.0;" x1="341.72" x2="333.72" y1="236" y2="236"/><polygon fill="#FFFFFF" points="312.18,236,318.18,240,324.18,236,318.18,232,312.18,236" style="stroke: #A80036; stroke-width: 1.0;"/><text fill="#000000" font-family="sans-serif" font-size="13" lengthAdjust="spacingAndGlyphs" textLength="162" x="276.2292" y="279.4584">components&lt;Type,int[]&gt;</text><!--MD5=[8261f8d3c95c72b907767f042b9c300d]
@startuml
class Entity {
    + ID : int <<get>>
    + nextEntityID : int
    + previousEntityID : int
    + transform : Transform?
    + Entity(id:int, environment:InteractiveEnvironment)
    + GetEnvironment() : InteractiveEnvironment
    + Destroy() : void
    + AddComponent() : T?
    + GetComponent() : T
    + GetComponents() : Span<T>
    + RemoveComponent(component:T) : void
    + Update() : void
    + SetTransform(transform:Transform?) : void
    + <<override>> Serialize() : string
    + <<override>> Deserialize(data:string) : void
}
class "Dictionary`2"<T1,T2> {
}
RuntimeObject <|- - Entity
Entity o-> "components<Type,int[]>" "Dictionary`2"
@enduml

PlantUML version 1.2020.02(Sun Mar 01 10:22:07 GMT 2020)
(GPL source distribution)
Java Runtime: OpenJDK Runtime Environment
JVM: OpenJDK 64-Bit Server VM
Java Version: 11.0.9+11-Ubuntu-0ubuntu1
Operating System: Linux
Default Encoding: ANSI_X3.4-1968
Language: en
Country: US
--></g></svg>