<?xml version="1.0" encoding="UTF-8" standalone="no"?><svg xmlns="http://www.w3.org/2000/svg" xmlns:xlink="http://www.w3.org/1999/xlink" contentScriptType="application/ecmascript" contentStyleType="text/css" height="143px" preserveAspectRatio="none" style="width:410px;height:143px;" version="1.1" viewBox="0 0 410 143" width="410px" zoomAndPan="magnify"><defs><filter height="300%" id="f13z68pgzqiyvq" width="300%" x="-1" y="-1"><feGaussianBlur result="blurOut" stdDeviation="2.0"/><feColorMatrix in="blurOut" result="blurOut2" type="matrix" values="0 0 0 0 0 0 0 0 0 0 0 0 0 0 0 0 0 0 .4 0"/><feOffset dx="4.0" dy="4.0" in="blurOut2" result="blurOut3"/><feBlend in="SourceGraphic" in2="blurOut3" mode="normal"/></filter></defs><g><!--MD5=[b6dcce5e5ef3c84b0b048d11301373dd]
class Game--><rect fill="#FEFECE" filter="url(#f13z68pgzqiyvq)" height="124.8281" id="Game" style="stroke: #A80036; stroke-width: 1.5;" width="298" x="6" y="8"/><ellipse cx="132.75" cy="24" fill="#ADD1B2" rx="11" ry="11" style="stroke: #A80036; stroke-width: 1.0;"/><path d="M135.7188,29.6406 Q135.1406,29.9375 134.5,30.0781 Q133.8594,30.2344 133.1563,30.2344 Q130.6563,30.2344 129.3281,28.5938 Q128.0156,26.9375 128.0156,23.8125 Q128.0156,20.6875 129.3281,19.0313 Q130.6563,17.375 133.1563,17.375 Q133.8594,17.375 134.5,17.5313 Q135.1563,17.6875 135.7188,17.9844 L135.7188,20.7031 Q135.0938,20.125 134.5,19.8594 Q133.9063,19.5781 133.2813,19.5781 Q131.9375,19.5781 131.25,20.6563 Q130.5625,21.7188 130.5625,23.8125 Q130.5625,25.9063 131.25,26.9844 Q131.9375,28.0469 133.2813,28.0469 Q133.9063,28.0469 134.5,27.7813 Q135.0938,27.5 135.7188,26.9219 L135.7188,29.6406 Z "/><text fill="#000000" font-family="sans-serif" font-size="12" lengthAdjust="spacingAndGlyphs" textLength="36" x="153.25" y="28.1543">Game</text><line style="stroke: #A80036; stroke-width: 1.5;" x1="7" x2="303" y1="40" y2="40"/><ellipse cx="17" cy="51" fill="none" rx="3" ry="3" style="stroke: #038048; stroke-width: 1.0;"/><text fill="#000000" font-family="sans-serif" font-size="11" lengthAdjust="spacingAndGlyphs" textLength="272" x="26" y="54.2104">«virtual» Title : string «get» = "Striped Window"</text><ellipse cx="17" cy="63.8047" fill="none" rx="3" ry="3" style="stroke: #038048; stroke-width: 1.0;"/><text fill="#000000" font-family="sans-serif" font-size="11" lengthAdjust="spacingAndGlyphs" textLength="183" x="26" y="67.0151">«virtual» Width : int «get» = 800</text><ellipse cx="17" cy="76.6094" fill="none" rx="3" ry="3" style="stroke: #038048; stroke-width: 1.0;"/><text fill="#000000" font-family="sans-serif" font-size="11" lengthAdjust="spacingAndGlyphs" textLength="189" x="26" y="79.8198">«virtual» Height : int «get» = 400</text><line style="stroke: #A80036; stroke-width: 1.5;" x1="7" x2="303" y1="86.4141" y2="86.4141"/><ellipse cx="17" cy="97.4141" fill="#84BE84" rx="3" ry="3" style="stroke: #038048; stroke-width: 1.0;"/><text fill="#000000" font-family="sans-serif" font-size="11" lengthAdjust="spacingAndGlyphs" textLength="113" x="26" y="100.6245">«virtual» Init() : void</text><ellipse cx="17" cy="110.2188" fill="#84BE84" rx="3" ry="3" style="stroke: #038048; stroke-width: 1.0;"/><text fill="#000000" font-family="sans-serif" font-size="11" lengthAdjust="spacingAndGlyphs" textLength="136" x="26" y="113.4292">«virtual» Update() : void</text><ellipse cx="17" cy="123.0234" fill="#84BE84" rx="3" ry="3" style="stroke: #038048; stroke-width: 1.0;"/><text fill="#000000" font-family="sans-serif" font-size="11" lengthAdjust="spacingAndGlyphs" textLength="196" x="26" y="126.2339">«virtual» OnApplicationQuit() : void</text><!--MD5=[4296a1ab0576a383a1a509d52c22ebf0]
class Type--><rect fill="#FEFECE" filter="url(#f13z68pgzqiyvq)" height="48" id="Type" style="stroke: #A80036; stroke-width: 1.5;" width="61" x="338.5" y="46.5"/><ellipse cx="353.5" cy="62.5" fill="#ADD1B2" rx="11" ry="11" style="stroke: #A80036; stroke-width: 1.0;"/><path d="M356.4688,68.1406 Q355.8906,68.4375 355.25,68.5781 Q354.6094,68.7344 353.9063,68.7344 Q351.4063,68.7344 350.0781,67.0938 Q348.7656,65.4375 348.7656,62.3125 Q348.7656,59.1875 350.0781,57.5313 Q351.4063,55.875 353.9063,55.875 Q354.6094,55.875 355.25,56.0313 Q355.9063,56.1875 356.4688,56.4844 L356.4688,59.2031 Q355.8438,58.625 355.25,58.3594 Q354.6563,58.0781 354.0313,58.0781 Q352.6875,58.0781 352,59.1563 Q351.3125,60.2188 351.3125,62.3125 Q351.3125,64.4063 352,65.4844 Q352.6875,66.5469 354.0313,66.5469 Q354.6563,66.5469 355.25,66.2813 Q355.8438,66 356.4688,65.4219 L356.4688,68.1406 Z "/><text fill="#000000" font-family="sans-serif" font-size="12" lengthAdjust="spacingAndGlyphs" textLength="29" x="367.5" y="66.6543">Type</text><line style="stroke: #A80036; stroke-width: 1.5;" x1="339.5" x2="398.5" y1="78.5" y2="78.5"/><line style="stroke: #A80036; stroke-width: 1.5;" x1="339.5" x2="398.5" y1="86.5" y2="86.5"/><!--MD5=[6e1fc7edec4224ea3f3cf073641abeb0]
link Game to Type--><path d="M316.21,70.5 C316.21,70.5 322.56,70.5 325.2,70.5 " fill="none" id="Game-Type" style="stroke: #A80036; stroke-width: 1.0;"/><polygon fill="#A80036" points="338.38,70.5,329.38,66.5,333.38,70.5,329.38,74.5,338.38,70.5" style="stroke: #A80036; stroke-width: 1.0;"/><line style="stroke: #A80036; stroke-width: 1.0;" x1="333.38" x2="325.38" y1="70.5" y2="70.5"/><polygon fill="#FFFFFF" points="304.21,70.5,310.21,74.5,316.21,70.5,310.21,66.5,304.21,70.5" style="stroke: #A80036; stroke-width: 1.0;"/><text fill="#000000" font-family="sans-serif" font-size="13" lengthAdjust="spacingAndGlyphs" textLength="58" x="272.6356" y="53.299">Renderer</text><!--MD5=[032317cc3f5fd76ead7d3db7de60c4bc]
@startuml
class Game {
    + <<virtual>> Title : string <<get>> = "Striped Window"
    + <<virtual>> Width : int <<get>> = 800
    + <<virtual>> Height : int <<get>> = 400
    + <<virtual>> Init() : void
    + <<virtual>> Update() : void
    + <<virtual>> OnApplicationQuit() : void
}
Game o-> "Renderer" Type
@enduml

PlantUML version 1.2020.02(Sun Mar 01 10:22:07 GMT 2020)
(GPL source distribution)
Java Runtime: OpenJDK Runtime Environment
JVM: OpenJDK 64-Bit Server VM
Java Version: 11.0.9+11-Ubuntu-0ubuntu1
Operating System: Linux
Default Encoding: ANSI_X3.4-1968
Language: en
Country: US
--></g></svg>