<?xml version="1.0" encoding="UTF-8" standalone="no"?><svg xmlns="http://www.w3.org/2000/svg" xmlns:xlink="http://www.w3.org/1999/xlink" contentScriptType="application/ecmascript" contentStyleType="text/css" height="265px" preserveAspectRatio="none" style="width:840px;height:265px;" version="1.1" viewBox="0 0 840 265" width="840px" zoomAndPan="magnify"><defs><filter height="300%" id="fib47tocx31hs" width="300%" x="-1" y="-1"><feGaussianBlur result="blurOut" stdDeviation="2.0"/><feColorMatrix in="blurOut" result="blurOut2" type="matrix" values="0 0 0 0 0 0 0 0 0 0 0 0 0 0 0 0 0 0 .4 0"/><feOffset dx="4.0" dy="4.0" in="blurOut2" result="blurOut3"/><feBlend in="SourceGraphic" in2="blurOut3" mode="normal"/></filter></defs><g><!--MD5=[ee2881c033a007ed7897a49b07c40cd1]
class GameSession--><rect fill="#FEFECE" filter="url(#fib47tocx31hs)" height="137.6328" id="GameSession" style="stroke: #A80036; stroke-width: 1.5;" width="390" x="6" y="8"/><ellipse cx="154.25" cy="24" fill="#ADD1B2" rx="11" ry="11" style="stroke: #A80036; stroke-width: 1.0;"/><path d="M157.2188,29.6406 Q156.6406,29.9375 156,30.0781 Q155.3594,30.2344 154.6563,30.2344 Q152.1563,30.2344 150.8281,28.5938 Q149.5156,26.9375 149.5156,23.8125 Q149.5156,20.6875 150.8281,19.0313 Q152.1563,17.375 154.6563,17.375 Q155.3594,17.375 156,17.5313 Q156.6563,17.6875 157.2188,17.9844 L157.2188,20.7031 Q156.5938,20.125 156,19.8594 Q155.4063,19.5781 154.7813,19.5781 Q153.4375,19.5781 152.75,20.6563 Q152.0625,21.7188 152.0625,23.8125 Q152.0625,25.9063 152.75,26.9844 Q153.4375,28.0469 154.7813,28.0469 Q155.4063,28.0469 156,27.7813 Q156.5938,27.5 157.2188,26.9219 L157.2188,29.6406 Z "/><text fill="#000000" font-family="sans-serif" font-size="12" lengthAdjust="spacingAndGlyphs" textLength="85" x="174.75" y="28.1543">GameSession</text><line style="stroke: #A80036; stroke-width: 1.5;" x1="7" x2="395" y1="40" y2="40"/><ellipse cx="17" cy="51" fill="none" rx="3" ry="3" style="stroke: #038048; stroke-width: 1.0;"/><text fill="#000000" font-family="sans-serif" font-size="11" lengthAdjust="spacingAndGlyphs" text-decoration="underline" textLength="249" x="26" y="54.2104">ActiveSession : GameSession? «get» «set»</text><line style="stroke: #A80036; stroke-width: 1.5;" x1="7" x2="395" y1="60.8047" y2="60.8047"/><ellipse cx="17" cy="71.8047" fill="#84BE84" rx="3" ry="3" style="stroke: #038048; stroke-width: 1.0;"/><text fill="#000000" font-family="sans-serif" font-size="11" lengthAdjust="spacingAndGlyphs" textLength="265" x="26" y="75.0151">CreateEnvironment() : InteractiveEnvironment?</text><ellipse cx="17" cy="84.6094" fill="#84BE84" rx="3" ry="3" style="stroke: #038048; stroke-width: 1.0;"/><text fill="#000000" font-family="sans-serif" font-size="11" lengthAdjust="spacingAndGlyphs" textLength="364" x="26" y="87.8198">UnloadEnvironment(environment:InteractiveEnvironment?) : void</text><ellipse cx="17" cy="97.4141" fill="#84BE84" rx="3" ry="3" style="stroke: #038048; stroke-width: 1.0;"/><text fill="#000000" font-family="sans-serif" font-size="11" lengthAdjust="spacingAndGlyphs" textLength="158" x="26" y="100.6245">GameSession(game:Game)</text><ellipse cx="17" cy="110.2188" fill="#84BE84" rx="3" ry="3" style="stroke: #038048; stroke-width: 1.0;"/><text fill="#000000" font-family="sans-serif" font-size="11" lengthAdjust="spacingAndGlyphs" textLength="121" x="26" y="113.4292">CloseSession() : void</text><ellipse cx="17" cy="123.0234" fill="#84BE84" rx="3" ry="3" style="stroke: #038048; stroke-width: 1.0;"/><text fill="#000000" font-family="sans-serif" font-size="11" lengthAdjust="spacingAndGlyphs" textLength="236" x="26" y="126.2339">BindWindow(window:EngineWindow) : void</text><ellipse cx="17" cy="135.8281" fill="#84BE84" rx="3" ry="3" style="stroke: #038048; stroke-width: 1.0;"/><text fill="#000000" font-family="sans-serif" font-size="11" lengthAdjust="spacingAndGlyphs" textLength="173" x="26" y="139.0386">UnloadAllEnvironments() : void</text><!--MD5=[e644022de7dea015dd09463c37421447]
class List`1--><rect fill="#FEFECE" filter="url(#fib47tocx31hs)" height="48" id="List`1" style="stroke: #A80036; stroke-width: 1.5;" width="78" x="431" y="53"/><ellipse cx="446" cy="69" fill="#ADD1B2" rx="11" ry="11" style="stroke: #A80036; stroke-width: 1.0;"/><path d="M448.9688,74.6406 Q448.3906,74.9375 447.75,75.0781 Q447.1094,75.2344 446.4063,75.2344 Q443.9063,75.2344 442.5781,73.5938 Q441.2656,71.9375 441.2656,68.8125 Q441.2656,65.6875 442.5781,64.0313 Q443.9063,62.375 446.4063,62.375 Q447.1094,62.375 447.75,62.5313 Q448.4063,62.6875 448.9688,62.9844 L448.9688,65.7031 Q448.3438,65.125 447.75,64.8594 Q447.1563,64.5781 446.5313,64.5781 Q445.1875,64.5781 444.5,65.6563 Q443.8125,66.7188 443.8125,68.8125 Q443.8125,70.9063 444.5,71.9844 Q445.1875,73.0469 446.5313,73.0469 Q447.1563,73.0469 447.75,72.7813 Q448.3438,72.5 448.9688,71.9219 L448.9688,74.6406 Z "/><text fill="#000000" font-family="sans-serif" font-size="12" lengthAdjust="spacingAndGlyphs" textLength="35" x="460" y="73.1543">List`1</text><rect fill="#FFFFFF" height="15.9688" style="stroke: #000000; stroke-width: 1.0; stroke-dasharray: 2.0,2.0;" width="9" x="503" y="50"/><text fill="#000000" font-family="sans-serif" font-size="12" font-style="italic" lengthAdjust="spacingAndGlyphs" textLength="7" x="504" y="62.1387">T</text><line style="stroke: #A80036; stroke-width: 1.5;" x1="432" x2="508" y1="85" y2="85"/><line style="stroke: #A80036; stroke-width: 1.5;" x1="432" x2="508" y1="93" y2="93"/><!--MD5=[b6dcce5e5ef3c84b0b048d11301373dd]
class Game--><rect fill="#FEFECE" filter="url(#fib47tocx31hs)" height="48" id="Game" style="stroke: #A80036; stroke-width: 1.5;" width="68" x="102" y="206"/><ellipse cx="117" cy="222" fill="#ADD1B2" rx="11" ry="11" style="stroke: #A80036; stroke-width: 1.0;"/><path d="M119.9688,227.6406 Q119.3906,227.9375 118.75,228.0781 Q118.1094,228.2344 117.4063,228.2344 Q114.9063,228.2344 113.5781,226.5938 Q112.2656,224.9375 112.2656,221.8125 Q112.2656,218.6875 113.5781,217.0313 Q114.9063,215.375 117.4063,215.375 Q118.1094,215.375 118.75,215.5313 Q119.4063,215.6875 119.9688,215.9844 L119.9688,218.7031 Q119.3438,218.125 118.75,217.8594 Q118.1563,217.5781 117.5313,217.5781 Q116.1875,217.5781 115.5,218.6563 Q114.8125,219.7188 114.8125,221.8125 Q114.8125,223.9063 115.5,224.9844 Q116.1875,226.0469 117.5313,226.0469 Q118.1563,226.0469 118.75,225.7813 Q119.3438,225.5 119.9688,224.9219 L119.9688,227.6406 Z "/><text fill="#000000" font-family="sans-serif" font-size="12" lengthAdjust="spacingAndGlyphs" textLength="36" x="131" y="226.1543">Game</text><line style="stroke: #A80036; stroke-width: 1.5;" x1="103" x2="169" y1="238" y2="238"/><line style="stroke: #A80036; stroke-width: 1.5;" x1="103" x2="169" y1="246" y2="246"/><!--MD5=[4f181b0692782e9ffc6aeb8c03dc8e8d]
class EngineWindow--><rect fill="#FEFECE" filter="url(#fib47tocx31hs)" height="48" id="EngineWindow" style="stroke: #A80036; stroke-width: 1.5;" width="122" x="205" y="206"/><ellipse cx="220" cy="222" fill="#ADD1B2" rx="11" ry="11" style="stroke: #A80036; stroke-width: 1.0;"/><path d="M222.9688,227.6406 Q222.3906,227.9375 221.75,228.0781 Q221.1094,228.2344 220.4063,228.2344 Q217.9063,228.2344 216.5781,226.5938 Q215.2656,224.9375 215.2656,221.8125 Q215.2656,218.6875 216.5781,217.0313 Q217.9063,215.375 220.4063,215.375 Q221.1094,215.375 221.75,215.5313 Q222.4063,215.6875 222.9688,215.9844 L222.9688,218.7031 Q222.3438,218.125 221.75,217.8594 Q221.1563,217.5781 220.5313,217.5781 Q219.1875,217.5781 218.5,218.6563 Q217.8125,219.7188 217.8125,221.8125 Q217.8125,223.9063 218.5,224.9844 Q219.1875,226.0469 220.5313,226.0469 Q221.1563,226.0469 221.75,225.7813 Q222.3438,225.5 222.9688,224.9219 L222.9688,227.6406 Z "/><text fill="#000000" font-family="sans-serif" font-size="12" lengthAdjust="spacingAndGlyphs" textLength="90" x="234" y="226.1543">EngineWindow</text><line style="stroke: #A80036; stroke-width: 1.5;" x1="206" x2="326" y1="238" y2="238"/><line style="stroke: #A80036; stroke-width: 1.5;" x1="206" x2="326" y1="246" y2="246"/><!--MD5=[ba43998cb50901f5d35a27c88c159ceb]
link GameSession to Game--><path d="M171.54,146.43 C163.2,165.81 154.59,185.81 147.93,201.27 " fill="none" id="GameSession-&gt;Game" style="stroke: #A80036; stroke-width: 1.0;"/><polygon fill="#A80036" points="145.93,205.92,153.1519,199.2234,147.8996,201.3243,145.7987,196.072,145.93,205.92" style="stroke: #A80036; stroke-width: 1.0;"/><text fill="#000000" font-family="sans-serif" font-size="13" lengthAdjust="spacingAndGlyphs" textLength="39" x="104.4777" y="194.9115">Game</text><!--MD5=[a3956bc21ca8fcfcb5340b4ef657378d]
link GameSession to EngineWindow--><path d="M230.46,146.43 C238.8,165.81 247.41,185.81 254.07,201.27 " fill="none" id="GameSession-&gt;EngineWindow" style="stroke: #A80036; stroke-width: 1.0;"/><polygon fill="#A80036" points="256.07,205.92,256.2013,196.072,254.1004,201.3243,248.8481,199.2234,256.07,205.92" style="stroke: #A80036; stroke-width: 1.0;"/><text fill="#000000" font-family="sans-serif" font-size="13" lengthAdjust="spacingAndGlyphs" textLength="47" x="200.5036" y="194.9115">Window</text><!--MD5=[ffea499ebd471b7c88e1e105805d0e55]
link GameSession to List`1--><path d="M408.18,77 C408.18,77 414.99,77 417.77,77 " fill="none" id="GameSession-List`1" style="stroke: #A80036; stroke-width: 1.0;"/><polygon fill="#A80036" points="430.78,77,421.78,73,425.78,77,421.78,81,430.78,77" style="stroke: #A80036; stroke-width: 1.0;"/><line style="stroke: #A80036; stroke-width: 1.0;" x1="425.78" x2="417.78" y1="77" y2="77"/><polygon fill="#FFFFFF" points="396.18,77,402.18,81,408.18,77,402.18,73,396.18,77" style="stroke: #A80036; stroke-width: 1.0;"/><text fill="#000000" font-family="sans-serif" font-size="13" lengthAdjust="spacingAndGlyphs" textLength="312" x="516.9053" y="68.5846">LoadedEnvironments&lt;InteractiveEnvironment?&gt;</text><!--MD5=[02950e0dafe12e74c251f66c02d3d029]
@startuml
class GameSession {
    + {static} ActiveSession : GameSession? <<get>> <<set>>
    + CreateEnvironment() : InteractiveEnvironment?
    + UnloadEnvironment(environment:InteractiveEnvironment?) : void
    + GameSession(game:Game)
    + CloseSession() : void
    + BindWindow(window:EngineWindow) : void
    + UnloadAllEnvironments() : void
}
class "List`1"<T> {
}
GameSession - -> "Game" Game
GameSession - -> "Window" EngineWindow
GameSession o-> "LoadedEnvironments<InteractiveEnvironment?>" "List`1"
@enduml

PlantUML version 1.2020.02(Sun Mar 01 10:22:07 GMT 2020)
(GPL source distribution)
Java Runtime: OpenJDK Runtime Environment
JVM: OpenJDK 64-Bit Server VM
Java Version: 11.0.9+11-Ubuntu-0ubuntu1
Operating System: Linux
Default Encoding: ANSI_X3.4-1968
Language: en
Country: US
--></g></svg>