<?xml version="1.0" encoding="UTF-8" standalone="no"?><svg xmlns="http://www.w3.org/2000/svg" xmlns:xlink="http://www.w3.org/1999/xlink" contentScriptType="application/ecmascript" contentStyleType="text/css" height="354px" preserveAspectRatio="none" style="width:904px;height:354px;" version="1.1" viewBox="0 0 904 354" width="904px" zoomAndPan="magnify"><defs><filter height="300%" id="fh9w2651qxgjg" width="300%" x="-1" y="-1"><feGaussianBlur result="blurOut" stdDeviation="2.0"/><feColorMatrix in="blurOut" result="blurOut2" type="matrix" values="0 0 0 0 0 0 0 0 0 0 0 0 0 0 0 0 0 0 .4 0"/><feOffset dx="4.0" dy="4.0" in="blurOut2" result="blurOut3"/><feBlend in="SourceGraphic" in2="blurOut3" mode="normal"/></filter></defs><g><!--MD5=[aa6379ce3c7c88083fbf9b1e1bc1272b]
class InteractiveEnvironment--><rect fill="#FEFECE" filter="url(#fh9w2651qxgjg)" height="227.2656" id="InteractiveEnvironment" style="stroke: #A80036; stroke-width: 1.5;" width="363" x="6" y="8"/><ellipse cx="111.25" cy="24" fill="#ADD1B2" rx="11" ry="11" style="stroke: #A80036; stroke-width: 1.0;"/><path d="M114.2188,29.6406 Q113.6406,29.9375 113,30.0781 Q112.3594,30.2344 111.6563,30.2344 Q109.1563,30.2344 107.8281,28.5938 Q106.5156,26.9375 106.5156,23.8125 Q106.5156,20.6875 107.8281,19.0313 Q109.1563,17.375 111.6563,17.375 Q112.3594,17.375 113,17.5313 Q113.6563,17.6875 114.2188,17.9844 L114.2188,20.7031 Q113.5938,20.125 113,19.8594 Q112.4063,19.5781 111.7813,19.5781 Q110.4375,19.5781 109.75,20.6563 Q109.0625,21.7188 109.0625,23.8125 Q109.0625,25.9063 109.75,26.9844 Q110.4375,28.0469 111.7813,28.0469 Q112.4063,28.0469 113,27.7813 Q113.5938,27.5 114.2188,26.9219 L114.2188,29.6406 Z "/><text fill="#000000" font-family="sans-serif" font-size="12" lengthAdjust="spacingAndGlyphs" textLength="144" x="131.75" y="28.1543">InteractiveEnvironment</text><line style="stroke: #A80036; stroke-width: 1.5;" x1="7" x2="368" y1="40" y2="40"/><line style="stroke: #A80036; stroke-width: 1.5;" x1="7" x2="368" y1="48" y2="48"/><ellipse cx="17" cy="59" fill="#84BE84" rx="3" ry="3" style="stroke: #038048; stroke-width: 1.0;"/><text fill="#000000" font-family="sans-serif" font-size="11" lengthAdjust="spacingAndGlyphs" textLength="138" x="26" y="62.2104">InteractiveEnvironment()</text><ellipse cx="17" cy="71.8047" fill="#84BE84" rx="3" ry="3" style="stroke: #038048; stroke-width: 1.0;"/><text fill="#000000" font-family="sans-serif" font-size="11" lengthAdjust="spacingAndGlyphs" textLength="229" x="26" y="75.0151">CreateEntity(addTransform:bool) : Entity</text><ellipse cx="17" cy="84.6094" fill="#84BE84" rx="3" ry="3" style="stroke: #038048; stroke-width: 1.0;"/><text fill="#000000" font-family="sans-serif" font-size="11" lengthAdjust="spacingAndGlyphs" textLength="130" x="26" y="87.8198">GetEntity(id:int) : Entity</text><ellipse cx="17" cy="97.4141" fill="#84BE84" rx="3" ry="3" style="stroke: #038048; stroke-width: 1.0;"/><text fill="#000000" font-family="sans-serif" font-size="11" lengthAdjust="spacingAndGlyphs" textLength="178" x="26" y="100.6245">GetEntitySpan() : Span&lt;Entity&gt;</text><ellipse cx="17" cy="110.2188" fill="#84BE84" rx="3" ry="3" style="stroke: #038048; stroke-width: 1.0;"/><text fill="#000000" font-family="sans-serif" font-size="11" lengthAdjust="spacingAndGlyphs" textLength="270" x="26" y="113.4292">GetEntitySpan(start:int, end:int) : Span&lt;Entity&gt;</text><ellipse cx="17" cy="123.0234" fill="#84BE84" rx="3" ry="3" style="stroke: #038048; stroke-width: 1.0;"/><text fill="#000000" font-family="sans-serif" font-size="11" lengthAdjust="spacingAndGlyphs" textLength="228" x="26" y="126.2339">GetEntitySpanNoEmpty() : Span&lt;Entity&gt;</text><ellipse cx="17" cy="135.8281" fill="#84BE84" rx="3" ry="3" style="stroke: #038048; stroke-width: 1.0;"/><text fill="#000000" font-family="sans-serif" font-size="11" lengthAdjust="spacingAndGlyphs" textLength="160" x="26" y="139.0386">DestroyEntity(e:Entity) : void</text><ellipse cx="17" cy="148.6328" fill="#84BE84" rx="3" ry="3" style="stroke: #038048; stroke-width: 1.0;"/><text fill="#000000" font-family="sans-serif" font-size="11" lengthAdjust="spacingAndGlyphs" textLength="161" x="26" y="151.8433">AddComponent(e:Entity?) : T</text><ellipse cx="17" cy="161.4375" fill="#84BE84" rx="3" ry="3" style="stroke: #038048; stroke-width: 1.0;"/><text fill="#000000" font-family="sans-serif" font-size="11" lengthAdjust="spacingAndGlyphs" textLength="337" x="26" y="164.6479">DestroyComponent(componentID:int, alertEntity:bool) : void</text><ellipse cx="17" cy="174.2422" fill="#84BE84" rx="3" ry="3" style="stroke: #038048; stroke-width: 1.0;"/><text fill="#000000" font-family="sans-serif" font-size="11" lengthAdjust="spacingAndGlyphs" textLength="87" x="26" y="177.4526">Destroy() : void</text><ellipse cx="17" cy="187.0469" fill="#84BE84" rx="3" ry="3" style="stroke: #038048; stroke-width: 1.0;"/><text fill="#000000" font-family="sans-serif" font-size="11" lengthAdjust="spacingAndGlyphs" textLength="178" x="26" y="190.2573">GetComponent(entity:Entity) : T</text><ellipse cx="17" cy="199.8516" fill="#84BE84" rx="3" ry="3" style="stroke: #038048; stroke-width: 1.0;"/><text fill="#000000" font-family="sans-serif" font-size="11" lengthAdjust="spacingAndGlyphs" textLength="223" x="26" y="203.062">GetComponents(entity:Entity) : List&lt;T&gt;</text><ellipse cx="17" cy="212.6563" fill="#84BE84" rx="3" ry="3" style="stroke: #038048; stroke-width: 1.0;"/><text fill="#000000" font-family="sans-serif" font-size="11" lengthAdjust="spacingAndGlyphs" textLength="224" x="26" y="215.8667">GetAllComponentsInScene() : Span&lt;T&gt;</text><ellipse cx="17" cy="225.4609" fill="#84BE84" rx="3" ry="3" style="stroke: #038048; stroke-width: 1.0;"/><text fill="#000000" font-family="sans-serif" font-size="11" lengthAdjust="spacingAndGlyphs" text-decoration="underline" textLength="179" x="26" y="228.6714">GetAllComponents() : Span&lt;T&gt;</text><!--MD5=[04a861af89d36f1bd540d7ef67dbf565]
class Memory`1--><rect fill="#FEFECE" filter="url(#fh9w2651qxgjg)" height="48" id="Memory`1" style="stroke: #A80036; stroke-width: 1.5;" width="105" x="135" y="295"/><ellipse cx="150" cy="311" fill="#ADD1B2" rx="11" ry="11" style="stroke: #A80036; stroke-width: 1.0;"/><path d="M152.9688,316.6406 Q152.3906,316.9375 151.75,317.0781 Q151.1094,317.2344 150.4063,317.2344 Q147.9063,317.2344 146.5781,315.5938 Q145.2656,313.9375 145.2656,310.8125 Q145.2656,307.6875 146.5781,306.0313 Q147.9063,304.375 150.4063,304.375 Q151.1094,304.375 151.75,304.5313 Q152.4063,304.6875 152.9688,304.9844 L152.9688,307.7031 Q152.3438,307.125 151.75,306.8594 Q151.1563,306.5781 150.5313,306.5781 Q149.1875,306.5781 148.5,307.6563 Q147.8125,308.7188 147.8125,310.8125 Q147.8125,312.9063 148.5,313.9844 Q149.1875,315.0469 150.5313,315.0469 Q151.1563,315.0469 151.75,314.7813 Q152.3438,314.5 152.9688,313.9219 L152.9688,316.6406 Z "/><text fill="#000000" font-family="sans-serif" font-size="12" lengthAdjust="spacingAndGlyphs" textLength="62" x="164" y="315.1543">Memory`1</text><rect fill="#FFFFFF" height="15.9688" style="stroke: #000000; stroke-width: 1.0; stroke-dasharray: 2.0,2.0;" width="9" x="234" y="292"/><text fill="#000000" font-family="sans-serif" font-size="12" font-style="italic" lengthAdjust="spacingAndGlyphs" textLength="7" x="235" y="304.1387">T</text><line style="stroke: #A80036; stroke-width: 1.5;" x1="136" x2="239" y1="327" y2="327"/><line style="stroke: #A80036; stroke-width: 1.5;" x1="136" x2="239" y1="335" y2="335"/><!--MD5=[2e1ff885372daab8d802f213ced6c836]
class Dictionary`2--><rect fill="#FEFECE" filter="url(#fh9w2651qxgjg)" height="48" id="Dictionary`2" style="stroke: #A80036; stroke-width: 1.5;" width="146" x="405.5" y="97.5"/><ellipse cx="420.5" cy="113.5" fill="#ADD1B2" rx="11" ry="11" style="stroke: #A80036; stroke-width: 1.0;"/><path d="M423.4688,119.1406 Q422.8906,119.4375 422.25,119.5781 Q421.6094,119.7344 420.9063,119.7344 Q418.4063,119.7344 417.0781,118.0938 Q415.7656,116.4375 415.7656,113.3125 Q415.7656,110.1875 417.0781,108.5313 Q418.4063,106.875 420.9063,106.875 Q421.6094,106.875 422.25,107.0313 Q422.9063,107.1875 423.4688,107.4844 L423.4688,110.2031 Q422.8438,109.625 422.25,109.3594 Q421.6563,109.0781 421.0313,109.0781 Q419.6875,109.0781 419,110.1563 Q418.3125,111.2188 418.3125,113.3125 Q418.3125,115.4063 419,116.4844 Q419.6875,117.5469 421.0313,117.5469 Q421.6563,117.5469 422.25,117.2813 Q422.8438,117 423.4688,116.4219 L423.4688,119.1406 Z "/><text fill="#000000" font-family="sans-serif" font-size="12" lengthAdjust="spacingAndGlyphs" textLength="76" x="434.5" y="117.6543">Dictionary`2</text><rect fill="#FFFFFF" height="15.9688" style="stroke: #000000; stroke-width: 1.0; stroke-dasharray: 2.0,2.0;" width="36" x="518.5" y="94.5"/><text fill="#000000" font-family="sans-serif" font-size="12" font-style="italic" lengthAdjust="spacingAndGlyphs" textLength="34" x="519.5" y="106.6387">T1,T2</text><line style="stroke: #A80036; stroke-width: 1.5;" x1="406.5" x2="550.5" y1="129.5" y2="129.5"/><line style="stroke: #A80036; stroke-width: 1.5;" x1="406.5" x2="550.5" y1="137.5" y2="137.5"/><!--MD5=[94639466ef6efaa815b3f2c9e6f733bb]
link InteractiveEnvironment to Memory`1--><path d="M187.5,235.09 C187.5,255.35 187.5,274.74 187.5,289.67 " fill="none" id="InteractiveEnvironment-&gt;Memory`1" style="stroke: #A80036; stroke-width: 1.0;"/><polygon fill="#A80036" points="187.5,294.96,191.5,285.96,187.5,289.96,183.5,285.96,187.5,294.96" style="stroke: #A80036; stroke-width: 1.0;"/><text fill="#000000" font-family="sans-serif" font-size="13" lengthAdjust="spacingAndGlyphs" textLength="105" x="69.0469" y="283.9618">entities&lt;Entity&gt;</text><!--MD5=[9b69f64fdf828eff8043362254b983f3]
link InteractiveEnvironment to Dictionary`2--><path d="M381.09,121.5 C381.09,121.5 388.93,121.5 392.33,121.5 " fill="none" id="InteractiveEnvironment-Dictionary`2" style="stroke: #A80036; stroke-width: 1.0;"/><polygon fill="#A80036" points="405.42,121.5,396.42,117.5,400.42,121.5,396.42,125.5,405.42,121.5" style="stroke: #A80036; stroke-width: 1.0;"/><line style="stroke: #A80036; stroke-width: 1.0;" x1="400.42" x2="392.42" y1="121.5" y2="121.5"/><polygon fill="#FFFFFF" points="369.09,121.5,375.09,125.5,381.09,121.5,375.09,117.5,369.09,121.5" style="stroke: #A80036; stroke-width: 1.0;"/><text fill="#000000" font-family="sans-serif" font-size="13" lengthAdjust="spacingAndGlyphs" textLength="333" x="559.563" y="106.3015">allComponents&lt;Type,Memory&lt;ComponentBase&gt;&gt;</text><!--MD5=[e37d88fd4f202633fac19dd4b6903d5b]
@startuml
class InteractiveEnvironment {
    + InteractiveEnvironment()
    + CreateEntity(addTransform:bool) : Entity
    + GetEntity(id:int) : Entity
    + GetEntitySpan() : Span<Entity>
    + GetEntitySpan(start:int, end:int) : Span<Entity>
    + GetEntitySpanNoEmpty() : Span<Entity>
    + DestroyEntity(e:Entity) : void
    + AddComponent(e:Entity?) : T
    + DestroyComponent(componentID:int, alertEntity:bool) : void
    + Destroy() : void
    + GetComponent(entity:Entity) : T
    + GetComponents(entity:Entity) : List<T>
    + GetAllComponentsInScene() : Span<T>
    + {static} GetAllComponents() : Span<T>
}
class "Memory`1"<T> {
}
class "Dictionary`2"<T1,T2> {
}
InteractiveEnvironment - -> "entities<Entity>" "Memory`1"
InteractiveEnvironment o-> "allComponents<Type,Memory<ComponentBase>>" "Dictionary`2"
@enduml

PlantUML version 1.2020.02(Sun Mar 01 10:22:07 GMT 2020)
(GPL source distribution)
Java Runtime: OpenJDK Runtime Environment
JVM: OpenJDK 64-Bit Server VM
Java Version: 11.0.9+11-Ubuntu-0ubuntu1
Operating System: Linux
Default Encoding: ANSI_X3.4-1968
Language: en
Country: US
--></g></svg>