<?xml version="1.0" encoding="UTF-8" standalone="no"?><svg xmlns="http://www.w3.org/2000/svg" xmlns:xlink="http://www.w3.org/1999/xlink" contentScriptType="application/ecmascript" contentStyleType="text/css" height="78px" preserveAspectRatio="none" style="width:184px;height:78px;" version="1.1" viewBox="0 0 184 78" width="184px" zoomAndPan="magnify"><defs><filter height="300%" id="f17a212mcacebs" width="300%" x="-1" y="-1"><feGaussianBlur result="blurOut" stdDeviation="2.0"/><feColorMatrix in="blurOut" result="blurOut2" type="matrix" values="0 0 0 0 0 0 0 0 0 0 0 0 0 0 0 0 0 0 .4 0"/><feOffset dx="4.0" dy="4.0" in="blurOut2" result="blurOut3"/><feBlend in="SourceGraphic" in2="blurOut3" mode="normal"/></filter></defs><g><!--MD5=[175f95e045c1a44aed0b30df3abe0e5c]
class Program--><rect fill="#FEFECE" filter="url(#f17a212mcacebs)" height="60.8047" id="Program" style="stroke: #A80036; stroke-width: 1.5;" width="166" x="7" y="7"/><ellipse cx="59.25" cy="23" fill="#ADD1B2" rx="11" ry="11" style="stroke: #A80036; stroke-width: 1.0;"/><path d="M62.2188,28.6406 Q61.6406,28.9375 61,29.0781 Q60.3594,29.2344 59.6563,29.2344 Q57.1563,29.2344 55.8281,27.5938 Q54.5156,25.9375 54.5156,22.8125 Q54.5156,19.6875 55.8281,18.0313 Q57.1563,16.375 59.6563,16.375 Q60.3594,16.375 61,16.5313 Q61.6563,16.6875 62.2188,16.9844 L62.2188,19.7031 Q61.5938,19.125 61,18.8594 Q60.4063,18.5781 59.7813,18.5781 Q58.4375,18.5781 57.75,19.6563 Q57.0625,20.7188 57.0625,22.8125 Q57.0625,24.9063 57.75,25.9844 Q58.4375,27.0469 59.7813,27.0469 Q60.4063,27.0469 61,26.7813 Q61.5938,26.5 62.2188,25.9219 L62.2188,28.6406 Z "/><text fill="#000000" font-family="sans-serif" font-size="12" lengthAdjust="spacingAndGlyphs" textLength="53" x="79.75" y="27.1543">Program</text><line style="stroke: #A80036; stroke-width: 1.5;" x1="8" x2="172" y1="39" y2="39"/><line style="stroke: #A80036; stroke-width: 1.5;" x1="8" x2="172" y1="47" y2="47"/><ellipse cx="18" cy="58" fill="#84BE84" rx="3" ry="3" style="stroke: #038048; stroke-width: 1.0;"/><text fill="#000000" font-family="sans-serif" font-size="11" lengthAdjust="spacingAndGlyphs" text-decoration="underline" textLength="140" x="27" y="61.2104">Main(args:string[]) : void</text><!--MD5=[1899b1707dd353568a08ab5422c863d7]
@startuml
class Program {
    + {static} Main(args:string[]) : void
}
@enduml

PlantUML version 1.2020.02(Sun Mar 01 10:22:07 GMT 2020)
(GPL source distribution)
Java Runtime: OpenJDK Runtime Environment
JVM: OpenJDK 64-Bit Server VM
Java Version: 11.0.9+11-Ubuntu-0ubuntu1
Operating System: Linux
Default Encoding: ANSI_X3.4-1968
Language: en
Country: US
--></g></svg>