<?xml version="1.0" encoding="UTF-8" standalone="no"?><svg xmlns="http://www.w3.org/2000/svg" xmlns:xlink="http://www.w3.org/1999/xlink" contentScriptType="application/ecmascript" contentStyleType="text/css" height="187px" preserveAspectRatio="none" style="width:167px;height:187px;" version="1.1" viewBox="0 0 167 187" width="167px" zoomAndPan="magnify"><defs><filter height="300%" id="f1az6afy22js5f" width="300%" x="-1" y="-1"><feGaussianBlur result="blurOut" stdDeviation="2.0"/><feColorMatrix in="blurOut" result="blurOut2" type="matrix" values="0 0 0 0 0 0 0 0 0 0 0 0 0 0 0 0 0 0 .4 0"/><feOffset dx="4.0" dy="4.0" in="blurOut2" result="blurOut3"/><feBlend in="SourceGraphic" in2="blurOut3" mode="normal"/></filter></defs><g><!--MD5=[f7f94c92e70e25d9d68ff925551aa01c]
class RuntimeObject--><rect fill="#FEFECE" filter="url(#f1az6afy22js5f)" height="60.8047" id="RuntimeObject" style="stroke: #A80036; stroke-width: 1.5;" width="150" x="6" y="116"/><ellipse cx="33.15" cy="132" fill="#ADD1B2" rx="11" ry="11" style="stroke: #A80036; stroke-width: 1.0;"/><path d="M36.1188,137.6406 Q35.5406,137.9375 34.9,138.0781 Q34.2594,138.2344 33.5563,138.2344 Q31.0563,138.2344 29.7281,136.5938 Q28.4156,134.9375 28.4156,131.8125 Q28.4156,128.6875 29.7281,127.0313 Q31.0563,125.375 33.5563,125.375 Q34.2594,125.375 34.9,125.5313 Q35.5563,125.6875 36.1188,125.9844 L36.1188,128.7031 Q35.4938,128.125 34.9,127.8594 Q34.3063,127.5781 33.6813,127.5781 Q32.3375,127.5781 31.65,128.6563 Q30.9625,129.7188 30.9625,131.8125 Q30.9625,133.9063 31.65,134.9844 Q32.3375,136.0469 33.6813,136.0469 Q34.3063,136.0469 34.9,135.7813 Q35.4938,135.5 36.1188,134.9219 L36.1188,137.6406 Z "/><text fill="#000000" font-family="sans-serif" font-size="12" lengthAdjust="spacingAndGlyphs" textLength="91" x="49.85" y="136.1543">RuntimeObject</text><line style="stroke: #A80036; stroke-width: 1.5;" x1="7" x2="155" y1="148" y2="148"/><ellipse cx="17" cy="159" fill="none" rx="3" ry="3" style="stroke: #038048; stroke-width: 1.0;"/><text fill="#000000" font-family="sans-serif" font-size="11" lengthAdjust="spacingAndGlyphs" textLength="124" x="26" y="162.2104">name : string = "BOI"</text><line style="stroke: #A80036; stroke-width: 1.5;" x1="7" x2="155" y1="168.8047" y2="168.8047"/><!--MD5=[327a4fcb77f7980e305b37dbaa2664ff]
class SerializeableObject--><rect fill="#FEFECE" filter="url(#f1az6afy22js5f)" height="48" id="SerializeableObject" style="stroke: #A80036; stroke-width: 1.5;" width="150" x="6" y="8"/><ellipse cx="21" cy="24" fill="#ADD1B2" rx="11" ry="11" style="stroke: #A80036; stroke-width: 1.0;"/><path d="M23.9688,29.6406 Q23.3906,29.9375 22.75,30.0781 Q22.1094,30.2344 21.4063,30.2344 Q18.9063,30.2344 17.5781,28.5938 Q16.2656,26.9375 16.2656,23.8125 Q16.2656,20.6875 17.5781,19.0313 Q18.9063,17.375 21.4063,17.375 Q22.1094,17.375 22.75,17.5313 Q23.4063,17.6875 23.9688,17.9844 L23.9688,20.7031 Q23.3438,20.125 22.75,19.8594 Q22.1563,19.5781 21.5313,19.5781 Q20.1875,19.5781 19.5,20.6563 Q18.8125,21.7188 18.8125,23.8125 Q18.8125,25.9063 19.5,26.9844 Q20.1875,28.0469 21.5313,28.0469 Q22.1563,28.0469 22.75,27.7813 Q23.3438,27.5 23.9688,26.9219 L23.9688,29.6406 Z "/><text fill="#000000" font-family="sans-serif" font-size="12" lengthAdjust="spacingAndGlyphs" textLength="118" x="35" y="28.1543">SerializeableObject</text><line style="stroke: #A80036; stroke-width: 1.5;" x1="7" x2="155" y1="40" y2="40"/><line style="stroke: #A80036; stroke-width: 1.5;" x1="7" x2="155" y1="48" y2="48"/><!--MD5=[f533dfd0304f1a013dfd283637e2e761]
reverse link SerializeableObject to RuntimeObject--><path d="M81,76.11 C81,89.31 81,103.54 81,115.65 " fill="none" id="SerializeableObject&lt;-RuntimeObject" style="stroke: #A80036; stroke-width: 1.0;"/><polygon fill="none" points="74,76.04,81,56.04,88,76.04,74,76.04" style="stroke: #A80036; stroke-width: 1.0;"/><!--MD5=[cc491d05cfc86c196f0494fdf9166749]
@startuml
class RuntimeObject {
    + name : string = "BOI"
}
SerializeableObject <|- - RuntimeObject
@enduml

PlantUML version 1.2020.02(Sun Mar 01 10:22:07 GMT 2020)
(GPL source distribution)
Java Runtime: OpenJDK Runtime Environment
JVM: OpenJDK 64-Bit Server VM
Java Version: 11.0.9+11-Ubuntu-0ubuntu1
Operating System: Linux
Default Encoding: ANSI_X3.4-1968
Language: en
Country: US
--></g></svg>