<?xml version="1.0" encoding="UTF-8" standalone="no"?><svg xmlns="http://www.w3.org/2000/svg" xmlns:xlink="http://www.w3.org/1999/xlink" contentScriptType="application/ecmascript" contentStyleType="text/css" height="347px" preserveAspectRatio="none" style="width:412px;height:347px;" version="1.1" viewBox="0 0 412 347" width="412px" zoomAndPan="magnify"><defs><filter height="300%" id="fc5gm746k0jzm" width="300%" x="-1" y="-1"><feGaussianBlur result="blurOut" stdDeviation="2.0"/><feColorMatrix in="blurOut" result="blurOut2" type="matrix" values="0 0 0 0 0 0 0 0 0 0 0 0 0 0 0 0 0 0 .4 0"/><feOffset dx="4.0" dy="4.0" in="blurOut2" result="blurOut3"/><feBlend in="SourceGraphic" in2="blurOut3" mode="normal"/></filter></defs><g><!--MD5=[32b4852210ef71696237a01730df41f1]
class GLQuadRenderer--><rect fill="#FEFECE" filter="url(#fc5gm746k0jzm)" height="112.0234" id="GLQuadRenderer" style="stroke: #A80036; stroke-width: 1.5;" width="263" x="6" y="116"/><ellipse cx="80.25" cy="132" fill="#ADD1B2" rx="11" ry="11" style="stroke: #A80036; stroke-width: 1.0;"/><path d="M83.2188,137.6406 Q82.6406,137.9375 82,138.0781 Q81.3594,138.2344 80.6563,138.2344 Q78.1563,138.2344 76.8281,136.5938 Q75.5156,134.9375 75.5156,131.8125 Q75.5156,128.6875 76.8281,127.0313 Q78.1563,125.375 80.6563,125.375 Q81.3594,125.375 82,125.5313 Q82.6563,125.6875 83.2188,125.9844 L83.2188,128.7031 Q82.5938,128.125 82,127.8594 Q81.4063,127.5781 80.7813,127.5781 Q79.4375,127.5781 78.75,128.6563 Q78.0625,129.7188 78.0625,131.8125 Q78.0625,133.9063 78.75,134.9844 Q79.4375,136.0469 80.7813,136.0469 Q81.4063,136.0469 82,135.7813 Q82.5938,135.5 83.2188,134.9219 L83.2188,137.6406 Z "/><text fill="#000000" font-family="sans-serif" font-size="12" lengthAdjust="spacingAndGlyphs" textLength="106" x="100.75" y="136.1543">GLQuadRenderer</text><line style="stroke: #A80036; stroke-width: 1.5;" x1="7" x2="268" y1="148" y2="148"/><line style="stroke: #A80036; stroke-width: 1.5;" x1="7" x2="268" y1="156" y2="156"/><ellipse cx="17" cy="167" fill="#84BE84" rx="3" ry="3" style="stroke: #038048; stroke-width: 1.0;"/><text fill="#000000" font-family="sans-serif" font-size="11" lengthAdjust="spacingAndGlyphs" textLength="162" x="26" y="170.2104">«override» OnCreate() : void</text><ellipse cx="17" cy="179.8047" fill="#84BE84" rx="3" ry="3" style="stroke: #038048; stroke-width: 1.0;"/><text fill="#000000" font-family="sans-serif" font-size="11" lengthAdjust="spacingAndGlyphs" textLength="111" x="26" y="183.0151">ReloadMesh() : void</text><ellipse cx="17" cy="192.6094" fill="#84BE84" rx="3" ry="3" style="stroke: #038048; stroke-width: 1.0;"/><text fill="#000000" font-family="sans-serif" font-size="11" lengthAdjust="spacingAndGlyphs" textLength="193" x="26" y="195.8198">SetMaterial(mat:GLMaterial) : void</text><ellipse cx="17" cy="205.4141" fill="#84BE84" rx="3" ry="3" style="stroke: #038048; stroke-width: 1.0;"/><text fill="#000000" font-family="sans-serif" font-size="11" lengthAdjust="spacingAndGlyphs" textLength="237" x="26" y="208.6245">«override» OnRender(cam:Camera) : void</text><ellipse cx="17" cy="218.2188" fill="#84BE84" rx="3" ry="3" style="stroke: #038048; stroke-width: 1.0;"/><text fill="#000000" font-family="sans-serif" font-size="11" lengthAdjust="spacingAndGlyphs" textLength="168" x="26" y="221.4292">«override» OnDestroy() : void</text><!--MD5=[7dd719c5f2fd4931b5d49d187114aa01]
class RenderComponent--><rect fill="#FEFECE" filter="url(#fc5gm746k0jzm)" height="48" id="RenderComponent" style="stroke: #A80036; stroke-width: 1.5;" width="149" x="63" y="8"/><ellipse cx="78" cy="24" fill="#ADD1B2" rx="11" ry="11" style="stroke: #A80036; stroke-width: 1.0;"/><path d="M80.9688,29.6406 Q80.3906,29.9375 79.75,30.0781 Q79.1094,30.2344 78.4063,30.2344 Q75.9063,30.2344 74.5781,28.5938 Q73.2656,26.9375 73.2656,23.8125 Q73.2656,20.6875 74.5781,19.0313 Q75.9063,17.375 78.4063,17.375 Q79.1094,17.375 79.75,17.5313 Q80.4063,17.6875 80.9688,17.9844 L80.9688,20.7031 Q80.3438,20.125 79.75,19.8594 Q79.1563,19.5781 78.5313,19.5781 Q77.1875,19.5781 76.5,20.6563 Q75.8125,21.7188 75.8125,23.8125 Q75.8125,25.9063 76.5,26.9844 Q77.1875,28.0469 78.5313,28.0469 Q79.1563,28.0469 79.75,27.7813 Q80.3438,27.5 80.9688,26.9219 L80.9688,29.6406 Z "/><text fill="#000000" font-family="sans-serif" font-size="12" lengthAdjust="spacingAndGlyphs" textLength="117" x="92" y="28.1543">RenderComponent</text><line style="stroke: #A80036; stroke-width: 1.5;" x1="64" x2="211" y1="40" y2="40"/><line style="stroke: #A80036; stroke-width: 1.5;" x1="64" x2="211" y1="48" y2="48"/><!--MD5=[784050c8d51d584d6be7815bc65af218]
class GLMaterial--><rect fill="#FEFECE" filter="url(#fc5gm746k0jzm)" height="48" id="GLMaterial" style="stroke: #A80036; stroke-width: 1.5;" width="97" x="304" y="148"/><ellipse cx="319" cy="164" fill="#ADD1B2" rx="11" ry="11" style="stroke: #A80036; stroke-width: 1.0;"/><path d="M321.9688,169.6406 Q321.3906,169.9375 320.75,170.0781 Q320.1094,170.2344 319.4063,170.2344 Q316.9063,170.2344 315.5781,168.5938 Q314.2656,166.9375 314.2656,163.8125 Q314.2656,160.6875 315.5781,159.0313 Q316.9063,157.375 319.4063,157.375 Q320.1094,157.375 320.75,157.5313 Q321.4063,157.6875 321.9688,157.9844 L321.9688,160.7031 Q321.3438,160.125 320.75,159.8594 Q320.1563,159.5781 319.5313,159.5781 Q318.1875,159.5781 317.5,160.6563 Q316.8125,161.7188 316.8125,163.8125 Q316.8125,165.9063 317.5,166.9844 Q318.1875,168.0469 319.5313,168.0469 Q320.1563,168.0469 320.75,167.7813 Q321.3438,167.5 321.9688,166.9219 L321.9688,169.6406 Z "/><text fill="#000000" font-family="sans-serif" font-size="12" lengthAdjust="spacingAndGlyphs" textLength="65" x="333" y="168.1543">GLMaterial</text><line style="stroke: #A80036; stroke-width: 1.5;" x1="305" x2="400" y1="180" y2="180"/><line style="stroke: #A80036; stroke-width: 1.5;" x1="305" x2="400" y1="188" y2="188"/><!--MD5=[7ca1d4abe2da3e9abb04c549a75fe4b0]
class GLMeshData--><rect fill="#FEFECE" filter="url(#fc5gm746k0jzm)" height="48" id="GLMeshData" style="stroke: #A80036; stroke-width: 1.5;" width="110" x="82.5" y="288"/><ellipse cx="97.5" cy="304" fill="#ADD1B2" rx="11" ry="11" style="stroke: #A80036; stroke-width: 1.0;"/><path d="M100.4688,309.6406 Q99.8906,309.9375 99.25,310.0781 Q98.6094,310.2344 97.9063,310.2344 Q95.4063,310.2344 94.0781,308.5938 Q92.7656,306.9375 92.7656,303.8125 Q92.7656,300.6875 94.0781,299.0313 Q95.4063,297.375 97.9063,297.375 Q98.6094,297.375 99.25,297.5313 Q99.9063,297.6875 100.4688,297.9844 L100.4688,300.7031 Q99.8438,300.125 99.25,299.8594 Q98.6563,299.5781 98.0313,299.5781 Q96.6875,299.5781 96,300.6563 Q95.3125,301.7188 95.3125,303.8125 Q95.3125,305.9063 96,306.9844 Q96.6875,308.0469 98.0313,308.0469 Q98.6563,308.0469 99.25,307.7813 Q99.8438,307.5 100.4688,306.9219 L100.4688,309.6406 Z "/><text fill="#000000" font-family="sans-serif" font-size="12" lengthAdjust="spacingAndGlyphs" textLength="78" x="111.5" y="308.1543">GLMeshData</text><line style="stroke: #A80036; stroke-width: 1.5;" x1="83.5" x2="191.5" y1="320" y2="320"/><line style="stroke: #A80036; stroke-width: 1.5;" x1="83.5" x2="191.5" y1="328" y2="328"/><!--MD5=[6414e1d960f207a6e52c0bfbcb42b943]
reverse link RenderComponent to GLQuadRenderer--><path d="M137.5,76.25 C137.5,88.82 137.5,102.73 137.5,115.93 " fill="none" id="RenderComponent&lt;-GLQuadRenderer" style="stroke: #A80036; stroke-width: 1.0;"/><polygon fill="none" points="130.5,76.1,137.5,56.1,144.5,76.1,130.5,76.1" style="stroke: #A80036; stroke-width: 1.0;"/><!--MD5=[15204d20e7458a565750b366c20a7e48]
link GLQuadRenderer to GLMaterial--><path d="M281.36,172 C281.36,172 287.85,172 290.5,172 " fill="none" id="GLQuadRenderer-GLMaterial" style="stroke: #A80036; stroke-width: 1.0;"/><polygon fill="#A80036" points="303.78,172,294.78,168,298.78,172,294.78,176,303.78,172" style="stroke: #A80036; stroke-width: 1.0;"/><line style="stroke: #A80036; stroke-width: 1.0;" x1="298.78" x2="290.78" y1="172" y2="172"/><polygon fill="#FFFFFF" points="269.36,172,275.36,176,281.36,172,275.36,168,269.36,172" style="stroke: #A80036; stroke-width: 1.0;"/><text fill="#000000" font-family="sans-serif" font-size="13" lengthAdjust="spacingAndGlyphs" textLength="50" x="246.3582" y="162.5254">materal</text><!--MD5=[08ce73649cc1a18556928924695e9210]
link GLQuadRenderer to GLMeshData--><path d="M137.5,228.33 C137.5,246.93 137.5,266.9 137.5,282.56 " fill="none" id="GLQuadRenderer-&gt;GLMeshData" style="stroke: #A80036; stroke-width: 1.0;"/><polygon fill="#A80036" points="137.5,287.69,141.5,278.69,137.5,282.69,133.5,278.69,137.5,287.69" style="stroke: #A80036; stroke-width: 1.0;"/><text fill="#000000" font-family="sans-serif" font-size="13" lengthAdjust="spacingAndGlyphs" textLength="32" x="101.6" y="277.0194">quad</text><!--MD5=[79aaeb4f29b7049ce3494d41e284bf70]
@startuml
class GLQuadRenderer {
    + <<override>> OnCreate() : void
    + ReloadMesh() : void
    + SetMaterial(mat:GLMaterial) : void
    + <<override>> OnRender(cam:Camera) : void
    + <<override>> OnDestroy() : void
}
RenderComponent <|- - GLQuadRenderer
GLQuadRenderer o-> "materal" GLMaterial
GLQuadRenderer - -> "quad" GLMeshData
@enduml

PlantUML version 1.2020.02(Sun Mar 01 10:22:07 GMT 2020)
(GPL source distribution)
Java Runtime: OpenJDK Runtime Environment
JVM: OpenJDK 64-Bit Server VM
Java Version: 11.0.9+11-Ubuntu-0ubuntu1
Operating System: Linux
Default Encoding: ANSI_X3.4-1968
Language: en
Country: US
--></g></svg>