<?xml version="1.0" encoding="UTF-8" standalone="no"?><svg xmlns="http://www.w3.org/2000/svg" xmlns:xlink="http://www.w3.org/1999/xlink" contentScriptType="application/ecmascript" contentStyleType="text/css" height="411px" preserveAspectRatio="none" style="width:432px;height:411px;" version="1.1" viewBox="0 0 432 411" width="432px" zoomAndPan="magnify"><defs><filter height="300%" id="f1f3tvp3ewd47w" width="300%" x="-1" y="-1"><feGaussianBlur result="blurOut" stdDeviation="2.0"/><feColorMatrix in="blurOut" result="blurOut2" type="matrix" values="0 0 0 0 0 0 0 0 0 0 0 0 0 0 0 0 0 0 .4 0"/><feOffset dx="4.0" dy="4.0" in="blurOut2" result="blurOut3"/><feBlend in="SourceGraphic" in2="blurOut3" mode="normal"/></filter></defs><g><!--MD5=[51d25e88d43743a35e1d6864a6f3d59a]
class RaytracingDemo--><rect fill="#FEFECE" filter="url(#f1f3tvp3ewd47w)" height="176.0469" id="RaytracingDemo" style="stroke: #A80036; stroke-width: 1.5;" width="319" x="6" y="116"/><ellipse cx="110.25" cy="132" fill="#ADD1B2" rx="11" ry="11" style="stroke: #A80036; stroke-width: 1.0;"/><path d="M113.2188,137.6406 Q112.6406,137.9375 112,138.0781 Q111.3594,138.2344 110.6563,138.2344 Q108.1563,138.2344 106.8281,136.5938 Q105.5156,134.9375 105.5156,131.8125 Q105.5156,128.6875 106.8281,127.0313 Q108.1563,125.375 110.6563,125.375 Q111.3594,125.375 112,125.5313 Q112.6563,125.6875 113.2188,125.9844 L113.2188,128.7031 Q112.5938,128.125 112,127.8594 Q111.4063,127.5781 110.7813,127.5781 Q109.4375,127.5781 108.75,128.6563 Q108.0625,129.7188 108.0625,131.8125 Q108.0625,133.9063 108.75,134.9844 Q109.4375,136.0469 110.7813,136.0469 Q111.4063,136.0469 112,135.7813 Q112.5938,135.5 113.2188,134.9219 L113.2188,137.6406 Z "/><text fill="#000000" font-family="sans-serif" font-size="12" lengthAdjust="spacingAndGlyphs" textLength="102" x="130.75" y="136.1543">RaytracingDemo</text><line style="stroke: #A80036; stroke-width: 1.5;" x1="7" x2="324" y1="148" y2="148"/><ellipse cx="17" cy="159" fill="none" rx="3" ry="3" style="stroke: #038048; stroke-width: 1.0;"/><text fill="#000000" font-family="sans-serif" font-size="11" lengthAdjust="spacingAndGlyphs" textLength="293" x="26" y="162.2104">«override» Title : string «get» = "Raytracing Demo"</text><ellipse cx="17" cy="171.8047" fill="none" rx="3" ry="3" style="stroke: #038048; stroke-width: 1.0;"/><text fill="#000000" font-family="sans-serif" font-size="11" lengthAdjust="spacingAndGlyphs" textLength="195" x="26" y="175.0151">«override» Width : int «get» = 800</text><ellipse cx="17" cy="184.6094" fill="none" rx="3" ry="3" style="stroke: #038048; stroke-width: 1.0;"/><text fill="#000000" font-family="sans-serif" font-size="11" lengthAdjust="spacingAndGlyphs" textLength="201" x="26" y="187.8198">«override» Height : int «get» = 800</text><ellipse cx="17" cy="197.4141" fill="none" rx="3" ry="3" style="stroke: #038048; stroke-width: 1.0;"/><text fill="#000000" font-family="sans-serif" font-size="11" lengthAdjust="spacingAndGlyphs" textLength="144" x="26" y="200.6245">cameraSpeed : float = 5f</text><ellipse cx="17" cy="210.2188" fill="none" rx="3" ry="3" style="stroke: #038048; stroke-width: 1.0;"/><text fill="#000000" font-family="sans-serif" font-size="11" lengthAdjust="spacingAndGlyphs" textLength="190" x="26" y="213.4292">cameraRotationSpeed : float = 2f</text><ellipse cx="17" cy="223.0234" fill="none" rx="3" ry="3" style="stroke: #038048; stroke-width: 1.0;"/><text fill="#000000" font-family="sans-serif" font-size="11" lengthAdjust="spacingAndGlyphs" textLength="110" x="26" y="226.2339">camRotX : float = 0</text><ellipse cx="17" cy="235.8281" fill="none" rx="3" ry="3" style="stroke: #038048; stroke-width: 1.0;"/><text fill="#000000" font-family="sans-serif" font-size="11" lengthAdjust="spacingAndGlyphs" textLength="110" x="26" y="239.0386">camRotY : float = 0</text><line style="stroke: #A80036; stroke-width: 1.5;" x1="7" x2="324" y1="245.6328" y2="245.6328"/><ellipse cx="17" cy="256.6328" fill="#84BE84" rx="3" ry="3" style="stroke: #038048; stroke-width: 1.0;"/><text fill="#000000" font-family="sans-serif" font-size="11" lengthAdjust="spacingAndGlyphs" textLength="125" x="26" y="259.8433">«override» Init() : void</text><ellipse cx="17" cy="269.4375" fill="#84BE84" rx="3" ry="3" style="stroke: #038048; stroke-width: 1.0;"/><text fill="#000000" font-family="sans-serif" font-size="11" lengthAdjust="spacingAndGlyphs" textLength="148" x="26" y="272.6479">«override» Update() : void</text><ellipse cx="17" cy="282.2422" fill="#84BE84" rx="3" ry="3" style="stroke: #038048; stroke-width: 1.0;"/><text fill="#000000" font-family="sans-serif" font-size="11" lengthAdjust="spacingAndGlyphs" textLength="208" x="26" y="285.4526">«override» OnApplicationQuit() : void</text><!--MD5=[b6dcce5e5ef3c84b0b048d11301373dd]
class Game--><rect fill="#FEFECE" filter="url(#f1f3tvp3ewd47w)" height="48" id="Game" style="stroke: #A80036; stroke-width: 1.5;" width="68" x="131.5" y="8"/><ellipse cx="146.5" cy="24" fill="#ADD1B2" rx="11" ry="11" style="stroke: #A80036; stroke-width: 1.0;"/><path d="M149.4688,29.6406 Q148.8906,29.9375 148.25,30.0781 Q147.6094,30.2344 146.9063,30.2344 Q144.4063,30.2344 143.0781,28.5938 Q141.7656,26.9375 141.7656,23.8125 Q141.7656,20.6875 143.0781,19.0313 Q144.4063,17.375 146.9063,17.375 Q147.6094,17.375 148.25,17.5313 Q148.9063,17.6875 149.4688,17.9844 L149.4688,20.7031 Q148.8438,20.125 148.25,19.8594 Q147.6563,19.5781 147.0313,19.5781 Q145.6875,19.5781 145,20.6563 Q144.3125,21.7188 144.3125,23.8125 Q144.3125,25.9063 145,26.9844 Q145.6875,28.0469 147.0313,28.0469 Q147.6563,28.0469 148.25,27.7813 Q148.8438,27.5 149.4688,26.9219 L149.4688,29.6406 Z "/><text fill="#000000" font-family="sans-serif" font-size="12" lengthAdjust="spacingAndGlyphs" textLength="36" x="160.5" y="28.1543">Game</text><line style="stroke: #A80036; stroke-width: 1.5;" x1="132.5" x2="198.5" y1="40" y2="40"/><line style="stroke: #A80036; stroke-width: 1.5;" x1="132.5" x2="198.5" y1="48" y2="48"/><!--MD5=[4296a1ab0576a383a1a509d52c22ebf0]
class Type--><rect fill="#FEFECE" filter="url(#f1f3tvp3ewd47w)" height="48" id="Type" style="stroke: #A80036; stroke-width: 1.5;" width="61" x="360" y="180"/><ellipse cx="375" cy="196" fill="#ADD1B2" rx="11" ry="11" style="stroke: #A80036; stroke-width: 1.0;"/><path d="M377.9688,201.6406 Q377.3906,201.9375 376.75,202.0781 Q376.1094,202.2344 375.4063,202.2344 Q372.9063,202.2344 371.5781,200.5938 Q370.2656,198.9375 370.2656,195.8125 Q370.2656,192.6875 371.5781,191.0313 Q372.9063,189.375 375.4063,189.375 Q376.1094,189.375 376.75,189.5313 Q377.4063,189.6875 377.9688,189.9844 L377.9688,192.7031 Q377.3438,192.125 376.75,191.8594 Q376.1563,191.5781 375.5313,191.5781 Q374.1875,191.5781 373.5,192.6563 Q372.8125,193.7188 372.8125,195.8125 Q372.8125,197.9063 373.5,198.9844 Q374.1875,200.0469 375.5313,200.0469 Q376.1563,200.0469 376.75,199.7813 Q377.3438,199.5 377.9688,198.9219 L377.9688,201.6406 Z "/><text fill="#000000" font-family="sans-serif" font-size="12" lengthAdjust="spacingAndGlyphs" textLength="29" x="389" y="200.1543">Type</text><line style="stroke: #A80036; stroke-width: 1.5;" x1="361" x2="420" y1="212" y2="212"/><line style="stroke: #A80036; stroke-width: 1.5;" x1="361" x2="420" y1="220" y2="220"/><!--MD5=[be996cdb8e6bf2fc7cb89c555f2cd144]
class Entity--><rect fill="#FEFECE" filter="url(#f1f3tvp3ewd47w)" height="48" id="Entity" style="stroke: #A80036; stroke-width: 1.5;" width="67" x="132" y="352"/><ellipse cx="147" cy="368" fill="#ADD1B2" rx="11" ry="11" style="stroke: #A80036; stroke-width: 1.0;"/><path d="M149.9688,373.6406 Q149.3906,373.9375 148.75,374.0781 Q148.1094,374.2344 147.4063,374.2344 Q144.9063,374.2344 143.5781,372.5938 Q142.2656,370.9375 142.2656,367.8125 Q142.2656,364.6875 143.5781,363.0313 Q144.9063,361.375 147.4063,361.375 Q148.1094,361.375 148.75,361.5313 Q149.4063,361.6875 149.9688,361.9844 L149.9688,364.7031 Q149.3438,364.125 148.75,363.8594 Q148.1563,363.5781 147.5313,363.5781 Q146.1875,363.5781 145.5,364.6563 Q144.8125,365.7188 144.8125,367.8125 Q144.8125,369.9063 145.5,370.9844 Q146.1875,372.0469 147.5313,372.0469 Q148.1563,372.0469 148.75,371.7813 Q149.3438,371.5 149.9688,370.9219 L149.9688,373.6406 Z "/><text fill="#000000" font-family="sans-serif" font-size="12" lengthAdjust="spacingAndGlyphs" textLength="35" x="161" y="372.1543">Entity</text><line style="stroke: #A80036; stroke-width: 1.5;" x1="133" x2="198" y1="384" y2="384"/><line style="stroke: #A80036; stroke-width: 1.5;" x1="133" x2="198" y1="392" y2="392"/><!--MD5=[7210a875f9f2176d2e678d4e3c7e5399]
reverse link Game to RaytracingDemo--><path d="M165.5,76.71 C165.5,88.77 165.5,102.3 165.5,115.9 " fill="none" id="Game&lt;-RaytracingDemo" style="stroke: #A80036; stroke-width: 1.0;"/><polygon fill="none" points="158.5,76.28,165.5,56.28,172.5,76.28,158.5,76.28" style="stroke: #A80036; stroke-width: 1.0;"/><!--MD5=[bad8169fa88544582b10adc4f6320ffe]
link RaytracingDemo to Type--><path d="M337.02,204 C337.02,204 343.73,204 346.56,204 " fill="none" id="RaytracingDemo-Type" style="stroke: #A80036; stroke-width: 1.0;"/><polygon fill="#A80036" points="359.81,204,350.81,200,354.81,204,350.81,208,359.81,204" style="stroke: #A80036; stroke-width: 1.0;"/><line style="stroke: #A80036; stroke-width: 1.0;" x1="354.81" x2="346.81" y1="204" y2="204"/><polygon fill="#FFFFFF" points="325.02,204,331.02,208,337.02,204,331.02,200,325.02,204" style="stroke: #A80036; stroke-width: 1.0;"/><text fill="#000000" font-family="sans-serif" font-size="13" lengthAdjust="spacingAndGlyphs" textLength="58" x="294.5778" y="187.4696">Renderer</text><!--MD5=[b595b0c7475f75f111e3fb3460eadb54]
link RaytracingDemo to Entity--><path d="M165.5,292.49 C165.5,312.05 165.5,331.44 165.5,346.5 " fill="none" id="RaytracingDemo-&gt;Entity" style="stroke: #A80036; stroke-width: 1.0;"/><polygon fill="#A80036" points="165.5,351.85,169.5,342.85,165.5,346.85,161.5,342.85,165.5,351.85" style="stroke: #A80036; stroke-width: 1.0;"/><text fill="#000000" font-family="sans-serif" font-size="13" lengthAdjust="spacingAndGlyphs" textLength="49" x="110.2219" y="340.8236">camera</text><!--MD5=[317981b2e828800d22ab484f976959c6]
@startuml
class RaytracingDemo {
    + <<override>> Title : string <<get>> = "Raytracing Demo"
    + <<override>> Width : int <<get>> = 800
    + <<override>> Height : int <<get>> = 800
    + cameraSpeed : float = 5f
    + cameraRotationSpeed : float = 2f
    + camRotX : float = 0
    + camRotY : float = 0
    + <<override>> Init() : void
    + <<override>> Update() : void
    + <<override>> OnApplicationQuit() : void
}
Game <|- - RaytracingDemo
RaytracingDemo o-> "Renderer" Type
RaytracingDemo - -> "camera" Entity
@enduml

PlantUML version 1.2020.02(Sun Mar 01 10:22:07 GMT 2020)
(GPL source distribution)
Java Runtime: OpenJDK Runtime Environment
JVM: OpenJDK 64-Bit Server VM
Java Version: 11.0.9+11-Ubuntu-0ubuntu1
Operating System: Linux
Default Encoding: ANSI_X3.4-1968
Language: en
Country: US
--></g></svg>