<?xml version="1.0" encoding="UTF-8" standalone="no"?><svg xmlns="http://www.w3.org/2000/svg" xmlns:xlink="http://www.w3.org/1999/xlink" contentScriptType="application/ecmascript" contentStyleType="text/css" height="175px" preserveAspectRatio="none" style="width:218px;height:175px;" version="1.1" viewBox="0 0 218 175" width="218px" zoomAndPan="magnify"><defs><filter height="300%" id="f11fy4j2ntdper" width="300%" x="-1" y="-1"><feGaussianBlur result="blurOut" stdDeviation="2.0"/><feColorMatrix in="blurOut" result="blurOut2" type="matrix" values="0 0 0 0 0 0 0 0 0 0 0 0 0 0 0 0 0 0 .4 0"/><feOffset dx="4.0" dy="4.0" in="blurOut2" result="blurOut3"/><feBlend in="SourceGraphic" in2="blurOut3" mode="normal"/></filter></defs><g><!--MD5=[81a9308af1ea08e5919eafb0964ef3da]
class TerrainGenerator--><rect fill="#FEFECE" filter="url(#f11fy4j2ntdper)" height="48" id="TerrainGenerator" style="stroke: #A80036; stroke-width: 1.5;" width="140" x="67" y="116"/><ellipse cx="82" cy="132" fill="#ADD1B2" rx="11" ry="11" style="stroke: #A80036; stroke-width: 1.0;"/><path d="M84.9688,137.6406 Q84.3906,137.9375 83.75,138.0781 Q83.1094,138.2344 82.4063,138.2344 Q79.9063,138.2344 78.5781,136.5938 Q77.2656,134.9375 77.2656,131.8125 Q77.2656,128.6875 78.5781,127.0313 Q79.9063,125.375 82.4063,125.375 Q83.1094,125.375 83.75,125.5313 Q84.4063,125.6875 84.9688,125.9844 L84.9688,128.7031 Q84.3438,128.125 83.75,127.8594 Q83.1563,127.5781 82.5313,127.5781 Q81.1875,127.5781 80.5,128.6563 Q79.8125,129.7188 79.8125,131.8125 Q79.8125,133.9063 80.5,134.9844 Q81.1875,136.0469 82.5313,136.0469 Q83.1563,136.0469 83.75,135.7813 Q84.3438,135.5 84.9688,134.9219 L84.9688,137.6406 Z "/><text fill="#000000" font-family="sans-serif" font-size="12" lengthAdjust="spacingAndGlyphs" textLength="108" x="96" y="136.1543">TerrainGenerator</text><line style="stroke: #A80036; stroke-width: 1.5;" x1="68" x2="206" y1="148" y2="148"/><line style="stroke: #A80036; stroke-width: 1.5;" x1="68" x2="206" y1="156" y2="156"/><!--MD5=[ded6bb2856e5fb3268d4540b5b6340b7]
class Component`1--><rect fill="#FEFECE" filter="url(#f11fy4j2ntdper)" height="48" id="Component`1" style="stroke: #A80036; stroke-width: 1.5;" width="129" x="72.5" y="8"/><ellipse cx="87.5" cy="24" fill="#ADD1B2" rx="11" ry="11" style="stroke: #A80036; stroke-width: 1.0;"/><path d="M90.4688,29.6406 Q89.8906,29.9375 89.25,30.0781 Q88.6094,30.2344 87.9063,30.2344 Q85.4063,30.2344 84.0781,28.5938 Q82.7656,26.9375 82.7656,23.8125 Q82.7656,20.6875 84.0781,19.0313 Q85.4063,17.375 87.9063,17.375 Q88.6094,17.375 89.25,17.5313 Q89.9063,17.6875 90.4688,17.9844 L90.4688,20.7031 Q89.8438,20.125 89.25,19.8594 Q88.6563,19.5781 88.0313,19.5781 Q86.6875,19.5781 86,20.6563 Q85.3125,21.7188 85.3125,23.8125 Q85.3125,25.9063 86,26.9844 Q86.6875,28.0469 88.0313,28.0469 Q88.6563,28.0469 89.25,27.7813 Q89.8438,27.5 90.4688,26.9219 L90.4688,29.6406 Z "/><text fill="#000000" font-family="sans-serif" font-size="12" lengthAdjust="spacingAndGlyphs" textLength="86" x="101.5" y="28.1543">Component`1</text><rect fill="#FFFFFF" height="15.9688" style="stroke: #000000; stroke-width: 1.0; stroke-dasharray: 2.0,2.0;" width="9" x="195.5" y="5"/><text fill="#000000" font-family="sans-serif" font-size="12" font-style="italic" lengthAdjust="spacingAndGlyphs" textLength="7" x="196.5" y="17.1387">T</text><line style="stroke: #A80036; stroke-width: 1.5;" x1="73.5" x2="200.5" y1="40" y2="40"/><line style="stroke: #A80036; stroke-width: 1.5;" x1="73.5" x2="200.5" y1="48" y2="48"/><!--MD5=[8402ea04b939194841cf71419125c456]
reverse link Component`1 to TerrainGenerator--><path d="M137,76.02 C137,89.58 137,104.04 137,115.68 " fill="none" id="Component`1&lt;-TerrainGenerator" style="stroke: #A80036; stroke-width: 1.0;"/><polygon fill="none" points="130,76,137,56,144,76,130,76" style="stroke: #A80036; stroke-width: 1.0;"/><text fill="#000000" font-family="sans-serif" font-size="13" lengthAdjust="spacingAndGlyphs" textLength="131" x="-10.7844" y="76.1558">&lt;TerrainGenerator&gt;</text><!--MD5=[78332592e3d0e945c2b586682d8081bc]
@startuml
class TerrainGenerator {
}
class "Component`1"<T> {
}
"Component`1" "<TerrainGenerator>" <|- - TerrainGenerator
@enduml

PlantUML version 1.2020.02(Sun Mar 01 10:22:07 GMT 2020)
(GPL source distribution)
Java Runtime: OpenJDK Runtime Environment
JVM: OpenJDK 64-Bit Server VM
Java Version: 11.0.9+11-Ubuntu-0ubuntu1
Operating System: Linux
Default Encoding: ANSI_X3.4-1968
Language: en
Country: US
--></g></svg>