<?xml version="1.0" encoding="UTF-8" standalone="no"?><svg xmlns="http://www.w3.org/2000/svg" xmlns:xlink="http://www.w3.org/1999/xlink" contentScriptType="application/ecmascript" contentStyleType="text/css" height="360px" preserveAspectRatio="none" style="width:388px;height:360px;" version="1.1" viewBox="0 0 388 360" width="388px" zoomAndPan="magnify"><defs><filter height="300%" id="f1c18mdt5olrm8" width="300%" x="-1" y="-1"><feGaussianBlur result="blurOut" stdDeviation="2.0"/><feColorMatrix in="blurOut" result="blurOut2" type="matrix" values="0 0 0 0 0 0 0 0 0 0 0 0 0 0 0 0 0 0 .4 0"/><feOffset dx="4.0" dy="4.0" in="blurOut2" result="blurOut3"/><feBlend in="SourceGraphic" in2="blurOut3" mode="normal"/></filter></defs><g><!--MD5=[9a2a64fc736b29e9e2d773aeff1cc875]
class StringBlock--><rect fill="#FEFECE" filter="url(#f1c18mdt5olrm8)" height="79.5469" id="StringBlock" style="stroke: #A80036; stroke-width: 1.5;" width="113" x="6" y="8"/><ellipse cx="25.95" cy="26.9688" fill="#ADD1B2" rx="11" ry="11" style="stroke: #A80036; stroke-width: 1.0;"/><path d="M28.9188,32.6094 Q28.3406,32.9063 27.7,33.0469 Q27.0594,33.2031 26.3563,33.2031 Q23.8563,33.2031 22.5281,31.5625 Q21.2156,29.9063 21.2156,26.7813 Q21.2156,23.6563 22.5281,22 Q23.8563,20.3438 26.3563,20.3438 Q27.0594,20.3438 27.7,20.5 Q28.3563,20.6563 28.9188,20.9531 L28.9188,23.6719 Q28.2938,23.0938 27.7,22.8281 Q27.1063,22.5469 26.4813,22.5469 Q25.1375,22.5469 24.45,23.625 Q23.7625,24.6875 23.7625,26.7813 Q23.7625,28.875 24.45,29.9531 Q25.1375,31.0156 26.4813,31.0156 Q27.1063,31.0156 27.7,30.75 Q28.2938,30.4688 28.9188,29.8906 L28.9188,32.6094 Z "/><text fill="#000000" font-family="sans-serif" font-size="12" font-style="italic" lengthAdjust="spacingAndGlyphs" textLength="50" x="51.05" y="24.1387">«struct»</text><text fill="#000000" font-family="sans-serif" font-size="12" lengthAdjust="spacingAndGlyphs" textLength="70" x="41.05" y="38.1074">StringBlock</text><line style="stroke: #A80036; stroke-width: 1.5;" x1="7" x2="118" y1="45.9375" y2="45.9375"/><ellipse cx="17" cy="56.9375" fill="none" rx="3" ry="3" style="stroke: #038048; stroke-width: 1.0;"/><text fill="#000000" font-family="sans-serif" font-size="11" lengthAdjust="spacingAndGlyphs" textLength="77" x="26" y="60.1479">name : string</text><ellipse cx="17" cy="69.7422" fill="none" rx="3" ry="3" style="stroke: #038048; stroke-width: 1.0;"/><text fill="#000000" font-family="sans-serif" font-size="11" lengthAdjust="spacingAndGlyphs" textLength="87" x="26" y="72.9526">content : string</text><line style="stroke: #A80036; stroke-width: 1.5;" x1="7" x2="118" y1="79.5469" y2="79.5469"/><!--MD5=[9fea9cbd1074c04d5befad87479f81d0]
class OpenGLShader--><rect fill="#FEFECE" filter="url(#f1c18mdt5olrm8)" height="201.6563" id="OpenGLShader" style="stroke: #A80036; stroke-width: 1.5;" width="296" x="81.5" y="148"/><ellipse cx="178.75" cy="164" fill="#ADD1B2" rx="11" ry="11" style="stroke: #A80036; stroke-width: 1.0;"/><path d="M181.7188,169.6406 Q181.1406,169.9375 180.5,170.0781 Q179.8594,170.2344 179.1563,170.2344 Q176.6563,170.2344 175.3281,168.5938 Q174.0156,166.9375 174.0156,163.8125 Q174.0156,160.6875 175.3281,159.0313 Q176.6563,157.375 179.1563,157.375 Q179.8594,157.375 180.5,157.5313 Q181.1563,157.6875 181.7188,157.9844 L181.7188,160.7031 Q181.0938,160.125 180.5,159.8594 Q179.9063,159.5781 179.2813,159.5781 Q177.9375,159.5781 177.25,160.6563 Q176.5625,161.7188 176.5625,163.8125 Q176.5625,165.9063 177.25,166.9844 Q177.9375,168.0469 179.2813,168.0469 Q179.9063,168.0469 180.5,167.7813 Q181.0938,167.5 181.7188,166.9219 L181.7188,169.6406 Z "/><text fill="#000000" font-family="sans-serif" font-size="12" lengthAdjust="spacingAndGlyphs" textLength="93" x="199.25" y="168.1543">OpenGLShader</text><line style="stroke: #A80036; stroke-width: 1.5;" x1="82.5" x2="376.5" y1="180" y2="180"/><ellipse cx="92.5" cy="191" fill="none" rx="3" ry="3" style="stroke: #038048; stroke-width: 1.0;"/><text fill="#000000" font-family="sans-serif" font-size="11" lengthAdjust="spacingAndGlyphs" textLength="77" x="101.5" y="194.2104">name : string</text><line style="stroke: #A80036; stroke-width: 1.5;" x1="82.5" x2="376.5" y1="200.8047" y2="200.8047"/><ellipse cx="92.5" cy="211.8047" fill="#84BE84" rx="3" ry="3" style="stroke: #038048; stroke-width: 1.0;"/><text fill="#000000" font-family="sans-serif" font-size="11" lengthAdjust="spacingAndGlyphs" textLength="173" x="101.5" y="215.0151">OpenGLShader(filePath:string)</text><ellipse cx="92.5" cy="224.6094" fill="#84BE84" rx="3" ry="3" style="stroke: #038048; stroke-width: 1.0;"/><text fill="#000000" font-family="sans-serif" font-size="11" lengthAdjust="spacingAndGlyphs" textLength="108" x="101.5" y="227.8198">BindSource() : void</text><ellipse cx="92.5" cy="237.4141" fill="#84BE84" rx="3" ry="3" style="stroke: #038048; stroke-width: 1.0;"/><text fill="#000000" font-family="sans-serif" font-size="11" lengthAdjust="spacingAndGlyphs" textLength="137" x="101.5" y="240.6245">CompileAndLoad() : void</text><ellipse cx="92.5" cy="250.2188" fill="#84BE84" rx="3" ry="3" style="stroke: #038048; stroke-width: 1.0;"/><text fill="#000000" font-family="sans-serif" font-size="11" lengthAdjust="spacingAndGlyphs" textLength="81" x="101.5" y="253.4292">Enable() : void</text><ellipse cx="92.5" cy="263.0234" fill="#84BE84" rx="3" ry="3" style="stroke: #038048; stroke-width: 1.0;"/><text fill="#000000" font-family="sans-serif" font-size="11" lengthAdjust="spacingAndGlyphs" textLength="90" x="101.5" y="266.2339">CleanUp() : void</text><ellipse cx="92.5" cy="275.8281" fill="#84BE84" rx="3" ry="3" style="stroke: #038048; stroke-width: 1.0;"/><text fill="#000000" font-family="sans-serif" font-size="11" lengthAdjust="spacingAndGlyphs" textLength="215" x="101.5" y="279.0386">GetUniformLocation(name:string) : int</text><ellipse cx="92.5" cy="288.6328" fill="#84BE84" rx="3" ry="3" style="stroke: #038048; stroke-width: 1.0;"/><text fill="#000000" font-family="sans-serif" font-size="11" lengthAdjust="spacingAndGlyphs" textLength="200" x="101.5" y="291.8433">GetAttribLocation(name:string) : int</text><ellipse cx="92.5" cy="301.4375" fill="#84BE84" rx="3" ry="3" style="stroke: #038048; stroke-width: 1.0;"/><text fill="#000000" font-family="sans-serif" font-size="11" lengthAdjust="spacingAndGlyphs" textLength="270" x="101.5" y="304.6479">BindAttribLocation(index:int, name:string) : void</text><ellipse cx="92.5" cy="314.2422" fill="#84BE84" rx="3" ry="3" style="stroke: #038048; stroke-width: 1.0;"/><text fill="#000000" font-family="sans-serif" font-size="11" lengthAdjust="spacingAndGlyphs" textLength="166" x="101.5" y="317.4526">«override» Serialize() : string</text><ellipse cx="92.5" cy="327.0469" fill="#84BE84" rx="3" ry="3" style="stroke: #038048; stroke-width: 1.0;"/><text fill="#000000" font-family="sans-serif" font-size="11" lengthAdjust="spacingAndGlyphs" textLength="232" x="101.5" y="330.2573">«override» Deserialize(data:string) : void</text><ellipse cx="92.5" cy="339.8516" fill="#84BE84" rx="3" ry="3" style="stroke: #038048; stroke-width: 1.0;"/><text fill="#000000" font-family="sans-serif" font-size="11" lengthAdjust="spacingAndGlyphs" textLength="73" x="101.5" y="343.062">Handle() : int</text><!--MD5=[327a4fcb77f7980e305b37dbaa2664ff]
class SerializeableObject--><rect fill="#FEFECE" filter="url(#f1c18mdt5olrm8)" height="48" id="SerializeableObject" style="stroke: #A80036; stroke-width: 1.5;" width="150" x="154.5" y="24"/><ellipse cx="169.5" cy="40" fill="#ADD1B2" rx="11" ry="11" style="stroke: #A80036; stroke-width: 1.0;"/><path d="M172.4688,45.6406 Q171.8906,45.9375 171.25,46.0781 Q170.6094,46.2344 169.9063,46.2344 Q167.4063,46.2344 166.0781,44.5938 Q164.7656,42.9375 164.7656,39.8125 Q164.7656,36.6875 166.0781,35.0313 Q167.4063,33.375 169.9063,33.375 Q170.6094,33.375 171.25,33.5313 Q171.9063,33.6875 172.4688,33.9844 L172.4688,36.7031 Q171.8438,36.125 171.25,35.8594 Q170.6563,35.5781 170.0313,35.5781 Q168.6875,35.5781 168,36.6563 Q167.3125,37.7188 167.3125,39.8125 Q167.3125,41.9063 168,42.9844 Q168.6875,44.0469 170.0313,44.0469 Q170.6563,44.0469 171.25,43.7813 Q171.8438,43.5 172.4688,42.9219 L172.4688,45.6406 Z "/><text fill="#000000" font-family="sans-serif" font-size="12" lengthAdjust="spacingAndGlyphs" textLength="118" x="183.5" y="44.1543">SerializeableObject</text><line style="stroke: #A80036; stroke-width: 1.5;" x1="155.5" x2="303.5" y1="56" y2="56"/><line style="stroke: #A80036; stroke-width: 1.5;" x1="155.5" x2="303.5" y1="64" y2="64"/><!--MD5=[0d0cf0d426832c9f03767fad6a687438]
reverse link SerializeableObject to OpenGLShader--><path d="M229.5,92.43 C229.5,108.82 229.5,128.24 229.5,147.69 " fill="none" id="SerializeableObject&lt;-OpenGLShader" style="stroke: #A80036; stroke-width: 1.0;"/><polygon fill="none" points="222.5,92.22,229.5,72.22,236.5,92.22,222.5,92.22" style="stroke: #A80036; stroke-width: 1.0;"/><!--MD5=[750194a8f2ddc3a83475c7479d82704d]
@startuml
class StringBlock <<struct>> {
    + name : string
    + content : string
}
class OpenGLShader {
    + name : string
    + OpenGLShader(filePath:string)
    + BindSource() : void
    + CompileAndLoad() : void
    + Enable() : void
    + CleanUp() : void
    + GetUniformLocation(name:string) : int
    + GetAttribLocation(name:string) : int
    + BindAttribLocation(index:int, name:string) : void
    + <<override>> Serialize() : string
    + <<override>> Deserialize(data:string) : void
    + Handle() : int
}
SerializeableObject <|- - OpenGLShader
@enduml

PlantUML version 1.2020.02(Sun Mar 01 10:22:07 GMT 2020)
(GPL source distribution)
Java Runtime: OpenJDK Runtime Environment
JVM: OpenJDK 64-Bit Server VM
Java Version: 11.0.9+11-Ubuntu-0ubuntu1
Operating System: Linux
Default Encoding: ANSI_X3.4-1968
Language: en
Country: US
--></g></svg>