<?xml version="1.0" encoding="UTF-8" standalone="no"?><svg xmlns="http://www.w3.org/2000/svg" xmlns:xlink="http://www.w3.org/1999/xlink" contentScriptType="application/ecmascript" contentStyleType="text/css" height="373px" preserveAspectRatio="none" style="width:335px;height:373px;" version="1.1" viewBox="0 0 335 373" width="335px" zoomAndPan="magnify"><defs><filter height="300%" id="f1kelw5g99kab5" width="300%" x="-1" y="-1"><feGaussianBlur result="blurOut" stdDeviation="2.0"/><feColorMatrix in="blurOut" result="blurOut2" type="matrix" values="0 0 0 0 0 0 0 0 0 0 0 0 0 0 0 0 0 0 .4 0"/><feOffset dx="4.0" dy="4.0" in="blurOut2" result="blurOut3"/><feBlend in="SourceGraphic" in2="blurOut3" mode="normal"/></filter></defs><g><!--MD5=[452be1aaf8b94e2bc4204d466ef769a4]
class Camera--><rect fill="#FEFECE" filter="url(#f1kelw5g99kab5)" height="137.6328" id="Camera" style="stroke: #A80036; stroke-width: 1.5;" width="271" x="6" y="116"/><ellipse cx="113.25" cy="132" fill="#ADD1B2" rx="11" ry="11" style="stroke: #A80036; stroke-width: 1.0;"/><path d="M116.2188,137.6406 Q115.6406,137.9375 115,138.0781 Q114.3594,138.2344 113.6563,138.2344 Q111.1563,138.2344 109.8281,136.5938 Q108.5156,134.9375 108.5156,131.8125 Q108.5156,128.6875 109.8281,127.0313 Q111.1563,125.375 113.6563,125.375 Q114.3594,125.375 115,125.5313 Q115.6563,125.6875 116.2188,125.9844 L116.2188,128.7031 Q115.5938,128.125 115,127.8594 Q114.4063,127.5781 113.7813,127.5781 Q112.4375,127.5781 111.75,128.6563 Q111.0625,129.7188 111.0625,131.8125 Q111.0625,133.9063 111.75,134.9844 Q112.4375,136.0469 113.7813,136.0469 Q114.4063,136.0469 115,135.7813 Q115.5938,135.5 116.2188,134.9219 L116.2188,137.6406 Z "/><text fill="#000000" font-family="sans-serif" font-size="12" lengthAdjust="spacingAndGlyphs" textLength="48" x="133.75" y="136.1543">Camera</text><line style="stroke: #A80036; stroke-width: 1.5;" x1="7" x2="276" y1="148" y2="148"/><ellipse cx="17" cy="159" fill="none" rx="3" ry="3" style="stroke: #038048; stroke-width: 1.0;"/><text fill="#000000" font-family="sans-serif" font-size="11" lengthAdjust="spacingAndGlyphs" textLength="120" x="26" y="162.2104">FOV : int «get» «set»</text><ellipse cx="17" cy="171.8047" fill="none" rx="3" ry="3" style="stroke: #038048; stroke-width: 1.0;"/><text fill="#000000" font-family="sans-serif" font-size="11" lengthAdjust="spacingAndGlyphs" textLength="136" x="26" y="175.0151">Near : float «get» «set»</text><ellipse cx="17" cy="184.6094" fill="none" rx="3" ry="3" style="stroke: #038048; stroke-width: 1.0;"/><text fill="#000000" font-family="sans-serif" font-size="11" lengthAdjust="spacingAndGlyphs" textLength="127" x="26" y="187.8198">Far : float «get» «set»</text><ellipse cx="17" cy="197.4141" fill="none" rx="3" ry="3" style="stroke: #038048; stroke-width: 1.0;"/><text fill="#000000" font-family="sans-serif" font-size="11" lengthAdjust="spacingAndGlyphs" textLength="111" x="26" y="200.6245">Aspect : float «get»</text><line style="stroke: #A80036; stroke-width: 1.5;" x1="7" x2="276" y1="207.2188" y2="207.2188"/><ellipse cx="17" cy="218.2188" fill="#84BE84" rx="3" ry="3" style="stroke: #038048; stroke-width: 1.0;"/><text fill="#000000" font-family="sans-serif" font-size="11" lengthAdjust="spacingAndGlyphs" textLength="245" x="26" y="221.4292">UpdateProjectionMatrix(size:Vector2i) : void</text><ellipse cx="17" cy="231.0234" fill="#84BE84" rx="3" ry="3" style="stroke: #038048; stroke-width: 1.0;"/><text fill="#000000" font-family="sans-serif" font-size="11" lengthAdjust="spacingAndGlyphs" textLength="156" x="26" y="234.2339">SetActive(active:bool) : void</text><ellipse cx="17" cy="243.8281" fill="#84BE84" rx="3" ry="3" style="stroke: #038048; stroke-width: 1.0;"/><text fill="#000000" font-family="sans-serif" font-size="11" lengthAdjust="spacingAndGlyphs" text-decoration="underline" textLength="124" x="26" y="247.0386">SetNoneActive() : void</text><!--MD5=[ded6bb2856e5fb3268d4540b5b6340b7]
class Component`1--><rect fill="#FEFECE" filter="url(#f1kelw5g99kab5)" height="48" id="Component`1" style="stroke: #A80036; stroke-width: 1.5;" width="129" x="77" y="8"/><ellipse cx="92" cy="24" fill="#ADD1B2" rx="11" ry="11" style="stroke: #A80036; stroke-width: 1.0;"/><path d="M94.9688,29.6406 Q94.3906,29.9375 93.75,30.0781 Q93.1094,30.2344 92.4063,30.2344 Q89.9063,30.2344 88.5781,28.5938 Q87.2656,26.9375 87.2656,23.8125 Q87.2656,20.6875 88.5781,19.0313 Q89.9063,17.375 92.4063,17.375 Q93.1094,17.375 93.75,17.5313 Q94.4063,17.6875 94.9688,17.9844 L94.9688,20.7031 Q94.3438,20.125 93.75,19.8594 Q93.1563,19.5781 92.5313,19.5781 Q91.1875,19.5781 90.5,20.6563 Q89.8125,21.7188 89.8125,23.8125 Q89.8125,25.9063 90.5,26.9844 Q91.1875,28.0469 92.5313,28.0469 Q93.1563,28.0469 93.75,27.7813 Q94.3438,27.5 94.9688,26.9219 L94.9688,29.6406 Z "/><text fill="#000000" font-family="sans-serif" font-size="12" lengthAdjust="spacingAndGlyphs" textLength="86" x="106" y="28.1543">Component`1</text><rect fill="#FFFFFF" height="15.9688" style="stroke: #000000; stroke-width: 1.0; stroke-dasharray: 2.0,2.0;" width="9" x="200" y="5"/><text fill="#000000" font-family="sans-serif" font-size="12" font-style="italic" lengthAdjust="spacingAndGlyphs" textLength="7" x="201" y="17.1387">T</text><line style="stroke: #A80036; stroke-width: 1.5;" x1="78" x2="205" y1="40" y2="40"/><line style="stroke: #A80036; stroke-width: 1.5;" x1="78" x2="205" y1="48" y2="48"/><!--MD5=[c9d57e72579f5036e9f78a0f4b71b326]
class Matrix4--><rect fill="#FEFECE" filter="url(#f1kelw5g99kab5)" height="48" id="Matrix4" style="stroke: #A80036; stroke-width: 1.5;" width="77" x="103" y="314"/><ellipse cx="118" cy="330" fill="#ADD1B2" rx="11" ry="11" style="stroke: #A80036; stroke-width: 1.0;"/><path d="M120.9688,335.6406 Q120.3906,335.9375 119.75,336.0781 Q119.1094,336.2344 118.4063,336.2344 Q115.9063,336.2344 114.5781,334.5938 Q113.2656,332.9375 113.2656,329.8125 Q113.2656,326.6875 114.5781,325.0313 Q115.9063,323.375 118.4063,323.375 Q119.1094,323.375 119.75,323.5313 Q120.4063,323.6875 120.9688,323.9844 L120.9688,326.7031 Q120.3438,326.125 119.75,325.8594 Q119.1563,325.5781 118.5313,325.5781 Q117.1875,325.5781 116.5,326.6563 Q115.8125,327.7188 115.8125,329.8125 Q115.8125,331.9063 116.5,332.9844 Q117.1875,334.0469 118.5313,334.0469 Q119.1563,334.0469 119.75,333.7813 Q120.3438,333.5 120.9688,332.9219 L120.9688,335.6406 Z "/><text fill="#000000" font-family="sans-serif" font-size="12" lengthAdjust="spacingAndGlyphs" textLength="45" x="132" y="334.1543">Matrix4</text><line style="stroke: #A80036; stroke-width: 1.5;" x1="104" x2="179" y1="346" y2="346"/><line style="stroke: #A80036; stroke-width: 1.5;" x1="104" x2="179" y1="354" y2="354"/><!--MD5=[9c5b8257a57ad6bb330a1de8a188b64b]
reverse link Component`1 to Camera--><path d="M141.5,76.56 C141.5,88.87 141.5,102.57 141.5,115.96 " fill="none" id="Component`1&lt;-Camera" style="stroke: #A80036; stroke-width: 1.0;"/><polygon fill="none" points="134.5,76.26,141.5,56.26,148.5,76.26,134.5,76.26" style="stroke: #A80036; stroke-width: 1.0;"/><text fill="#000000" font-family="sans-serif" font-size="13" lengthAdjust="spacingAndGlyphs" textLength="73" x="59.6031" y="76.0846">&lt;Camera&gt;</text><!--MD5=[f173aa7962a2f23c6d9ce5a7c0debb1c]
link Camera to Camera--><path d="M277.26,159.01 C297.95,162.98 312,171.64 312,185 C312,197.21 300.26,205.5 282.44,209.86 " fill="none" id="Camera-&gt;Camera" style="stroke: #A80036; stroke-width: 1.0;"/><polygon fill="#A80036" points="277.26,210.99,286.9024,212.9962,282.1469,209.9326,285.2105,205.1771,277.26,210.99" style="stroke: #A80036; stroke-width: 1.0;"/><text fill="#000000" font-family="sans-serif" font-size="13" lengthAdjust="spacingAndGlyphs" textLength="39" x="284.7804" y="208.9646">Active</text><!--MD5=[c467a57bf3409e75939c2a63d1ad06cc]
link Camera to Matrix4--><path d="M128.8,254.43 C128.53,273.64 129.37,293.47 131.31,308.87 " fill="none" id="Camera-&gt;Matrix4" style="stroke: #A80036; stroke-width: 1.0;"/><polygon fill="#A80036" points="132.02,313.92,134.7491,304.4568,131.3349,308.9672,126.8245,305.553,132.02,313.92" style="stroke: #A80036; stroke-width: 1.0;"/><text fill="#000000" font-family="sans-serif" font-size="13" lengthAdjust="spacingAndGlyphs" textLength="102" x="14.522" y="302.9115">ProjectionMatrix</text><!--MD5=[c467a57bf3409e75939c2a63d1ad06cc]
link Camera to Matrix4--><path d="M154.95,254.43 C155.23,273.64 154.35,293.47 152.29,308.87 " fill="none" id="Camera-&gt;Matrix4-1" style="stroke: #A80036; stroke-width: 1.0;"/><polygon fill="#A80036" points="151.54,313.92,156.8097,305.5995,152.2691,308.9734,148.8952,304.4329,151.54,313.92" style="stroke: #A80036; stroke-width: 1.0;"/><text fill="#000000" font-family="sans-serif" font-size="13" lengthAdjust="spacingAndGlyphs" textLength="68" x="162.8252" y="302.9115">ViewMatrix</text><!--MD5=[34392fb40dbc242c3b77b3180f6cbcf7]
@startuml
class Camera {
    + FOV : int <<get>> <<set>>
    + Near : float <<get>> <<set>>
    + Far : float <<get>> <<set>>
    + Aspect : float <<get>>
    + UpdateProjectionMatrix(size:Vector2i) : void
    + SetActive(active:bool) : void
    + {static} SetNoneActive() : void
}
class "Component`1"<T> {
}
"Component`1" "<Camera>" <|- - Camera
Camera - -> "Active" Camera
Camera - -> "ProjectionMatrix" Matrix4
Camera - -> "ViewMatrix" Matrix4
@enduml

PlantUML version 1.2020.02(Sun Mar 01 10:22:07 GMT 2020)
(GPL source distribution)
Java Runtime: OpenJDK Runtime Environment
JVM: OpenJDK 64-Bit Server VM
Java Version: 11.0.9+11-Ubuntu-0ubuntu1
Operating System: Linux
Default Encoding: ANSI_X3.4-1968
Language: en
Country: US
--></g></svg>