<?xml version="1.0" encoding="UTF-8" standalone="no"?><svg xmlns="http://www.w3.org/2000/svg" xmlns:xlink="http://www.w3.org/1999/xlink" contentScriptType="application/ecmascript" contentStyleType="text/css" height="226px" preserveAspectRatio="none" style="width:618px;height:226px;" version="1.1" viewBox="0 0 618 226" width="618px" zoomAndPan="magnify"><defs><filter height="300%" id="faqt6vgxlxigc" width="300%" x="-1" y="-1"><feGaussianBlur result="blurOut" stdDeviation="2.0"/><feColorMatrix in="blurOut" result="blurOut2" type="matrix" values="0 0 0 0 0 0 0 0 0 0 0 0 0 0 0 0 0 0 .4 0"/><feOffset dx="4.0" dy="4.0" in="blurOut2" result="blurOut3"/><feBlend in="SourceGraphic" in2="blurOut3" mode="normal"/></filter></defs><g><!--MD5=[004b1d6c4ca8aad4ba8b586a335ed4f3]
class Transform--><rect fill="#FEFECE" filter="url(#faqt6vgxlxigc)" height="99.2188" id="Transform" style="stroke: #A80036; stroke-width: 1.5;" width="330" x="6" y="116"/><ellipse cx="135.25" cy="132" fill="#ADD1B2" rx="11" ry="11" style="stroke: #A80036; stroke-width: 1.0;"/><path d="M138.2188,137.6406 Q137.6406,137.9375 137,138.0781 Q136.3594,138.2344 135.6563,138.2344 Q133.1563,138.2344 131.8281,136.5938 Q130.5156,134.9375 130.5156,131.8125 Q130.5156,128.6875 131.8281,127.0313 Q133.1563,125.375 135.6563,125.375 Q136.3594,125.375 137,125.5313 Q137.6563,125.6875 138.2188,125.9844 L138.2188,128.7031 Q137.5938,128.125 137,127.8594 Q136.4063,127.5781 135.7813,127.5781 Q134.4375,127.5781 133.75,128.6563 Q133.0625,129.7188 133.0625,131.8125 Q133.0625,133.9063 133.75,134.9844 Q134.4375,136.0469 135.7813,136.0469 Q136.4063,136.0469 137,135.7813 Q137.5938,135.5 138.2188,134.9219 L138.2188,137.6406 Z "/><text fill="#000000" font-family="sans-serif" font-size="12" lengthAdjust="spacingAndGlyphs" textLength="63" x="155.75" y="136.1543">Transform</text><line style="stroke: #A80036; stroke-width: 1.5;" x1="7" x2="335" y1="148" y2="148"/><ellipse cx="17" cy="159" fill="none" rx="3" ry="3" style="stroke: #038048; stroke-width: 1.0;"/><text fill="#000000" font-family="sans-serif" font-size="11" lengthAdjust="spacingAndGlyphs" textLength="304" x="26" y="162.2104">«override» IsExclusiveComponent : bool «get» = true</text><line style="stroke: #A80036; stroke-width: 1.5;" x1="7" x2="335" y1="168.8047" y2="168.8047"/><ellipse cx="17" cy="179.8047" fill="#84BE84" rx="3" ry="3" style="stroke: #038048; stroke-width: 1.0;"/><text fill="#000000" font-family="sans-serif" font-size="11" lengthAdjust="spacingAndGlyphs" textLength="200" x="26" y="183.0151">SetParent(parent:Transform) : void</text><ellipse cx="17" cy="192.6094" fill="#84BE84" rx="3" ry="3" style="stroke: #038048; stroke-width: 1.0;"/><text fill="#000000" font-family="sans-serif" font-size="11" lengthAdjust="spacingAndGlyphs" textLength="83" x="26" y="195.8198">TRS() : Matrix4</text><ellipse cx="17" cy="205.4141" fill="#84BE84" rx="3" ry="3" style="stroke: #038048; stroke-width: 1.0;"/><text fill="#000000" font-family="sans-serif" font-size="11" lengthAdjust="spacingAndGlyphs" textLength="112" x="26" y="208.6245">LocalTRS() : Matrix4</text><!--MD5=[ded6bb2856e5fb3268d4540b5b6340b7]
class Component`1--><rect fill="#FEFECE" filter="url(#faqt6vgxlxigc)" height="48" id="Component`1" style="stroke: #A80036; stroke-width: 1.5;" width="129" x="106.5" y="8"/><ellipse cx="121.5" cy="24" fill="#ADD1B2" rx="11" ry="11" style="stroke: #A80036; stroke-width: 1.0;"/><path d="M124.4688,29.6406 Q123.8906,29.9375 123.25,30.0781 Q122.6094,30.2344 121.9063,30.2344 Q119.4063,30.2344 118.0781,28.5938 Q116.7656,26.9375 116.7656,23.8125 Q116.7656,20.6875 118.0781,19.0313 Q119.4063,17.375 121.9063,17.375 Q122.6094,17.375 123.25,17.5313 Q123.9063,17.6875 124.4688,17.9844 L124.4688,20.7031 Q123.8438,20.125 123.25,19.8594 Q122.6563,19.5781 122.0313,19.5781 Q120.6875,19.5781 120,20.6563 Q119.3125,21.7188 119.3125,23.8125 Q119.3125,25.9063 120,26.9844 Q120.6875,28.0469 122.0313,28.0469 Q122.6563,28.0469 123.25,27.7813 Q123.8438,27.5 124.4688,26.9219 L124.4688,29.6406 Z "/><text fill="#000000" font-family="sans-serif" font-size="12" lengthAdjust="spacingAndGlyphs" textLength="86" x="135.5" y="28.1543">Component`1</text><rect fill="#FFFFFF" height="15.9688" style="stroke: #000000; stroke-width: 1.0; stroke-dasharray: 2.0,2.0;" width="9" x="229.5" y="5"/><text fill="#000000" font-family="sans-serif" font-size="12" font-style="italic" lengthAdjust="spacingAndGlyphs" textLength="7" x="230.5" y="17.1387">T</text><line style="stroke: #A80036; stroke-width: 1.5;" x1="107.5" x2="234.5" y1="40" y2="40"/><line style="stroke: #A80036; stroke-width: 1.5;" x1="107.5" x2="234.5" y1="48" y2="48"/><!--MD5=[65d619c042c23702cef2ca07d67b1cf6]
class Vector3--><rect fill="#FEFECE" filter="url(#faqt6vgxlxigc)" height="48" id="Vector3" style="stroke: #A80036; stroke-width: 1.5;" width="81" x="526.5" y="141.5"/><ellipse cx="541.5" cy="157.5" fill="#ADD1B2" rx="11" ry="11" style="stroke: #A80036; stroke-width: 1.0;"/><path d="M544.4688,163.1406 Q543.8906,163.4375 543.25,163.5781 Q542.6094,163.7344 541.9063,163.7344 Q539.4063,163.7344 538.0781,162.0938 Q536.7656,160.4375 536.7656,157.3125 Q536.7656,154.1875 538.0781,152.5313 Q539.4063,150.875 541.9063,150.875 Q542.6094,150.875 543.25,151.0313 Q543.9063,151.1875 544.4688,151.4844 L544.4688,154.2031 Q543.8438,153.625 543.25,153.3594 Q542.6563,153.0781 542.0313,153.0781 Q540.6875,153.0781 540,154.1563 Q539.3125,155.2188 539.3125,157.3125 Q539.3125,159.4063 540,160.4844 Q540.6875,161.5469 542.0313,161.5469 Q542.6563,161.5469 543.25,161.2813 Q543.8438,161 544.4688,160.4219 L544.4688,163.1406 Z "/><text fill="#000000" font-family="sans-serif" font-size="12" lengthAdjust="spacingAndGlyphs" textLength="49" x="555.5" y="161.6543">Vector3</text><line style="stroke: #A80036; stroke-width: 1.5;" x1="527.5" x2="606.5" y1="173.5" y2="173.5"/><line style="stroke: #A80036; stroke-width: 1.5;" x1="527.5" x2="606.5" y1="181.5" y2="181.5"/><!--MD5=[4c7b140fed10e9877852f4b8dc88c33d]
class Quaternion--><rect fill="#FEFECE" filter="url(#faqt6vgxlxigc)" height="48" id="Quaternion" style="stroke: #A80036; stroke-width: 1.5;" width="102" x="389" y="141.5"/><ellipse cx="404" cy="157.5" fill="#ADD1B2" rx="11" ry="11" style="stroke: #A80036; stroke-width: 1.0;"/><path d="M406.9688,163.1406 Q406.3906,163.4375 405.75,163.5781 Q405.1094,163.7344 404.4063,163.7344 Q401.9063,163.7344 400.5781,162.0938 Q399.2656,160.4375 399.2656,157.3125 Q399.2656,154.1875 400.5781,152.5313 Q401.9063,150.875 404.4063,150.875 Q405.1094,150.875 405.75,151.0313 Q406.4063,151.1875 406.9688,151.4844 L406.9688,154.2031 Q406.3438,153.625 405.75,153.3594 Q405.1563,153.0781 404.5313,153.0781 Q403.1875,153.0781 402.5,154.1563 Q401.8125,155.2188 401.8125,157.3125 Q401.8125,159.4063 402.5,160.4844 Q403.1875,161.5469 404.5313,161.5469 Q405.1563,161.5469 405.75,161.2813 Q406.3438,161 406.9688,160.4219 L406.9688,163.1406 Z "/><text fill="#000000" font-family="sans-serif" font-size="12" lengthAdjust="spacingAndGlyphs" textLength="70" x="418" y="161.6543">Quaternion</text><line style="stroke: #A80036; stroke-width: 1.5;" x1="390" x2="490" y1="173.5" y2="173.5"/><line style="stroke: #A80036; stroke-width: 1.5;" x1="390" x2="490" y1="181.5" y2="181.5"/><!--MD5=[daf8f64890b7549bee80fadbf73cd20a]
reverse link Component`1 to Transform--><path d="M171,76.51 C171,89.14 171,103.01 171,115.93 " fill="none" id="Component`1&lt;-Transform" style="stroke: #A80036; stroke-width: 1.0;"/><polygon fill="none" points="164,76.21,171,56.21,178,76.21,164,76.21" style="stroke: #A80036; stroke-width: 1.0;"/><text fill="#000000" font-family="sans-serif" font-size="13" lengthAdjust="spacingAndGlyphs" textLength="87" x="73.3969" y="76.0224">&lt;Transform&gt;</text><!--MD5=[920816311cc007f023228bd7f1cc98a4]
link Transform to Vector3--><path d="M277.6953,111.4674 C277.6953,111.4674 427.43,67.1 497.33,96 C514.95,103.28 530.44,117.42 542.31,131.05 " fill="none" id="Transform-Vector3" style="stroke: #A80036; stroke-width: 1.0;"/><polygon fill="#A80036" points="550.67,141.25,548.0667,131.7514,547.5038,137.3802,541.875,136.8173,550.67,141.25" style="stroke: #A80036; stroke-width: 1.0;"/><line style="stroke: #A80036; stroke-width: 1.0;" x1="547.5038" x2="542.43" y1="137.3802" y2="131.19"/><polygon fill="#FFFFFF" points="266.56,115.94,273.6185,117.4155,277.6953,111.4674,270.6368,109.9919,266.56,115.94" style="stroke: #A80036; stroke-width: 1.0;"/><text fill="#000000" font-family="sans-serif" font-size="13" lengthAdjust="spacingAndGlyphs" textLength="50" x="490.9502" y="130.4093">position</text><!--MD5=[920816311cc007f023228bd7f1cc98a4]
link Transform to Vector3--><path d="M256.0265,110.1105 C256.0265,110.1105 411.35,43.11 485.67,76 C510.82,87.13 531.53,110.31 545.76,130.29 " fill="none" id="Transform-Vector3-1" style="stroke: #A80036; stroke-width: 1.0;"/><polygon fill="#A80036" points="553.18,141.27,551.4597,131.5725,550.3824,137.1259,544.8291,136.0486,553.18,141.27" style="stroke: #A80036; stroke-width: 1.0;"/><line style="stroke: #A80036; stroke-width: 1.0;" x1="550.3824" x2="545.9" y1="137.1259" y2="130.495"/><polygon fill="#FFFFFF" points="245.51,115.89,252.6948,116.5058,256.0265,110.1105,248.8418,109.4947,245.51,115.89" style="stroke: #A80036; stroke-width: 1.0;"/><text fill="#000000" font-family="sans-serif" font-size="13" lengthAdjust="spacingAndGlyphs" textLength="33" x="553.8332" y="130.6189">scale</text><!--MD5=[c907897da69e14033fb73bba69ebe2dc]
link Transform to Quaternion--><path d="M348.24,165.5 C348.24,165.5 366.9,165.5 375.65,165.5 " fill="none" id="Transform-Quaternion" style="stroke: #A80036; stroke-width: 1.0;"/><polygon fill="#A80036" points="388.93,165.5,379.93,161.5,383.93,165.5,379.93,169.5,388.93,165.5" style="stroke: #A80036; stroke-width: 1.0;"/><line style="stroke: #A80036; stroke-width: 1.0;" x1="383.93" x2="375.93" y1="165.5" y2="165.5"/><polygon fill="#FFFFFF" points="336.24,165.5,342.24,169.5,348.24,165.5,342.24,161.5,336.24,165.5" style="stroke: #A80036; stroke-width: 1.0;"/><text fill="#000000" font-family="sans-serif" font-size="13" lengthAdjust="spacingAndGlyphs" textLength="50" x="330.9742" y="160.959">rotation</text><!--MD5=[0e986b67136a5340d95fdb8640fa7330]
link Transform to Transform--><path d="M347.8324,146.6226 C347.8324,146.6226 371,157.19 371,165.5 C371,173.81 362.55,180.03 348.84,184.15 " fill="none" id="Transform-Transform" style="stroke: #A80036; stroke-width: 1.0;"/><polygon fill="#A80036" points="336.15,187.12,345.826,188.9572,341.0177,185.9773,343.9976,181.1689,336.15,187.12" style="stroke: #A80036; stroke-width: 1.0;"/><line style="stroke: #A80036; stroke-width: 1.0;" x1="341.0177" x2="348.81" y1="185.9773" y2="184.16"/><polygon fill="#FFFFFF" points="336.15,143.88,341.077,149.1454,347.8324,146.6226,342.9054,141.3572,336.15,143.88" style="stroke: #A80036; stroke-width: 1.0;"/><text fill="#000000" font-family="sans-serif" font-size="13" lengthAdjust="spacingAndGlyphs" textLength="42" x="338.9644" y="185.7738">parent</text><!--MD5=[5b1888f5fcd11df140a90e347e78176d]
@startuml
class Transform {
    + <<override>> IsExclusiveComponent : bool <<get>> = true
    + SetParent(parent:Transform) : void
    + TRS() : Matrix4
    + LocalTRS() : Matrix4
}
class "Component`1"<T> {
}
"Component`1" "<Transform>" <|- - Transform
Transform o-> "position" Vector3
Transform o-> "rotation" Quaternion
Transform o-> "scale" Vector3
Transform o-> "parent" Transform
@enduml

PlantUML version 1.2020.02(Sun Mar 01 10:22:07 GMT 2020)
(GPL source distribution)
Java Runtime: OpenJDK Runtime Environment
JVM: OpenJDK 64-Bit Server VM
Java Version: 11.0.9+11-Ubuntu-0ubuntu1
Operating System: Linux
Default Encoding: ANSI_X3.4-1968
Language: en
Country: US
--></g></svg>