<?xml version="1.0" encoding="UTF-8" standalone="no"?><svg xmlns="http://www.w3.org/2000/svg" xmlns:xlink="http://www.w3.org/1999/xlink" contentScriptType="application/ecmascript" contentStyleType="text/css" height="373px" preserveAspectRatio="none" style="width:716px;height:373px;" version="1.1" viewBox="0 0 716 373" width="716px" zoomAndPan="magnify"><defs><filter height="300%" id="f1942rq97xosyy" width="300%" x="-1" y="-1"><feGaussianBlur result="blurOut" stdDeviation="2.0"/><feColorMatrix in="blurOut" result="blurOut2" type="matrix" values="0 0 0 0 0 0 0 0 0 0 0 0 0 0 0 0 0 0 .4 0"/><feOffset dx="4.0" dy="4.0" in="blurOut2" result="blurOut3"/><feBlend in="SourceGraphic" in2="blurOut3" mode="normal"/></filter></defs><g><!--MD5=[66ca1e43504aa061b5d2edf025fab0a2]
class SerializedMaterial--><rect fill="#FEFECE" filter="url(#f1942rq97xosyy)" height="79.5469" id="SerializedMaterial" style="stroke: #A80036; stroke-width: 1.5;" width="144" x="326" y="8"/><ellipse cx="342.35" cy="26.9688" fill="#ADD1B2" rx="11" ry="11" style="stroke: #A80036; stroke-width: 1.0;"/><path d="M345.3188,32.6094 Q344.7406,32.9063 344.1,33.0469 Q343.4594,33.2031 342.7563,33.2031 Q340.2563,33.2031 338.9281,31.5625 Q337.6156,29.9063 337.6156,26.7813 Q337.6156,23.6563 338.9281,22 Q340.2563,20.3438 342.7563,20.3438 Q343.4594,20.3438 344.1,20.5 Q344.7563,20.6563 345.3188,20.9531 L345.3188,23.6719 Q344.6938,23.0938 344.1,22.8281 Q343.5063,22.5469 342.8813,22.5469 Q341.5375,22.5469 340.85,23.625 Q340.1625,24.6875 340.1625,26.7813 Q340.1625,28.875 340.85,29.9531 Q341.5375,31.0156 342.8813,31.0156 Q343.5063,31.0156 344.1,30.75 Q344.6938,30.4688 345.3188,29.8906 L345.3188,32.6094 Z "/><text fill="#000000" font-family="sans-serif" font-size="12" font-style="italic" lengthAdjust="spacingAndGlyphs" textLength="50" x="386.15" y="24.1387">«struct»</text><text fill="#000000" font-family="sans-serif" font-size="12" lengthAdjust="spacingAndGlyphs" textLength="109" x="356.65" y="38.1074">SerializedMaterial</text><line style="stroke: #A80036; stroke-width: 1.5;" x1="327" x2="469" y1="45.9375" y2="45.9375"/><ellipse cx="337" cy="56.9375" fill="none" rx="3" ry="3" style="stroke: #038048; stroke-width: 1.0;"/><text fill="#000000" font-family="sans-serif" font-size="11" lengthAdjust="spacingAndGlyphs" textLength="118" x="346" y="60.1479">shaderName : string</text><ellipse cx="337" cy="69.7422" fill="none" rx="3" ry="3" style="stroke: #038048; stroke-width: 1.0;"/><text fill="#000000" font-family="sans-serif" font-size="11" lengthAdjust="spacingAndGlyphs" textLength="85" x="346" y="72.9526">shader : string</text><line style="stroke: #A80036; stroke-width: 1.5;" x1="327" x2="469" y1="79.5469" y2="79.5469"/><!--MD5=[784050c8d51d584d6be7815bc65af218]
class GLMaterial--><rect fill="#FEFECE" filter="url(#f1942rq97xosyy)" height="214.4609" id="GLMaterial" style="stroke: #A80036; stroke-width: 1.5;" width="420" x="6" y="148"/><ellipse cx="179.25" cy="164" fill="#ADD1B2" rx="11" ry="11" style="stroke: #A80036; stroke-width: 1.0;"/><path d="M182.2188,169.6406 Q181.6406,169.9375 181,170.0781 Q180.3594,170.2344 179.6563,170.2344 Q177.1563,170.2344 175.8281,168.5938 Q174.5156,166.9375 174.5156,163.8125 Q174.5156,160.6875 175.8281,159.0313 Q177.1563,157.375 179.6563,157.375 Q180.3594,157.375 181,157.5313 Q181.6563,157.6875 182.2188,157.9844 L182.2188,160.7031 Q181.5938,160.125 181,159.8594 Q180.4063,159.5781 179.7813,159.5781 Q178.4375,159.5781 177.75,160.6563 Q177.0625,161.7188 177.0625,163.8125 Q177.0625,165.9063 177.75,166.9844 Q178.4375,168.0469 179.7813,168.0469 Q180.4063,168.0469 181,167.7813 Q181.5938,167.5 182.2188,166.9219 L182.2188,169.6406 Z "/><text fill="#000000" font-family="sans-serif" font-size="12" lengthAdjust="spacingAndGlyphs" textLength="65" x="199.75" y="168.1543">GLMaterial</text><line style="stroke: #A80036; stroke-width: 1.5;" x1="7" x2="425" y1="180" y2="180"/><ellipse cx="17" cy="191" fill="none" rx="3" ry="3" style="stroke: #038048; stroke-width: 1.0;"/><text fill="#000000" font-family="sans-serif" font-size="11" lengthAdjust="spacingAndGlyphs" textLength="144" x="26" y="194.2104">shader : OpenGLShader?</text><line style="stroke: #A80036; stroke-width: 1.5;" x1="7" x2="425" y1="200.8047" y2="200.8047"/><ellipse cx="17" cy="211.8047" fill="#84BE84" rx="3" ry="3" style="stroke: #038048; stroke-width: 1.0;"/><text fill="#000000" font-family="sans-serif" font-size="11" lengthAdjust="spacingAndGlyphs" textLength="178" x="26" y="215.0151">GLMaterial(shaderName:string)</text><ellipse cx="17" cy="224.6094" fill="#84BE84" rx="3" ry="3" style="stroke: #038048; stroke-width: 1.0;"/><text fill="#000000" font-family="sans-serif" font-size="11" lengthAdjust="spacingAndGlyphs" textLength="198" x="26" y="227.8198">GLMaterial(shader:OpenGLShader)</text><ellipse cx="17" cy="237.4141" fill="#84BE84" rx="3" ry="3" style="stroke: #038048; stroke-width: 1.0;"/><text fill="#000000" font-family="sans-serif" font-size="11" lengthAdjust="spacingAndGlyphs" textLength="81" x="26" y="240.6245">Enable() : void</text><ellipse cx="17" cy="250.2188" fill="#84BE84" rx="3" ry="3" style="stroke: #038048; stroke-width: 1.0;"/><text fill="#000000" font-family="sans-serif" font-size="11" lengthAdjust="spacingAndGlyphs" textLength="166" x="26" y="253.4292">«override» Serialize() : string</text><ellipse cx="17" cy="263.0234" fill="#84BE84" rx="3" ry="3" style="stroke: #038048; stroke-width: 1.0;"/><text fill="#000000" font-family="sans-serif" font-size="11" lengthAdjust="spacingAndGlyphs" textLength="232" x="26" y="266.2339">«override» Deserialize(data:string) : void</text><ellipse cx="17" cy="275.8281" fill="#84BE84" rx="3" ry="3" style="stroke: #038048; stroke-width: 1.0;"/><text fill="#000000" font-family="sans-serif" font-size="11" lengthAdjust="spacingAndGlyphs" textLength="368" x="26" y="279.0386">SetStructArray(name:string, countName:string, values:T[]) : void</text><ellipse cx="17" cy="288.6328" fill="#84BE84" rx="3" ry="3" style="stroke: #038048; stroke-width: 1.0;"/><text fill="#000000" font-family="sans-serif" font-size="11" lengthAdjust="spacingAndGlyphs" textLength="356" x="26" y="291.8433">SetStruct(name:string, value:T, suppressWarnings:bool) : void</text><ellipse cx="17" cy="301.4375" fill="#84BE84" rx="3" ry="3" style="stroke: #038048; stroke-width: 1.0;"/><text fill="#000000" font-family="sans-serif" font-size="11" lengthAdjust="spacingAndGlyphs" textLength="390" x="26" y="304.6479">SetMatrix4(name:string, value:Matrix4, supressWarnings:bool) : void</text><ellipse cx="17" cy="314.2422" fill="#84BE84" rx="3" ry="3" style="stroke: #038048; stroke-width: 1.0;"/><text fill="#000000" font-family="sans-serif" font-size="11" lengthAdjust="spacingAndGlyphs" textLength="394" x="26" y="317.4526">SetVector3(name:string, value:Vector3, supressWarnings:bool) : void</text><ellipse cx="17" cy="327.0469" fill="#84BE84" rx="3" ry="3" style="stroke: #038048; stroke-width: 1.0;"/><text fill="#000000" font-family="sans-serif" font-size="11" lengthAdjust="spacingAndGlyphs" textLength="259" x="26" y="330.2573">SetVector2(name:string, value:Vector2) : void</text><ellipse cx="17" cy="339.8516" fill="#84BE84" rx="3" ry="3" style="stroke: #038048; stroke-width: 1.0;"/><text fill="#000000" font-family="sans-serif" font-size="11" lengthAdjust="spacingAndGlyphs" textLength="360" x="26" y="343.062">SetFloat(name:string, value:float, supressWarnings:bool) : void</text><ellipse cx="17" cy="352.6563" fill="#84BE84" rx="3" ry="3" style="stroke: #038048; stroke-width: 1.0;"/><text fill="#000000" font-family="sans-serif" font-size="11" lengthAdjust="spacingAndGlyphs" textLength="336" x="26" y="355.8667">SetInt(name:string, value:int, supressWarnings:bool) : void</text><!--MD5=[e644022de7dea015dd09463c37421447]
class List`1--><rect fill="#FEFECE" filter="url(#f1942rq97xosyy)" height="48" id="List`1" style="stroke: #A80036; stroke-width: 1.5;" width="78" x="461" y="231"/><ellipse cx="476" cy="247" fill="#ADD1B2" rx="11" ry="11" style="stroke: #A80036; stroke-width: 1.0;"/><path d="M478.9688,252.6406 Q478.3906,252.9375 477.75,253.0781 Q477.1094,253.2344 476.4063,253.2344 Q473.9063,253.2344 472.5781,251.5938 Q471.2656,249.9375 471.2656,246.8125 Q471.2656,243.6875 472.5781,242.0313 Q473.9063,240.375 476.4063,240.375 Q477.1094,240.375 477.75,240.5313 Q478.4063,240.6875 478.9688,240.9844 L478.9688,243.7031 Q478.3438,243.125 477.75,242.8594 Q477.1563,242.5781 476.5313,242.5781 Q475.1875,242.5781 474.5,243.6563 Q473.8125,244.7188 473.8125,246.8125 Q473.8125,248.9063 474.5,249.9844 Q475.1875,251.0469 476.5313,251.0469 Q477.1563,251.0469 477.75,250.7813 Q478.3438,250.5 478.9688,249.9219 L478.9688,252.6406 Z "/><text fill="#000000" font-family="sans-serif" font-size="12" lengthAdjust="spacingAndGlyphs" textLength="35" x="490" y="251.1543">List`1</text><rect fill="#FFFFFF" height="15.9688" style="stroke: #000000; stroke-width: 1.0; stroke-dasharray: 2.0,2.0;" width="9" x="533" y="228"/><text fill="#000000" font-family="sans-serif" font-size="12" font-style="italic" lengthAdjust="spacingAndGlyphs" textLength="7" x="534" y="240.1387">T</text><line style="stroke: #A80036; stroke-width: 1.5;" x1="462" x2="538" y1="263" y2="263"/><line style="stroke: #A80036; stroke-width: 1.5;" x1="462" x2="538" y1="271" y2="271"/><!--MD5=[327a4fcb77f7980e305b37dbaa2664ff]
class SerializeableObject--><rect fill="#FEFECE" filter="url(#f1942rq97xosyy)" height="48" id="SerializeableObject" style="stroke: #A80036; stroke-width: 1.5;" width="150" x="141" y="24"/><ellipse cx="156" cy="40" fill="#ADD1B2" rx="11" ry="11" style="stroke: #A80036; stroke-width: 1.0;"/><path d="M158.9688,45.6406 Q158.3906,45.9375 157.75,46.0781 Q157.1094,46.2344 156.4063,46.2344 Q153.9063,46.2344 152.5781,44.5938 Q151.2656,42.9375 151.2656,39.8125 Q151.2656,36.6875 152.5781,35.0313 Q153.9063,33.375 156.4063,33.375 Q157.1094,33.375 157.75,33.5313 Q158.4063,33.6875 158.9688,33.9844 L158.9688,36.7031 Q158.3438,36.125 157.75,35.8594 Q157.1563,35.5781 156.5313,35.5781 Q155.1875,35.5781 154.5,36.6563 Q153.8125,37.7188 153.8125,39.8125 Q153.8125,41.9063 154.5,42.9844 Q155.1875,44.0469 156.5313,44.0469 Q157.1563,44.0469 157.75,43.7813 Q158.3438,43.5 158.9688,42.9219 L158.9688,45.6406 Z "/><text fill="#000000" font-family="sans-serif" font-size="12" lengthAdjust="spacingAndGlyphs" textLength="118" x="170" y="44.1543">SerializeableObject</text><line style="stroke: #A80036; stroke-width: 1.5;" x1="142" x2="290" y1="56" y2="56"/><line style="stroke: #A80036; stroke-width: 1.5;" x1="142" x2="290" y1="64" y2="64"/><!--MD5=[e6e879fa3f839e4ab726d20c9679b676]
reverse link SerializeableObject to GLMaterial--><path d="M216,92.22 C216,108.55 216,127.94 216,147.53 " fill="none" id="SerializeableObject&lt;-GLMaterial" style="stroke: #A80036; stroke-width: 1.0;"/><polygon fill="none" points="209,92.12,216,72.12,223,92.12,209,92.12" style="stroke: #A80036; stroke-width: 1.0;"/><!--MD5=[163667fbe9d15bc03056afc9de1cb12b]
link GLMaterial to List`1--><path d="M438.23,255 C438.23,255 445.02,255 447.8,255 " fill="none" id="GLMaterial-List`1" style="stroke: #A80036; stroke-width: 1.0;"/><polygon fill="#A80036" points="460.81,255,451.81,251,455.81,255,451.81,259,460.81,255" style="stroke: #A80036; stroke-width: 1.0;"/><line style="stroke: #A80036; stroke-width: 1.0;" x1="455.81" x2="447.81" y1="255" y2="255"/><polygon fill="#FFFFFF" points="426.23,255,432.23,259,438.23,255,432.23,251,426.23,255" style="stroke: #A80036; stroke-width: 1.0;"/><text fill="#000000" font-family="sans-serif" font-size="13" lengthAdjust="spacingAndGlyphs" textLength="158" x="546.4015" y="236.0847">textures&lt;GLTexture2D&gt;</text><!--MD5=[547d3e37b3d22be34e341ec6f046d5cd]
@startuml
class SerializedMaterial <<struct>> {
    + shaderName : string
    + shader : string
}
class GLMaterial {
    + shader : OpenGLShader?
    + GLMaterial(shaderName:string)
    + GLMaterial(shader:OpenGLShader)
    + Enable() : void
    + <<override>> Serialize() : string
    + <<override>> Deserialize(data:string) : void
    + SetStructArray(name:string, countName:string, values:T[]) : void
    + SetStruct(name:string, value:T, suppressWarnings:bool) : void
    + SetMatrix4(name:string, value:Matrix4, supressWarnings:bool) : void
    + SetVector3(name:string, value:Vector3, supressWarnings:bool) : void
    + SetVector2(name:string, value:Vector2) : void
    + SetFloat(name:string, value:float, supressWarnings:bool) : void
    + SetInt(name:string, value:int, supressWarnings:bool) : void
}
class "List`1"<T> {
}
SerializeableObject <|- - GLMaterial
GLMaterial o-> "textures<GLTexture2D>" "List`1"
@enduml

PlantUML version 1.2020.02(Sun Mar 01 10:22:07 GMT 2020)
(GPL source distribution)
Java Runtime: OpenJDK Runtime Environment
JVM: OpenJDK 64-Bit Server VM
Java Version: 11.0.9+11-Ubuntu-0ubuntu1
Operating System: Linux
Default Encoding: ANSI_X3.4-1968
Language: en
Country: US
--></g></svg>