<?xml version="1.0" encoding="UTF-8" standalone="no"?><svg xmlns="http://www.w3.org/2000/svg" xmlns:xlink="http://www.w3.org/1999/xlink" contentScriptType="application/ecmascript" contentStyleType="text/css" height="398px" preserveAspectRatio="none" style="width:275px;height:398px;" version="1.1" viewBox="0 0 275 398" width="275px" zoomAndPan="magnify"><defs><filter height="300%" id="f1rz6agjb7acra" width="300%" x="-1" y="-1"><feGaussianBlur result="blurOut" stdDeviation="2.0"/><feColorMatrix in="blurOut" result="blurOut2" type="matrix" values="0 0 0 0 0 0 0 0 0 0 0 0 0 0 0 0 0 0 .4 0"/><feOffset dx="4.0" dy="4.0" in="blurOut2" result="blurOut3"/><feBlend in="SourceGraphic" in2="blurOut3" mode="normal"/></filter></defs><g><!--MD5=[6a31f4c13bd069d97c8a9ac61c73b599]
class GLMesh--><rect fill="#FEFECE" filter="url(#f1rz6agjb7acra)" height="163.2422" id="GLMesh" style="stroke: #A80036; stroke-width: 1.5;" width="258" x="6" y="116"/><ellipse cx="106.75" cy="132" fill="#ADD1B2" rx="11" ry="11" style="stroke: #A80036; stroke-width: 1.0;"/><path d="M109.7188,137.6406 Q109.1406,137.9375 108.5,138.0781 Q107.8594,138.2344 107.1563,138.2344 Q104.6563,138.2344 103.3281,136.5938 Q102.0156,134.9375 102.0156,131.8125 Q102.0156,128.6875 103.3281,127.0313 Q104.6563,125.375 107.1563,125.375 Q107.8594,125.375 108.5,125.5313 Q109.1563,125.6875 109.7188,125.9844 L109.7188,128.7031 Q109.0938,128.125 108.5,127.8594 Q107.9063,127.5781 107.2813,127.5781 Q105.9375,127.5781 105.25,128.6563 Q104.5625,129.7188 104.5625,131.8125 Q104.5625,133.9063 105.25,134.9844 Q105.9375,136.0469 107.2813,136.0469 Q107.9063,136.0469 108.5,135.7813 Q109.0938,135.5 109.7188,134.9219 L109.7188,137.6406 Z "/><text fill="#000000" font-family="sans-serif" font-size="12" lengthAdjust="spacingAndGlyphs" textLength="48" x="127.25" y="136.1543">GLMesh</text><line style="stroke: #A80036; stroke-width: 1.5;" x1="7" x2="263" y1="148" y2="148"/><ellipse cx="17" cy="159" fill="none" rx="3" ry="3" style="stroke: #038048; stroke-width: 1.0;"/><text fill="#000000" font-family="sans-serif" font-size="11" lengthAdjust="spacingAndGlyphs" textLength="163" x="26" y="162.2104">name : string = "new mesh"</text><line style="stroke: #A80036; stroke-width: 1.5;" x1="7" x2="263" y1="168.8047" y2="168.8047"/><ellipse cx="17" cy="179.8047" fill="#84BE84" rx="3" ry="3" style="stroke: #038048; stroke-width: 1.0;"/><text fill="#000000" font-family="sans-serif" font-size="11" lengthAdjust="spacingAndGlyphs" textLength="53" x="26" y="183.0151">GLMesh()</text><ellipse cx="17" cy="192.6094" fill="#84BE84" rx="3" ry="3" style="stroke: #038048; stroke-width: 1.0;"/><text fill="#000000" font-family="sans-serif" font-size="11" lengthAdjust="spacingAndGlyphs" textLength="190" x="26" y="195.8198">SetVertices(vertices:float[]) : void</text><ellipse cx="17" cy="205.4141" fill="#84BE84" rx="3" ry="3" style="stroke: #038048; stroke-width: 1.0;"/><text fill="#000000" font-family="sans-serif" font-size="11" lengthAdjust="spacingAndGlyphs" textLength="168" x="26" y="208.6245">SetIndices(indices:int[]) : void</text><ellipse cx="17" cy="218.2188" fill="#84BE84" rx="3" ry="3" style="stroke: #038048; stroke-width: 1.0;"/><text fill="#000000" font-family="sans-serif" font-size="11" lengthAdjust="spacingAndGlyphs" textLength="142" x="26" y="221.4292">SetUVS(uvs:float[]) : void</text><ellipse cx="17" cy="231.0234" fill="#84BE84" rx="3" ry="3" style="stroke: #038048; stroke-width: 1.0;"/><text fill="#000000" font-family="sans-serif" font-size="11" lengthAdjust="spacingAndGlyphs" textLength="194" x="26" y="234.2339">SetNormals(normals:float[]) : void</text><ellipse cx="17" cy="243.8281" fill="#84BE84" rx="3" ry="3" style="stroke: #038048; stroke-width: 1.0;"/><text fill="#000000" font-family="sans-serif" font-size="11" lengthAdjust="spacingAndGlyphs" textLength="207" x="26" y="247.0386">SetVertexColors(colors:float[]) : void</text><ellipse cx="17" cy="256.6328" fill="#84BE84" rx="3" ry="3" style="stroke: #038048; stroke-width: 1.0;"/><text fill="#000000" font-family="sans-serif" font-size="11" lengthAdjust="spacingAndGlyphs" textLength="166" x="26" y="259.8433">«override» Serialize() : string</text><ellipse cx="17" cy="269.4375" fill="#84BE84" rx="3" ry="3" style="stroke: #038048; stroke-width: 1.0;"/><text fill="#000000" font-family="sans-serif" font-size="11" lengthAdjust="spacingAndGlyphs" textLength="232" x="26" y="272.6479">«override» Deserialize(data:string) : void</text><!--MD5=[327a4fcb77f7980e305b37dbaa2664ff]
class SerializeableObject--><rect fill="#FEFECE" filter="url(#f1rz6agjb7acra)" height="48" id="SerializeableObject" style="stroke: #A80036; stroke-width: 1.5;" width="150" x="60" y="8"/><ellipse cx="75" cy="24" fill="#ADD1B2" rx="11" ry="11" style="stroke: #A80036; stroke-width: 1.0;"/><path d="M77.9688,29.6406 Q77.3906,29.9375 76.75,30.0781 Q76.1094,30.2344 75.4063,30.2344 Q72.9063,30.2344 71.5781,28.5938 Q70.2656,26.9375 70.2656,23.8125 Q70.2656,20.6875 71.5781,19.0313 Q72.9063,17.375 75.4063,17.375 Q76.1094,17.375 76.75,17.5313 Q77.4063,17.6875 77.9688,17.9844 L77.9688,20.7031 Q77.3438,20.125 76.75,19.8594 Q76.1563,19.5781 75.5313,19.5781 Q74.1875,19.5781 73.5,20.6563 Q72.8125,21.7188 72.8125,23.8125 Q72.8125,25.9063 73.5,26.9844 Q74.1875,28.0469 75.5313,28.0469 Q76.1563,28.0469 76.75,27.7813 Q77.3438,27.5 77.9688,26.9219 L77.9688,29.6406 Z "/><text fill="#000000" font-family="sans-serif" font-size="12" lengthAdjust="spacingAndGlyphs" textLength="118" x="89" y="28.1543">SerializeableObject</text><line style="stroke: #A80036; stroke-width: 1.5;" x1="61" x2="209" y1="40" y2="40"/><line style="stroke: #A80036; stroke-width: 1.5;" x1="61" x2="209" y1="48" y2="48"/><!--MD5=[7ca1d4abe2da3e9abb04c549a75fe4b0]
class GLMeshData--><rect fill="#FEFECE" filter="url(#f1rz6agjb7acra)" height="48" id="GLMeshData" style="stroke: #A80036; stroke-width: 1.5;" width="110" x="80" y="339"/><ellipse cx="95" cy="355" fill="#ADD1B2" rx="11" ry="11" style="stroke: #A80036; stroke-width: 1.0;"/><path d="M97.9688,360.6406 Q97.3906,360.9375 96.75,361.0781 Q96.1094,361.2344 95.4063,361.2344 Q92.9063,361.2344 91.5781,359.5938 Q90.2656,357.9375 90.2656,354.8125 Q90.2656,351.6875 91.5781,350.0313 Q92.9063,348.375 95.4063,348.375 Q96.1094,348.375 96.75,348.5313 Q97.4063,348.6875 97.9688,348.9844 L97.9688,351.7031 Q97.3438,351.125 96.75,350.8594 Q96.1563,350.5781 95.5313,350.5781 Q94.1875,350.5781 93.5,351.6563 Q92.8125,352.7188 92.8125,354.8125 Q92.8125,356.9063 93.5,357.9844 Q94.1875,359.0469 95.5313,359.0469 Q96.1563,359.0469 96.75,358.7813 Q97.3438,358.5 97.9688,357.9219 L97.9688,360.6406 Z "/><text fill="#000000" font-family="sans-serif" font-size="12" lengthAdjust="spacingAndGlyphs" textLength="78" x="109" y="359.1543">GLMeshData</text><line style="stroke: #A80036; stroke-width: 1.5;" x1="81" x2="189" y1="371" y2="371"/><line style="stroke: #A80036; stroke-width: 1.5;" x1="81" x2="189" y1="379" y2="379"/><!--MD5=[3de015dbd96d61df45ef90f8571822f2]
reverse link SerializeableObject to GLMesh--><path d="M135,76.19 C135,88.45 135,102.21 135,115.93 " fill="none" id="SerializeableObject&lt;-GLMesh" style="stroke: #A80036; stroke-width: 1.0;"/><polygon fill="none" points="128,76.08,135,56.08,142,76.08,128,76.08" style="stroke: #A80036; stroke-width: 1.0;"/><!--MD5=[30200f6d7972162abfcbcfc8b5051b24]
link GLMesh to GLMeshData--><path d="M135,279.29 C135,298.78 135,318.34 135,333.55 " fill="none" id="GLMesh-&gt;GLMeshData" style="stroke: #A80036; stroke-width: 1.0;"/><polygon fill="#A80036" points="135,338.94,139,329.94,135,333.94,131,329.94,135,338.94" style="stroke: #A80036; stroke-width: 1.0;"/><text fill="#000000" font-family="sans-serif" font-size="13" lengthAdjust="spacingAndGlyphs" textLength="79" x="45.8781" y="327.9367">RenderMesh</text><!--MD5=[56d0ea9d7e513085f01ab874c6bd6a49]
@startuml
class GLMesh {
    + name : string = "new mesh"
    + GLMesh()
    + SetVertices(vertices:float[]) : void
    + SetIndices(indices:int[]) : void
    + SetUVS(uvs:float[]) : void
    + SetNormals(normals:float[]) : void
    + SetVertexColors(colors:float[]) : void
    + <<override>> Serialize() : string
    + <<override>> Deserialize(data:string) : void
}
SerializeableObject <|- - GLMesh
GLMesh - -> "RenderMesh" GLMeshData
@enduml

PlantUML version 1.2020.02(Sun Mar 01 10:22:07 GMT 2020)
(GPL source distribution)
Java Runtime: OpenJDK Runtime Environment
JVM: OpenJDK 64-Bit Server VM
Java Version: 11.0.9+11-Ubuntu-0ubuntu1
Operating System: Linux
Default Encoding: ANSI_X3.4-1968
Language: en
Country: US
--></g></svg>