<?xml version="1.0" encoding="UTF-8" standalone="no"?><svg xmlns="http://www.w3.org/2000/svg" xmlns:xlink="http://www.w3.org/1999/xlink" contentScriptType="application/ecmascript" contentStyleType="text/css" height="131px" preserveAspectRatio="none" style="width:755px;height:131px;" version="1.1" viewBox="0 0 755 131" width="755px" zoomAndPan="magnify"><defs><filter height="300%" id="f1q66ysczr8zwf" width="300%" x="-1" y="-1"><feGaussianBlur result="blurOut" stdDeviation="2.0"/><feColorMatrix in="blurOut" result="blurOut2" type="matrix" values="0 0 0 0 0 0 0 0 0 0 0 0 0 0 0 0 0 0 .4 0"/><feOffset dx="4.0" dy="4.0" in="blurOut2" result="blurOut3"/><feBlend in="SourceGraphic" in2="blurOut3" mode="normal"/></filter></defs><g><!--MD5=[facb26d7dd002e0c606719f39872ef33]
class GLMeshDataInfo--><rect fill="#FEFECE" filter="url(#f1q66ysczr8zwf)" height="112.0234" id="GLMeshDataInfo" style="stroke: #A80036; stroke-width: 1.5;" width="138" x="6" y="8"/><ellipse cx="23.25" cy="24" fill="#EB937F" rx="11" ry="11" style="stroke: #A80036; stroke-width: 1.0;"/><path d="M27.3594,30 L19.6406,30 L19.6406,17.6094 L27.3594,17.6094 L27.3594,19.7656 L22.0938,19.7656 L22.0938,22.4375 L26.8594,22.4375 L26.8594,24.5938 L22.0938,24.5938 L22.0938,27.8438 L27.3594,27.8438 L27.3594,30 Z "/><text fill="#000000" font-family="sans-serif" font-size="12" lengthAdjust="spacingAndGlyphs" textLength="101" x="37.75" y="28.1543">GLMeshDataInfo</text><line style="stroke: #A80036; stroke-width: 1.5;" x1="7" x2="143" y1="40" y2="40"/><text fill="#000000" font-family="sans-serif" font-size="11" lengthAdjust="spacingAndGlyphs" textLength="99" x="12" y="54.2104">HasVertecies= 1,</text><text fill="#000000" font-family="sans-serif" font-size="11" lengthAdjust="spacingAndGlyphs" textLength="86" x="12" y="67.0151">HasIndices= 2,</text><text fill="#000000" font-family="sans-serif" font-size="11" lengthAdjust="spacingAndGlyphs" textLength="68" x="12" y="79.8198">HasUVs= 4,</text><text fill="#000000" font-family="sans-serif" font-size="11" lengthAdjust="spacingAndGlyphs" textLength="94" x="12" y="92.6245">HasNormals= 8,</text><text fill="#000000" font-family="sans-serif" font-size="11" lengthAdjust="spacingAndGlyphs" textLength="126" x="12" y="105.4292">HasVertexColors= 16,</text><line style="stroke: #A80036; stroke-width: 1.5;" x1="7" x2="143" y1="112.0234" y2="112.0234"/><!--MD5=[7ca1d4abe2da3e9abb04c549a75fe4b0]
class GLMeshData--><rect fill="#FEFECE" filter="url(#f1q66ysczr8zwf)" height="105.1563" id="GLMeshData" style="stroke: #A80036; stroke-width: 1.5;" width="565" x="179.5" y="11.5"/><ellipse cx="418.75" cy="30.4688" fill="#ADD1B2" rx="11" ry="11" style="stroke: #A80036; stroke-width: 1.0;"/><path d="M421.7188,36.1094 Q421.1406,36.4063 420.5,36.5469 Q419.8594,36.7031 419.1563,36.7031 Q416.6563,36.7031 415.3281,35.0625 Q414.0156,33.4063 414.0156,30.2813 Q414.0156,27.1563 415.3281,25.5 Q416.6563,23.8438 419.1563,23.8438 Q419.8594,23.8438 420.5,24 Q421.1563,24.1563 421.7188,24.4531 L421.7188,27.1719 Q421.0938,26.5938 420.5,26.3281 Q419.9063,26.0469 419.2813,26.0469 Q417.9375,26.0469 417.25,27.125 Q416.5625,28.1875 416.5625,30.2813 Q416.5625,32.375 417.25,33.4531 Q417.9375,34.5156 419.2813,34.5156 Q419.9063,34.5156 420.5,34.25 Q421.0938,33.9688 421.7188,33.3906 L421.7188,36.1094 Z "/><text fill="#000000" font-family="sans-serif" font-size="12" font-style="italic" lengthAdjust="spacingAndGlyphs" textLength="50" x="453.25" y="27.6387">«struct»</text><text fill="#000000" font-family="sans-serif" font-size="12" lengthAdjust="spacingAndGlyphs" textLength="78" x="439.25" y="41.6074">GLMeshData</text><line style="stroke: #A80036; stroke-width: 1.5;" x1="180.5" x2="743.5" y1="49.4375" y2="49.4375"/><line style="stroke: #A80036; stroke-width: 1.5;" x1="180.5" x2="743.5" y1="57.4375" y2="57.4375"/><ellipse cx="190.5" cy="68.4375" fill="#84BE84" rx="3" ry="3" style="stroke: #038048; stroke-width: 1.0;"/><text fill="#000000" font-family="sans-serif" font-size="11" lengthAdjust="spacingAndGlyphs" textLength="539" x="199.5" y="71.6479">GLMeshData(vertices:float[]?, indices:int[]?, uvs:float[]?, normals:float[]?, vertexColors:float[]?)</text><ellipse cx="190.5" cy="81.2422" fill="#84BE84" rx="3" ry="3" style="stroke: #038048; stroke-width: 1.0;"/><text fill="#000000" font-family="sans-serif" font-size="11" lengthAdjust="spacingAndGlyphs" textLength="141" x="199.5" y="84.4526">GetMeshDataInfo() : byte</text><ellipse cx="190.5" cy="94.0469" fill="#84BE84" rx="3" ry="3" style="stroke: #038048; stroke-width: 1.0;"/><text fill="#000000" font-family="sans-serif" font-size="11" lengthAdjust="spacingAndGlyphs" textLength="88" x="199.5" y="97.2573">GetStride() : int</text><ellipse cx="190.5" cy="106.8516" fill="#84BE84" rx="3" ry="3" style="stroke: #038048; stroke-width: 1.0;"/><text fill="#000000" font-family="sans-serif" font-size="11" lengthAdjust="spacingAndGlyphs" textLength="129" x="199.5" y="110.062">GetMeshData() : float[]</text><!--MD5=[de23fa34fc64d8f42219bceaae6227a3]
@startuml
enum GLMeshDataInfo {
    HasVertecies= 1,
    HasIndices= 2,
    HasUVs= 4,
    HasNormals= 8,
    HasVertexColors= 16,
}
class GLMeshData <<struct>> {
    + GLMeshData(vertices:float[]?, indices:int[]?, uvs:float[]?, normals:float[]?, vertexColors:float[]?)
    + GetMeshDataInfo() : byte
    + GetStride() : int
    + GetMeshData() : float[]
}
@enduml

PlantUML version 1.2020.02(Sun Mar 01 10:22:07 GMT 2020)
(GPL source distribution)
Java Runtime: OpenJDK Runtime Environment
JVM: OpenJDK 64-Bit Server VM
Java Version: 11.0.9+11-Ubuntu-0ubuntu1
Operating System: Linux
Default Encoding: ANSI_X3.4-1968
Language: en
Country: US
--></g></svg>