<?xml version="1.0" encoding="UTF-8" standalone="no"?><svg xmlns="http://www.w3.org/2000/svg" xmlns:xlink="http://www.w3.org/1999/xlink" contentScriptType="application/ecmascript" contentStyleType="text/css" height="251px" preserveAspectRatio="none" style="width:360px;height:251px;" version="1.1" viewBox="0 0 360 251" width="360px" zoomAndPan="magnify"><defs><filter height="300%" id="f1mnlrlss2t69j" width="300%" x="-1" y="-1"><feGaussianBlur result="blurOut" stdDeviation="2.0"/><feColorMatrix in="blurOut" result="blurOut2" type="matrix" values="0 0 0 0 0 0 0 0 0 0 0 0 0 0 0 0 0 0 .4 0"/><feOffset dx="4.0" dy="4.0" in="blurOut2" result="blurOut3"/><feBlend in="SourceGraphic" in2="blurOut3" mode="normal"/></filter></defs><g><!--MD5=[5e672b3150c28b3a5b8384e214cdade2]
class GLTexture2D--><rect fill="#FEFECE" filter="url(#f1mnlrlss2t69j)" height="124.8281" id="GLTexture2D" style="stroke: #A80036; stroke-width: 1.5;" width="343" x="6" y="116"/><ellipse cx="133.75" cy="132" fill="#ADD1B2" rx="11" ry="11" style="stroke: #A80036; stroke-width: 1.0;"/><path d="M136.7188,137.6406 Q136.1406,137.9375 135.5,138.0781 Q134.8594,138.2344 134.1563,138.2344 Q131.6563,138.2344 130.3281,136.5938 Q129.0156,134.9375 129.0156,131.8125 Q129.0156,128.6875 130.3281,127.0313 Q131.6563,125.375 134.1563,125.375 Q134.8594,125.375 135.5,125.5313 Q136.1563,125.6875 136.7188,125.9844 L136.7188,128.7031 Q136.0938,128.125 135.5,127.8594 Q134.9063,127.5781 134.2813,127.5781 Q132.9375,127.5781 132.25,128.6563 Q131.5625,129.7188 131.5625,131.8125 Q131.5625,133.9063 132.25,134.9844 Q132.9375,136.0469 134.2813,136.0469 Q134.9063,136.0469 135.5,135.7813 Q136.0938,135.5 136.7188,134.9219 L136.7188,137.6406 Z "/><text fill="#000000" font-family="sans-serif" font-size="12" lengthAdjust="spacingAndGlyphs" textLength="79" x="154.25" y="136.1543">GLTexture2D</text><line style="stroke: #A80036; stroke-width: 1.5;" x1="7" x2="348" y1="148" y2="148"/><line style="stroke: #A80036; stroke-width: 1.5;" x1="7" x2="348" y1="156" y2="156"/><ellipse cx="17" cy="167" fill="#84BE84" rx="3" ry="3" style="stroke: #038048; stroke-width: 1.0;"/><text fill="#000000" font-family="sans-serif" font-size="11" lengthAdjust="spacingAndGlyphs" textLength="143" x="26" y="170.2104">GLTexture2D(path:string)</text><ellipse cx="17" cy="179.8047" fill="#84BE84" rx="3" ry="3" style="stroke: #038048; stroke-width: 1.0;"/><text fill="#000000" font-family="sans-serif" font-size="11" lengthAdjust="spacingAndGlyphs" textLength="306" x="26" y="183.0151">SetFilterMode(mode:TextureMinFilter, bind:bool) : void</text><ellipse cx="17" cy="192.6094" fill="#84BE84" rx="3" ry="3" style="stroke: #038048; stroke-width: 1.0;"/><text fill="#000000" font-family="sans-serif" font-size="11" lengthAdjust="spacingAndGlyphs" textLength="317" x="26" y="195.8198">SetWrapMode(mode:TextureWrapMode, bind:bool) : void</text><ellipse cx="17" cy="205.4141" fill="#84BE84" rx="3" ry="3" style="stroke: #038048; stroke-width: 1.0;"/><text fill="#000000" font-family="sans-serif" font-size="11" lengthAdjust="spacingAndGlyphs" textLength="68" x="26" y="208.6245">Bind() : void</text><ellipse cx="17" cy="218.2188" fill="#84BE84" rx="3" ry="3" style="stroke: #038048; stroke-width: 1.0;"/><text fill="#000000" font-family="sans-serif" font-size="11" lengthAdjust="spacingAndGlyphs" textLength="166" x="26" y="221.4292">«override» Serialize() : string</text><ellipse cx="17" cy="231.0234" fill="#84BE84" rx="3" ry="3" style="stroke: #038048; stroke-width: 1.0;"/><text fill="#000000" font-family="sans-serif" font-size="11" lengthAdjust="spacingAndGlyphs" textLength="232" x="26" y="234.2339">«override» Deserialize(data:string) : void</text><!--MD5=[327a4fcb77f7980e305b37dbaa2664ff]
class SerializeableObject--><rect fill="#FEFECE" filter="url(#f1mnlrlss2t69j)" height="48" id="SerializeableObject" style="stroke: #A80036; stroke-width: 1.5;" width="150" x="102.5" y="8"/><ellipse cx="117.5" cy="24" fill="#ADD1B2" rx="11" ry="11" style="stroke: #A80036; stroke-width: 1.0;"/><path d="M120.4688,29.6406 Q119.8906,29.9375 119.25,30.0781 Q118.6094,30.2344 117.9063,30.2344 Q115.4063,30.2344 114.0781,28.5938 Q112.7656,26.9375 112.7656,23.8125 Q112.7656,20.6875 114.0781,19.0313 Q115.4063,17.375 117.9063,17.375 Q118.6094,17.375 119.25,17.5313 Q119.9063,17.6875 120.4688,17.9844 L120.4688,20.7031 Q119.8438,20.125 119.25,19.8594 Q118.6563,19.5781 118.0313,19.5781 Q116.6875,19.5781 116,20.6563 Q115.3125,21.7188 115.3125,23.8125 Q115.3125,25.9063 116,26.9844 Q116.6875,28.0469 118.0313,28.0469 Q118.6563,28.0469 119.25,27.7813 Q119.8438,27.5 120.4688,26.9219 L120.4688,29.6406 Z "/><text fill="#000000" font-family="sans-serif" font-size="12" lengthAdjust="spacingAndGlyphs" textLength="118" x="131.5" y="28.1543">SerializeableObject</text><line style="stroke: #A80036; stroke-width: 1.5;" x1="103.5" x2="251.5" y1="40" y2="40"/><line style="stroke: #A80036; stroke-width: 1.5;" x1="103.5" x2="251.5" y1="48" y2="48"/><!--MD5=[98a8a856b9de05a1e8dd0f39deece336]
reverse link SerializeableObject to GLTexture2D--><path d="M177.5,76.67 C177.5,89.05 177.5,102.77 177.5,115.99 " fill="none" id="SerializeableObject&lt;-GLTexture2D" style="stroke: #A80036; stroke-width: 1.0;"/><polygon fill="none" points="170.5,76.22,177.5,56.22,184.5,76.22,170.5,76.22" style="stroke: #A80036; stroke-width: 1.0;"/><!--MD5=[1d85f4e71e8e65137d774a59b1e82480]
@startuml
class GLTexture2D {
    + GLTexture2D(path:string)
    + SetFilterMode(mode:TextureMinFilter, bind:bool) : void
    + SetWrapMode(mode:TextureWrapMode, bind:bool) : void
    + Bind() : void
    + <<override>> Serialize() : string
    + <<override>> Deserialize(data:string) : void
}
SerializeableObject <|- - GLTexture2D
@enduml

PlantUML version 1.2020.02(Sun Mar 01 10:22:07 GMT 2020)
(GPL source distribution)
Java Runtime: OpenJDK Runtime Environment
JVM: OpenJDK 64-Bit Server VM
Java Version: 11.0.9+11-Ubuntu-0ubuntu1
Operating System: Linux
Default Encoding: ANSI_X3.4-1968
Language: en
Country: US
--></g></svg>