<?xml version="1.0" encoding="UTF-8" standalone="no"?><svg xmlns="http://www.w3.org/2000/svg" xmlns:xlink="http://www.w3.org/1999/xlink" contentScriptType="application/ecmascript" contentStyleType="text/css" height="398px" preserveAspectRatio="none" style="width:484px;height:398px;" version="1.1" viewBox="0 0 484 398" width="484px" zoomAndPan="magnify"><defs><filter height="300%" id="fyir8pjx7d0s9" width="300%" x="-1" y="-1"><feGaussianBlur result="blurOut" stdDeviation="2.0"/><feColorMatrix in="blurOut" result="blurOut2" type="matrix" values="0 0 0 0 0 0 0 0 0 0 0 0 0 0 0 0 0 0 .4 0"/><feOffset dx="4.0" dy="4.0" in="blurOut2" result="blurOut3"/><feBlend in="SourceGraphic" in2="blurOut3" mode="normal"/></filter></defs><g><!--MD5=[11e1994208a62efb129b03f8b3b8d955]
class OpenGLRenderer--><rect fill="#FEFECE" filter="url(#fyir8pjx7d0s9)" height="163.2422" id="OpenGLRenderer" style="stroke: #A80036; stroke-width: 1.5;" width="467" x="6" y="116"/><ellipse cx="182.25" cy="132" fill="#ADD1B2" rx="11" ry="11" style="stroke: #A80036; stroke-width: 1.0;"/><path d="M185.2188,137.6406 Q184.6406,137.9375 184,138.0781 Q183.3594,138.2344 182.6563,138.2344 Q180.1563,138.2344 178.8281,136.5938 Q177.5156,134.9375 177.5156,131.8125 Q177.5156,128.6875 178.8281,127.0313 Q180.1563,125.375 182.6563,125.375 Q183.3594,125.375 184,125.5313 Q184.6563,125.6875 185.2188,125.9844 L185.2188,128.7031 Q184.5938,128.125 184,127.8594 Q183.4063,127.5781 182.7813,127.5781 Q181.4375,127.5781 180.75,128.6563 Q180.0625,129.7188 180.0625,131.8125 Q180.0625,133.9063 180.75,134.9844 Q181.4375,136.0469 182.7813,136.0469 Q183.4063,136.0469 184,135.7813 Q184.5938,135.5 185.2188,134.9219 L185.2188,137.6406 Z "/><text fill="#000000" font-family="sans-serif" font-size="12" lengthAdjust="spacingAndGlyphs" textLength="106" x="202.75" y="136.1543">OpenGLRenderer</text><line style="stroke: #A80036; stroke-width: 1.5;" x1="7" x2="472" y1="148" y2="148"/><ellipse cx="17" cy="159" fill="none" rx="3" ry="3" style="stroke: #038048; stroke-width: 1.0;"/><text fill="#000000" font-family="sans-serif" font-size="11" lengthAdjust="spacingAndGlyphs" text-decoration="underline" textLength="229" x="26" y="162.2104">RenderSkyBox : bool «get» «set» = true</text><line style="stroke: #A80036; stroke-width: 1.5;" x1="7" x2="472" y1="168.8047" y2="168.8047"/><ellipse cx="17" cy="179.8047" fill="#84BE84" rx="3" ry="3" style="stroke: #038048; stroke-width: 1.0;"/><text fill="#000000" font-family="sans-serif" font-size="11" lengthAdjust="spacingAndGlyphs" textLength="441" x="26" y="183.0151">«override» OnResize(engineWindow:EngineWindow, width:int, height:int) : void</text><ellipse cx="17" cy="192.6094" fill="#84BE84" rx="3" ry="3" style="stroke: #038048; stroke-width: 1.0;"/><text fill="#000000" font-family="sans-serif" font-size="11" lengthAdjust="spacingAndGlyphs" textLength="270" x="26" y="195.8198">CreateShader(filePath:string) : OpenGLShader?</text><ellipse cx="17" cy="205.4141" fill="#84BE84" rx="3" ry="3" style="stroke: #038048; stroke-width: 1.0;"/><text fill="#000000" font-family="sans-serif" font-size="11" lengthAdjust="spacingAndGlyphs" text-decoration="underline" textLength="284" x="26" y="208.6245">AddShaderInternal(shader:OpenGLShader?) : void</text><ellipse cx="17" cy="218.2188" fill="#84BE84" rx="3" ry="3" style="stroke: #038048; stroke-width: 1.0;"/><text fill="#000000" font-family="sans-serif" font-size="11" lengthAdjust="spacingAndGlyphs" textLength="295" x="26" y="221.4292">«virtual» GetShader(name:string) : OpenGLShader?</text><ellipse cx="17" cy="231.0234" fill="#84BE84" rx="3" ry="3" style="stroke: #038048; stroke-width: 1.0;"/><text fill="#000000" font-family="sans-serif" font-size="11" lengthAdjust="spacingAndGlyphs" textLength="151" x="26" y="234.2339">«override» OnLoad() : void</text><ellipse cx="17" cy="243.8281" fill="#84BE84" rx="3" ry="3" style="stroke: #038048; stroke-width: 1.0;"/><text fill="#000000" font-family="sans-serif" font-size="11" lengthAdjust="spacingAndGlyphs" textLength="200" x="26" y="247.0386">«override» OnRenderFrame() : void</text><ellipse cx="17" cy="256.6328" fill="#84BE84" rx="3" ry="3" style="stroke: #038048; stroke-width: 1.0;"/><text fill="#000000" font-family="sans-serif" font-size="11" lengthAdjust="spacingAndGlyphs" textLength="166" x="26" y="259.8433">«override» OnUnLoad() : void</text><ellipse cx="17" cy="269.4375" fill="#84BE84" rx="3" ry="3" style="stroke: #038048; stroke-width: 1.0;"/><text fill="#000000" font-family="sans-serif" font-size="11" lengthAdjust="spacingAndGlyphs" text-decoration="underline" textLength="268" x="26" y="272.6479">GetShaderStatic(name:string) : OpenGLShader</text><!--MD5=[4945c737fad898a5ce312252f730d528]
class Renderer--><rect fill="#FEFECE" filter="url(#fyir8pjx7d0s9)" height="48" id="Renderer" style="stroke: #A80036; stroke-width: 1.5;" width="90" x="194.5" y="8"/><ellipse cx="209.5" cy="24" fill="#ADD1B2" rx="11" ry="11" style="stroke: #A80036; stroke-width: 1.0;"/><path d="M212.4688,29.6406 Q211.8906,29.9375 211.25,30.0781 Q210.6094,30.2344 209.9063,30.2344 Q207.4063,30.2344 206.0781,28.5938 Q204.7656,26.9375 204.7656,23.8125 Q204.7656,20.6875 206.0781,19.0313 Q207.4063,17.375 209.9063,17.375 Q210.6094,17.375 211.25,17.5313 Q211.9063,17.6875 212.4688,17.9844 L212.4688,20.7031 Q211.8438,20.125 211.25,19.8594 Q210.6563,19.5781 210.0313,19.5781 Q208.6875,19.5781 208,20.6563 Q207.3125,21.7188 207.3125,23.8125 Q207.3125,25.9063 208,26.9844 Q208.6875,28.0469 210.0313,28.0469 Q210.6563,28.0469 211.25,27.7813 Q211.8438,27.5 212.4688,26.9219 L212.4688,29.6406 Z "/><text fill="#000000" font-family="sans-serif" font-size="12" lengthAdjust="spacingAndGlyphs" textLength="58" x="223.5" y="28.1543">Renderer</text><line style="stroke: #A80036; stroke-width: 1.5;" x1="195.5" x2="283.5" y1="40" y2="40"/><line style="stroke: #A80036; stroke-width: 1.5;" x1="195.5" x2="283.5" y1="48" y2="48"/><!--MD5=[784050c8d51d584d6be7815bc65af218]
class GLMaterial--><rect fill="#FEFECE" filter="url(#fyir8pjx7d0s9)" height="48" id="GLMaterial" style="stroke: #A80036; stroke-width: 1.5;" width="97" x="129" y="339"/><ellipse cx="144" cy="355" fill="#ADD1B2" rx="11" ry="11" style="stroke: #A80036; stroke-width: 1.0;"/><path d="M146.9688,360.6406 Q146.3906,360.9375 145.75,361.0781 Q145.1094,361.2344 144.4063,361.2344 Q141.9063,361.2344 140.5781,359.5938 Q139.2656,357.9375 139.2656,354.8125 Q139.2656,351.6875 140.5781,350.0313 Q141.9063,348.375 144.4063,348.375 Q145.1094,348.375 145.75,348.5313 Q146.4063,348.6875 146.9688,348.9844 L146.9688,351.7031 Q146.3438,351.125 145.75,350.8594 Q145.1563,350.5781 144.5313,350.5781 Q143.1875,350.5781 142.5,351.6563 Q141.8125,352.7188 141.8125,354.8125 Q141.8125,356.9063 142.5,357.9844 Q143.1875,359.0469 144.5313,359.0469 Q145.1563,359.0469 145.75,358.7813 Q146.3438,358.5 146.9688,357.9219 L146.9688,360.6406 Z "/><text fill="#000000" font-family="sans-serif" font-size="12" lengthAdjust="spacingAndGlyphs" textLength="65" x="158" y="359.1543">GLMaterial</text><line style="stroke: #A80036; stroke-width: 1.5;" x1="130" x2="225" y1="371" y2="371"/><line style="stroke: #A80036; stroke-width: 1.5;" x1="130" x2="225" y1="379" y2="379"/><!--MD5=[cf76d8a22b57d20f2e87ead289fb3f2d]
class Vector4--><rect fill="#FEFECE" filter="url(#fyir8pjx7d0s9)" height="48" id="Vector4" style="stroke: #A80036; stroke-width: 1.5;" width="81" x="261" y="339"/><ellipse cx="276" cy="355" fill="#ADD1B2" rx="11" ry="11" style="stroke: #A80036; stroke-width: 1.0;"/><path d="M278.9688,360.6406 Q278.3906,360.9375 277.75,361.0781 Q277.1094,361.2344 276.4063,361.2344 Q273.9063,361.2344 272.5781,359.5938 Q271.2656,357.9375 271.2656,354.8125 Q271.2656,351.6875 272.5781,350.0313 Q273.9063,348.375 276.4063,348.375 Q277.1094,348.375 277.75,348.5313 Q278.4063,348.6875 278.9688,348.9844 L278.9688,351.7031 Q278.3438,351.125 277.75,350.8594 Q277.1563,350.5781 276.5313,350.5781 Q275.1875,350.5781 274.5,351.6563 Q273.8125,352.7188 273.8125,354.8125 Q273.8125,356.9063 274.5,357.9844 Q275.1875,359.0469 276.5313,359.0469 Q277.1563,359.0469 277.75,358.7813 Q278.3438,358.5 278.9688,357.9219 L278.9688,360.6406 Z "/><text fill="#000000" font-family="sans-serif" font-size="12" lengthAdjust="spacingAndGlyphs" textLength="49" x="290" y="359.1543">Vector4</text><line style="stroke: #A80036; stroke-width: 1.5;" x1="262" x2="341" y1="371" y2="371"/><line style="stroke: #A80036; stroke-width: 1.5;" x1="262" x2="341" y1="379" y2="379"/><!--MD5=[67005a751de0bec98998ece1aac58349]
reverse link Renderer to OpenGLRenderer--><path d="M239.5,76.19 C239.5,88.45 239.5,102.21 239.5,115.93 " fill="none" id="Renderer&lt;-OpenGLRenderer" style="stroke: #A80036; stroke-width: 1.0;"/><polygon fill="none" points="232.5,76.08,239.5,56.08,246.5,76.08,232.5,76.08" style="stroke: #A80036; stroke-width: 1.0;"/><!--MD5=[f39592f90311f14fb1594c2be3ae9294]
link OpenGLRenderer to GLMaterial--><path d="M208.86,279.29 C201.41,298.95 193.92,318.69 188.14,333.95 " fill="none" id="OpenGLRenderer-&gt;GLMaterial" style="stroke: #A80036; stroke-width: 1.0;"/><polygon fill="#A80036" points="186.24,338.94,193.1712,331.943,188.0128,334.2648,185.691,329.1065,186.24,338.94" style="stroke: #A80036; stroke-width: 1.0;"/><text fill="#000000" font-family="sans-serif" font-size="13" lengthAdjust="spacingAndGlyphs" textLength="97" x="79.0515" y="327.9367">SkyboxMaterial</text><!--MD5=[a7f3bf3d92e70e740d55a8dcf4808e4b]
link OpenGLRenderer to Vector4--><path d="M270.14,279.29 C277.59,298.95 285.08,318.69 290.86,333.95 " fill="none" id="OpenGLRenderer-&gt;Vector4" style="stroke: #A80036; stroke-width: 1.0;"/><polygon fill="#A80036" points="292.76,338.94,293.309,329.1065,290.9872,334.2648,285.8288,331.943,292.76,338.94" style="stroke: #A80036; stroke-width: 1.0;"/><text fill="#000000" font-family="sans-serif" font-size="13" lengthAdjust="spacingAndGlyphs" textLength="66" x="228.8167" y="327.95">ClearColor</text><!--MD5=[a31050ef7d53c51f32ffafad29219a69]
@startuml
class OpenGLRenderer {
    + {static} RenderSkyBox : bool <<get>> <<set>> = true
    + <<override>> OnResize(engineWindow:EngineWindow, width:int, height:int) : void
    + CreateShader(filePath:string) : OpenGLShader?
    + {static} AddShaderInternal(shader:OpenGLShader?) : void
    + <<virtual>> GetShader(name:string) : OpenGLShader?
    + <<override>> OnLoad() : void
    + <<override>> OnRenderFrame() : void
    + <<override>> OnUnLoad() : void
    + {static} GetShaderStatic(name:string) : OpenGLShader
}
Renderer <|- - OpenGLRenderer
OpenGLRenderer - -> "SkyboxMaterial" GLMaterial
OpenGLRenderer - -> "ClearColor" Vector4
@enduml

PlantUML version 1.2020.02(Sun Mar 01 10:22:07 GMT 2020)
(GPL source distribution)
Java Runtime: OpenJDK Runtime Environment
JVM: OpenJDK 64-Bit Server VM
Java Version: 11.0.9+11-Ubuntu-0ubuntu1
Operating System: Linux
Default Encoding: ANSI_X3.4-1968
Language: en
Country: US
--></g></svg>