<?xml version="1.0" encoding="UTF-8" standalone="no"?><svg xmlns="http://www.w3.org/2000/svg" xmlns:xlink="http://www.w3.org/1999/xlink" contentScriptType="application/ecmascript" contentStyleType="text/css" height="251px" preserveAspectRatio="none" style="width:528px;height:251px;" version="1.1" viewBox="0 0 528 251" width="528px" zoomAndPan="magnify"><defs><filter height="300%" id="f1bxjppqjesa7x" width="300%" x="-1" y="-1"><feGaussianBlur result="blurOut" stdDeviation="2.0"/><feColorMatrix in="blurOut" result="blurOut2" type="matrix" values="0 0 0 0 0 0 0 0 0 0 0 0 0 0 0 0 0 0 .4 0"/><feOffset dx="4.0" dy="4.0" in="blurOut2" result="blurOut3"/><feBlend in="SourceGraphic" in2="blurOut3" mode="normal"/></filter></defs><g><!--MD5=[d9e83bb7ded25ef906090cc320bdf270]
class GLMeshRenderer--><rect fill="#FEFECE" filter="url(#f1bxjppqjesa7x)" height="124.8281" id="GLMeshRenderer" style="stroke: #A80036; stroke-width: 1.5;" width="263" x="6" y="116"/><ellipse cx="80.25" cy="132" fill="#ADD1B2" rx="11" ry="11" style="stroke: #A80036; stroke-width: 1.0;"/><path d="M83.2188,137.6406 Q82.6406,137.9375 82,138.0781 Q81.3594,138.2344 80.6563,138.2344 Q78.1563,138.2344 76.8281,136.5938 Q75.5156,134.9375 75.5156,131.8125 Q75.5156,128.6875 76.8281,127.0313 Q78.1563,125.375 80.6563,125.375 Q81.3594,125.375 82,125.5313 Q82.6563,125.6875 83.2188,125.9844 L83.2188,128.7031 Q82.5938,128.125 82,127.8594 Q81.4063,127.5781 80.7813,127.5781 Q79.4375,127.5781 78.75,128.6563 Q78.0625,129.7188 78.0625,131.8125 Q78.0625,133.9063 78.75,134.9844 Q79.4375,136.0469 80.7813,136.0469 Q81.4063,136.0469 82,135.7813 Q82.5938,135.5 83.2188,134.9219 L83.2188,137.6406 Z "/><text fill="#000000" font-family="sans-serif" font-size="12" lengthAdjust="spacingAndGlyphs" textLength="106" x="100.75" y="136.1543">GLMeshRenderer</text><line style="stroke: #A80036; stroke-width: 1.5;" x1="7" x2="268" y1="148" y2="148"/><line style="stroke: #A80036; stroke-width: 1.5;" x1="7" x2="268" y1="156" y2="156"/><ellipse cx="17" cy="167" fill="#84BE84" rx="3" ry="3" style="stroke: #038048; stroke-width: 1.0;"/><text fill="#000000" font-family="sans-serif" font-size="11" lengthAdjust="spacingAndGlyphs" textLength="173" x="26" y="170.2104">SetMesh(mesh:GLMesh) : void</text><ellipse cx="17" cy="179.8047" fill="#84BE84" rx="3" ry="3" style="stroke: #038048; stroke-width: 1.0;"/><text fill="#000000" font-family="sans-serif" font-size="11" lengthAdjust="spacingAndGlyphs" textLength="162" x="26" y="183.0151">«override» OnCreate() : void</text><ellipse cx="17" cy="192.6094" fill="#84BE84" rx="3" ry="3" style="stroke: #038048; stroke-width: 1.0;"/><text fill="#000000" font-family="sans-serif" font-size="11" lengthAdjust="spacingAndGlyphs" textLength="111" x="26" y="195.8198">ReloadMesh() : void</text><ellipse cx="17" cy="205.4141" fill="#84BE84" rx="3" ry="3" style="stroke: #038048; stroke-width: 1.0;"/><text fill="#000000" font-family="sans-serif" font-size="11" lengthAdjust="spacingAndGlyphs" textLength="193" x="26" y="208.6245">SetMaterial(mat:GLMaterial) : void</text><ellipse cx="17" cy="218.2188" fill="#84BE84" rx="3" ry="3" style="stroke: #038048; stroke-width: 1.0;"/><text fill="#000000" font-family="sans-serif" font-size="11" lengthAdjust="spacingAndGlyphs" textLength="237" x="26" y="221.4292">«override» OnRender(cam:Camera) : void</text><ellipse cx="17" cy="231.0234" fill="#84BE84" rx="3" ry="3" style="stroke: #038048; stroke-width: 1.0;"/><text fill="#000000" font-family="sans-serif" font-size="11" lengthAdjust="spacingAndGlyphs" textLength="168" x="26" y="234.2339">«override» OnDestroy() : void</text><!--MD5=[7dd719c5f2fd4931b5d49d187114aa01]
class RenderComponent--><rect fill="#FEFECE" filter="url(#f1bxjppqjesa7x)" height="48" id="RenderComponent" style="stroke: #A80036; stroke-width: 1.5;" width="149" x="63" y="8"/><ellipse cx="78" cy="24" fill="#ADD1B2" rx="11" ry="11" style="stroke: #A80036; stroke-width: 1.0;"/><path d="M80.9688,29.6406 Q80.3906,29.9375 79.75,30.0781 Q79.1094,30.2344 78.4063,30.2344 Q75.9063,30.2344 74.5781,28.5938 Q73.2656,26.9375 73.2656,23.8125 Q73.2656,20.6875 74.5781,19.0313 Q75.9063,17.375 78.4063,17.375 Q79.1094,17.375 79.75,17.5313 Q80.4063,17.6875 80.9688,17.9844 L80.9688,20.7031 Q80.3438,20.125 79.75,19.8594 Q79.1563,19.5781 78.5313,19.5781 Q77.1875,19.5781 76.5,20.6563 Q75.8125,21.7188 75.8125,23.8125 Q75.8125,25.9063 76.5,26.9844 Q77.1875,28.0469 78.5313,28.0469 Q79.1563,28.0469 79.75,27.7813 Q80.3438,27.5 80.9688,26.9219 L80.9688,29.6406 Z "/><text fill="#000000" font-family="sans-serif" font-size="12" lengthAdjust="spacingAndGlyphs" textLength="117" x="92" y="28.1543">RenderComponent</text><line style="stroke: #A80036; stroke-width: 1.5;" x1="64" x2="211" y1="40" y2="40"/><line style="stroke: #A80036; stroke-width: 1.5;" x1="64" x2="211" y1="48" y2="48"/><!--MD5=[784050c8d51d584d6be7815bc65af218]
class GLMaterial--><rect fill="#FEFECE" filter="url(#f1bxjppqjesa7x)" height="48" id="GLMaterial" style="stroke: #A80036; stroke-width: 1.5;" width="97" x="420" y="154.5"/><ellipse cx="435" cy="170.5" fill="#ADD1B2" rx="11" ry="11" style="stroke: #A80036; stroke-width: 1.0;"/><path d="M437.9688,176.1406 Q437.3906,176.4375 436.75,176.5781 Q436.1094,176.7344 435.4063,176.7344 Q432.9063,176.7344 431.5781,175.0938 Q430.2656,173.4375 430.2656,170.3125 Q430.2656,167.1875 431.5781,165.5313 Q432.9063,163.875 435.4063,163.875 Q436.1094,163.875 436.75,164.0313 Q437.4063,164.1875 437.9688,164.4844 L437.9688,167.2031 Q437.3438,166.625 436.75,166.3594 Q436.1563,166.0781 435.5313,166.0781 Q434.1875,166.0781 433.5,167.1563 Q432.8125,168.2188 432.8125,170.3125 Q432.8125,172.4063 433.5,173.4844 Q434.1875,174.5469 435.5313,174.5469 Q436.1563,174.5469 436.75,174.2813 Q437.3438,174 437.9688,173.4219 L437.9688,176.1406 Z "/><text fill="#000000" font-family="sans-serif" font-size="12" lengthAdjust="spacingAndGlyphs" textLength="65" x="449" y="174.6543">GLMaterial</text><line style="stroke: #A80036; stroke-width: 1.5;" x1="421" x2="516" y1="186.5" y2="186.5"/><line style="stroke: #A80036; stroke-width: 1.5;" x1="421" x2="516" y1="194.5" y2="194.5"/><!--MD5=[6a31f4c13bd069d97c8a9ac61c73b599]
class GLMesh--><rect fill="#FEFECE" filter="url(#f1bxjppqjesa7x)" height="48" id="GLMesh" style="stroke: #A80036; stroke-width: 1.5;" width="80" x="304.5" y="154.5"/><ellipse cx="319.5" cy="170.5" fill="#ADD1B2" rx="11" ry="11" style="stroke: #A80036; stroke-width: 1.0;"/><path d="M322.4688,176.1406 Q321.8906,176.4375 321.25,176.5781 Q320.6094,176.7344 319.9063,176.7344 Q317.4063,176.7344 316.0781,175.0938 Q314.7656,173.4375 314.7656,170.3125 Q314.7656,167.1875 316.0781,165.5313 Q317.4063,163.875 319.9063,163.875 Q320.6094,163.875 321.25,164.0313 Q321.9063,164.1875 322.4688,164.4844 L322.4688,167.2031 Q321.8438,166.625 321.25,166.3594 Q320.6563,166.0781 320.0313,166.0781 Q318.6875,166.0781 318,167.1563 Q317.3125,168.2188 317.3125,170.3125 Q317.3125,172.4063 318,173.4844 Q318.6875,174.5469 320.0313,174.5469 Q320.6563,174.5469 321.25,174.2813 Q321.8438,174 322.4688,173.4219 L322.4688,176.1406 Z "/><text fill="#000000" font-family="sans-serif" font-size="12" lengthAdjust="spacingAndGlyphs" textLength="48" x="333.5" y="174.6543">GLMesh</text><line style="stroke: #A80036; stroke-width: 1.5;" x1="305.5" x2="383.5" y1="186.5" y2="186.5"/><line style="stroke: #A80036; stroke-width: 1.5;" x1="305.5" x2="383.5" y1="194.5" y2="194.5"/><!--MD5=[04a133aedc71704ce661956c399fc929]
reverse link RenderComponent to GLMeshRenderer--><path d="M137.5,76.67 C137.5,89.05 137.5,102.77 137.5,115.99 " fill="none" id="RenderComponent&lt;-GLMeshRenderer" style="stroke: #A80036; stroke-width: 1.0;"/><polygon fill="none" points="130.5,76.22,137.5,56.22,144.5,76.22,130.5,76.22" style="stroke: #A80036; stroke-width: 1.0;"/><!--MD5=[80d5b2a02e907aa6ba463837f8f2d457]
link GLMeshRenderer to GLMaterial--><path d="M242.0964,110.412 C242.0964,110.412 284.12,91.38 305,86 C339.43,77.12 352.51,71.56 385,86 C411.36,97.71 432.91,122.31 447.51,143.2 " fill="none" id="GLMeshRenderer-GLMaterial" style="stroke: #A80036; stroke-width: 1.0;"/><polygon fill="#A80036" points="454.89,154.32,453.2466,144.6092,452.1254,150.1538,446.5808,149.0326,454.89,154.32" style="stroke: #A80036; stroke-width: 1.0;"/><line style="stroke: #A80036; stroke-width: 1.0;" x1="452.1254" x2="447.7" y1="150.1538" y2="143.485"/><polygon fill="#FFFFFF" points="231.43,115.91,238.5959,116.7165,242.0964,110.412,234.9305,109.6055,231.43,115.91" style="stroke: #A80036; stroke-width: 1.0;"/><text fill="#000000" font-family="sans-serif" font-size="13" lengthAdjust="spacingAndGlyphs" textLength="50" x="394.9962" y="143.2859">materal</text><!--MD5=[5824ecfc45261f3bb9ef9cb00aad9e8d]
link GLMeshRenderer to GLMesh--><path d="M281.3,178.5 C281.3,178.5 288.1,178.5 290.94,178.5 " fill="none" id="GLMeshRenderer-GLMesh" style="stroke: #A80036; stroke-width: 1.0;"/><polygon fill="#A80036" points="304.26,178.5,295.26,174.5,299.26,178.5,295.26,182.5,304.26,178.5" style="stroke: #A80036; stroke-width: 1.0;"/><line style="stroke: #A80036; stroke-width: 1.0;" x1="299.26" x2="291.26" y1="178.5" y2="178.5"/><polygon fill="#FFFFFF" points="269.3,178.5,275.3,182.5,281.3,178.5,275.3,174.5,269.3,178.5" style="stroke: #A80036; stroke-width: 1.0;"/><text fill="#000000" font-family="sans-serif" font-size="13" lengthAdjust="spacingAndGlyphs" textLength="34" x="262.2251" y="172.9525">Mesh</text><!--MD5=[1c60f55155b75d045176ca2d8a0d88b7]
@startuml
class GLMeshRenderer {
    + SetMesh(mesh:GLMesh) : void
    + <<override>> OnCreate() : void
    + ReloadMesh() : void
    + SetMaterial(mat:GLMaterial) : void
    + <<override>> OnRender(cam:Camera) : void
    + <<override>> OnDestroy() : void
}
RenderComponent <|- - GLMeshRenderer
GLMeshRenderer o-> "materal" GLMaterial
GLMeshRenderer o-> "Mesh" GLMesh
@enduml

PlantUML version 1.2020.02(Sun Mar 01 10:22:07 GMT 2020)
(GPL source distribution)
Java Runtime: OpenJDK Runtime Environment
JVM: OpenJDK 64-Bit Server VM
Java Version: 11.0.9+11-Ubuntu-0ubuntu1
Operating System: Linux
Default Encoding: ANSI_X3.4-1968
Language: en
Country: US
--></g></svg>