<?xml version="1.0" encoding="UTF-8" standalone="no"?><svg xmlns="http://www.w3.org/2000/svg" xmlns:xlink="http://www.w3.org/1999/xlink" contentScriptType="application/ecmascript" contentStyleType="text/css" height="366px" preserveAspectRatio="none" style="width:420px;height:366px;" version="1.1" viewBox="0 0 420 366" width="420px" zoomAndPan="magnify"><defs><filter height="300%" id="f5au27q15c6r6" width="300%" x="-1" y="-1"><feGaussianBlur result="blurOut" stdDeviation="2.0"/><feColorMatrix in="blurOut" result="blurOut2" type="matrix" values="0 0 0 0 0 0 0 0 0 0 0 0 0 0 0 0 0 0 .4 0"/><feOffset dx="4.0" dy="4.0" in="blurOut2" result="blurOut3"/><feBlend in="SourceGraphic" in2="blurOut3" mode="normal"/></filter></defs><g><!--MD5=[4f181b0692782e9ffc6aeb8c03dc8e8d]
class EngineWindow--><rect fill="#FEFECE" filter="url(#f5au27q15c6r6)" height="130.7656" id="EngineWindow" style="stroke: #A80036; stroke-width: 1.5;" width="403" x="6" y="116"/><ellipse cx="158.25" cy="134.9688" fill="#ADD1B2" rx="11" ry="11" style="stroke: #A80036; stroke-width: 1.0;"/><path d="M161.2188,140.6094 Q160.6406,140.9063 160,141.0469 Q159.3594,141.2031 158.6563,141.2031 Q156.1563,141.2031 154.8281,139.5625 Q153.5156,137.9063 153.5156,134.7813 Q153.5156,131.6563 154.8281,130 Q156.1563,128.3438 158.6563,128.3438 Q159.3594,128.3438 160,128.5 Q160.6563,128.6563 161.2188,128.9531 L161.2188,131.6719 Q160.5938,131.0938 160,130.8281 Q159.4063,130.5469 158.7813,130.5469 Q157.4375,130.5469 156.75,131.625 Q156.0625,132.6875 156.0625,134.7813 Q156.0625,136.875 156.75,137.9531 Q157.4375,139.0156 158.7813,139.0156 Q159.4063,139.0156 160,138.75 Q160.5938,138.4688 161.2188,137.8906 L161.2188,140.6094 Z "/><text fill="#000000" font-family="sans-serif" font-size="12" font-style="italic" lengthAdjust="spacingAndGlyphs" textLength="56" x="195.75" y="132.1387">«unsafe»</text><text fill="#000000" font-family="sans-serif" font-size="12" lengthAdjust="spacingAndGlyphs" textLength="90" x="178.75" y="146.1074">EngineWindow</text><line style="stroke: #A80036; stroke-width: 1.5;" x1="7" x2="408" y1="153.9375" y2="153.9375"/><ellipse cx="17" cy="164.9375" fill="none" rx="3" ry="3" style="stroke: #038048; stroke-width: 1.0;"/><text fill="#000000" font-family="sans-serif" font-size="11" lengthAdjust="spacingAndGlyphs" textLength="83" x="26" y="168.1479">FPS : int «set»</text><ellipse cx="17" cy="177.7422" fill="none" rx="3" ry="3" style="stroke: #038048; stroke-width: 1.0;"/><text fill="#000000" font-family="sans-serif" font-size="11" lengthAdjust="spacingAndGlyphs" textLength="85" x="26" y="180.9526">UPS : int «set»</text><line style="stroke: #A80036; stroke-width: 1.5;" x1="7" x2="408" y1="187.5469" y2="187.5469"/><ellipse cx="17" cy="198.5469" fill="#84BE84" rx="3" ry="3" style="stroke: #038048; stroke-width: 1.0;"/><text fill="#000000" font-family="sans-serif" font-size="11" lengthAdjust="spacingAndGlyphs" textLength="377" x="26" y="201.7573">EngineWindow(renderer:Renderer, width:int, height:int, title:string)</text><ellipse cx="17" cy="211.3516" fill="#84BE84" rx="3" ry="3" style="stroke: #038048; stroke-width: 1.0;"/><text fill="#000000" font-family="sans-serif" font-size="11" lengthAdjust="spacingAndGlyphs" textLength="64" x="26" y="214.562">Run() : void</text><ellipse cx="17" cy="224.1563" fill="#84BE84" rx="3" ry="3" style="stroke: #038048; stroke-width: 1.0;"/><text fill="#000000" font-family="sans-serif" font-size="11" lengthAdjust="spacingAndGlyphs" textLength="75" x="26" y="227.3667">Clean() : void</text><ellipse cx="17" cy="236.9609" fill="#84BE84" rx="3" ry="3" style="stroke: #038048; stroke-width: 1.0;"/><text fill="#000000" font-family="sans-serif" font-size="11" lengthAdjust="spacingAndGlyphs" textLength="88" x="26" y="240.1714">Initialize() : void</text><!--MD5=[7adad93dd52dc1f67eb0099b35cb7cb0]
class NativeWindow--><rect fill="#FEFECE" filter="url(#f5au27q15c6r6)" height="48" id="NativeWindow" style="stroke: #A80036; stroke-width: 1.5;" width="118" x="148.5" y="8"/><ellipse cx="163.5" cy="24" fill="#ADD1B2" rx="11" ry="11" style="stroke: #A80036; stroke-width: 1.0;"/><path d="M166.4688,29.6406 Q165.8906,29.9375 165.25,30.0781 Q164.6094,30.2344 163.9063,30.2344 Q161.4063,30.2344 160.0781,28.5938 Q158.7656,26.9375 158.7656,23.8125 Q158.7656,20.6875 160.0781,19.0313 Q161.4063,17.375 163.9063,17.375 Q164.6094,17.375 165.25,17.5313 Q165.9063,17.6875 166.4688,17.9844 L166.4688,20.7031 Q165.8438,20.125 165.25,19.8594 Q164.6563,19.5781 164.0313,19.5781 Q162.6875,19.5781 162,20.6563 Q161.3125,21.7188 161.3125,23.8125 Q161.3125,25.9063 162,26.9844 Q162.6875,28.0469 164.0313,28.0469 Q164.6563,28.0469 165.25,27.7813 Q165.8438,27.5 166.4688,26.9219 L166.4688,29.6406 Z "/><text fill="#000000" font-family="sans-serif" font-size="12" lengthAdjust="spacingAndGlyphs" textLength="86" x="177.5" y="28.1543">NativeWindow</text><line style="stroke: #A80036; stroke-width: 1.5;" x1="149.5" x2="265.5" y1="40" y2="40"/><line style="stroke: #A80036; stroke-width: 1.5;" x1="149.5" x2="265.5" y1="48" y2="48"/><!--MD5=[4945c737fad898a5ce312252f730d528]
class Renderer--><rect fill="#FEFECE" filter="url(#f5au27q15c6r6)" height="48" id="Renderer" style="stroke: #A80036; stroke-width: 1.5;" width="90" x="162.5" y="307"/><ellipse cx="177.5" cy="323" fill="#ADD1B2" rx="11" ry="11" style="stroke: #A80036; stroke-width: 1.0;"/><path d="M180.4688,328.6406 Q179.8906,328.9375 179.25,329.0781 Q178.6094,329.2344 177.9063,329.2344 Q175.4063,329.2344 174.0781,327.5938 Q172.7656,325.9375 172.7656,322.8125 Q172.7656,319.6875 174.0781,318.0313 Q175.4063,316.375 177.9063,316.375 Q178.6094,316.375 179.25,316.5313 Q179.9063,316.6875 180.4688,316.9844 L180.4688,319.7031 Q179.8438,319.125 179.25,318.8594 Q178.6563,318.5781 178.0313,318.5781 Q176.6875,318.5781 176,319.6563 Q175.3125,320.7188 175.3125,322.8125 Q175.3125,324.9063 176,325.9844 Q176.6875,327.0469 178.0313,327.0469 Q178.6563,327.0469 179.25,326.7813 Q179.8438,326.5 180.4688,325.9219 L180.4688,328.6406 Z "/><text fill="#000000" font-family="sans-serif" font-size="12" lengthAdjust="spacingAndGlyphs" textLength="58" x="191.5" y="327.1543">Renderer</text><line style="stroke: #A80036; stroke-width: 1.5;" x1="163.5" x2="251.5" y1="339" y2="339"/><line style="stroke: #A80036; stroke-width: 1.5;" x1="163.5" x2="251.5" y1="347" y2="347"/><!--MD5=[3c1eb9515c0ff96360322b71987b9a49]
reverse link NativeWindow to EngineWindow--><path d="M207.5,76.44 C207.5,88.82 207.5,102.57 207.5,115.91 " fill="none" id="NativeWindow&lt;-EngineWindow" style="stroke: #A80036; stroke-width: 1.0;"/><polygon fill="none" points="200.5,76.05,207.5,56.05,214.5,76.05,200.5,76.05" style="stroke: #A80036; stroke-width: 1.0;"/><!--MD5=[9f7bf5be74053d5b0131fa9578817f0e]
link EngineWindow to Renderer--><path d="M207.5,247.2 C207.5,266.25 207.5,286.12 207.5,301.62 " fill="none" id="EngineWindow-&gt;Renderer" style="stroke: #A80036; stroke-width: 1.0;"/><polygon fill="#A80036" points="207.5,306.71,211.5,297.71,207.5,301.71,203.5,297.71,207.5,306.71" style="stroke: #A80036; stroke-width: 1.0;"/><text fill="#000000" font-family="sans-serif" font-size="13" lengthAdjust="spacingAndGlyphs" textLength="97" x="98.6781" y="296.0443">ActiveRenderer</text><!--MD5=[074f5523c4ef86372d6c237b084ad9d6]
@startuml
class EngineWindow <<unsafe>> {
    + FPS : int <<set>>
    + UPS : int <<set>>
    + EngineWindow(renderer:Renderer, width:int, height:int, title:string)
    + Run() : void
    + Clean() : void
    + Initialize() : void
}
NativeWindow <|- - EngineWindow
EngineWindow - -> "ActiveRenderer" Renderer
@enduml

PlantUML version 1.2020.02(Sun Mar 01 10:22:07 GMT 2020)
(GPL source distribution)
Java Runtime: OpenJDK Runtime Environment
JVM: OpenJDK 64-Bit Server VM
Java Version: 11.0.9+11-Ubuntu-0ubuntu1
Operating System: Linux
Default Encoding: ANSI_X3.4-1968
Language: en
Country: US
--></g></svg>