<?xml version="1.0" encoding="UTF-8" standalone="no"?><svg xmlns="http://www.w3.org/2000/svg" xmlns:xlink="http://www.w3.org/1999/xlink" contentScriptType="application/ecmascript" contentStyleType="text/css" height="148px" preserveAspectRatio="none" style="width:356px;height:148px;" version="1.1" viewBox="0 0 356 148" width="356px" zoomAndPan="magnify"><defs><filter height="300%" id="f4x44vwbet6ka" width="300%" x="-1" y="-1"><feGaussianBlur result="blurOut" stdDeviation="2.0"/><feColorMatrix in="blurOut" result="blurOut2" type="matrix" values="0 0 0 0 0 0 0 0 0 0 0 0 0 0 0 0 0 0 .4 0"/><feOffset dx="4.0" dy="4.0" in="blurOut2" result="blurOut3"/><feBlend in="SourceGraphic" in2="blurOut3" mode="normal"/></filter></defs><g><!--MD5=[3cab58e622330109321580dbb0b85605]
class Input--><rect fill="#FEFECE" filter="url(#f4x44vwbet6ka)" height="130.7656" id="Input" style="stroke: #A80036; stroke-width: 1.5;" width="338" x="7" y="7"/><ellipse cx="149.75" cy="25.9688" fill="#ADD1B2" rx="11" ry="11" style="stroke: #A80036; stroke-width: 1.0;"/><path d="M152.7188,31.6094 Q152.1406,31.9063 151.5,32.0469 Q150.8594,32.2031 150.1563,32.2031 Q147.6563,32.2031 146.3281,30.5625 Q145.0156,28.9063 145.0156,25.7813 Q145.0156,22.6563 146.3281,21 Q147.6563,19.3438 150.1563,19.3438 Q150.8594,19.3438 151.5,19.5 Q152.1563,19.6563 152.7188,19.9531 L152.7188,22.6719 Q152.0938,22.0938 151.5,21.8281 Q150.9063,21.5469 150.2813,21.5469 Q148.9375,21.5469 148.25,22.625 Q147.5625,23.6875 147.5625,25.7813 Q147.5625,27.875 148.25,28.9531 Q148.9375,30.0156 150.2813,30.0156 Q150.9063,30.0156 151.5,29.75 Q152.0938,29.4688 152.7188,28.8906 L152.7188,31.6094 Z "/><text fill="#000000" font-family="sans-serif" font-size="12" font-style="italic" lengthAdjust="spacingAndGlyphs" textLength="48" x="168.25" y="23.1387">«static»</text><text fill="#000000" font-family="sans-serif" font-size="12" lengthAdjust="spacingAndGlyphs" textLength="32" x="176.25" y="37.1074">Input</text><line style="stroke: #A80036; stroke-width: 1.5;" x1="8" x2="344" y1="44.9375" y2="44.9375"/><line style="stroke: #A80036; stroke-width: 1.5;" x1="8" x2="344" y1="52.9375" y2="52.9375"/><ellipse cx="18" cy="63.9375" fill="#84BE84" rx="3" ry="3" style="stroke: #038048; stroke-width: 1.0;"/><text fill="#000000" font-family="sans-serif" font-size="11" lengthAdjust="spacingAndGlyphs" text-decoration="underline" textLength="312" x="27" y="67.1479">UpdateKeyboardState(newState:KeyboardState?) : void</text><ellipse cx="18" cy="76.7422" fill="#84BE84" rx="3" ry="3" style="stroke: #038048; stroke-width: 1.0;"/><text fill="#000000" font-family="sans-serif" font-size="11" lengthAdjust="spacingAndGlyphs" text-decoration="underline" textLength="134" x="27" y="79.9526">GetKey(key:Keys) : bool</text><ellipse cx="18" cy="89.5469" fill="#84BE84" rx="3" ry="3" style="stroke: #038048; stroke-width: 1.0;"/><text fill="#000000" font-family="sans-serif" font-size="11" lengthAdjust="spacingAndGlyphs" text-decoration="underline" textLength="165" x="27" y="92.7573">GetKeyDown(key:Keys) : bool</text><ellipse cx="18" cy="102.3516" fill="#84BE84" rx="3" ry="3" style="stroke: #038048; stroke-width: 1.0;"/><text fill="#000000" font-family="sans-serif" font-size="11" lengthAdjust="spacingAndGlyphs" text-decoration="underline" textLength="149" x="27" y="105.562">GetKeyUp(key:Keys) : bool</text><ellipse cx="18" cy="115.1563" fill="#84BE84" rx="3" ry="3" style="stroke: #038048; stroke-width: 1.0;"/><text fill="#000000" font-family="sans-serif" font-size="11" lengthAdjust="spacingAndGlyphs" text-decoration="underline" textLength="84" x="27" y="118.3667">AnyKey() : bool</text><ellipse cx="18" cy="127.9609" fill="#84BE84" rx="3" ry="3" style="stroke: #038048; stroke-width: 1.0;"/><text fill="#000000" font-family="sans-serif" font-size="11" lengthAdjust="spacingAndGlyphs" text-decoration="underline" textLength="168" x="27" y="131.1714">WasKeyDown(key:Keys) : bool</text><!--MD5=[ae2d2c03034b23d854fe11444ce58861]
@startuml
class Input <<static>> {
    + {static} UpdateKeyboardState(newState:KeyboardState?) : void
    + {static} GetKey(key:Keys) : bool
    + {static} GetKeyDown(key:Keys) : bool
    + {static} GetKeyUp(key:Keys) : bool
    + {static} AnyKey() : bool
    + {static} WasKeyDown(key:Keys) : bool
}
@enduml

PlantUML version 1.2020.02(Sun Mar 01 10:22:07 GMT 2020)
(GPL source distribution)
Java Runtime: OpenJDK Runtime Environment
JVM: OpenJDK 64-Bit Server VM
Java Version: 11.0.9+11-Ubuntu-0ubuntu1
Operating System: Linux
Default Encoding: ANSI_X3.4-1968
Language: en
Country: US
--></g></svg>